{"glyphs":{"0":{"ha":694,"x_min":43,"x_max":608,"o":"m 131 853 l 131 897 l 521 897 l 521 853 l 564 853 l 564 810 l 608 810 l 608 115 l 564 115 l 564 72 l 521 72 l 521 28 l 131 28 l 131 72 l 86 72 l 86 115 l 43 115 l 43 810 l 86 810 l 86 853 l 131 853 m 433 767 l 433 810 l 217 810 l 217 767 l 174 767 l 174 419 l 217 419 l 217 463 l 261 463 l 261 506 l 304 506 l 304 550 l 347 550 l 347 593 l 390 593 l 390 636 l 433 636 l 433 679 l 478 679 l 478 767 l 433 767 m 478 158 l 478 550 l 433 550 l 433 506 l 390 506 l 390 463 l 347 463 l 347 419 l 304 419 l 304 375 l 261 375 l 261 332 l 217 332 l 217 289 l 174 289 l 174 158 l 217 158 l 217 115 l 433 115 l 433 158 l 478 158 z "},"1":{"ha":694,"x_min":131,"x_max":521,"o":"m 261 853 l 261 897 l 390 897 l 390 115 l 521 115 l 521 28 l 131 28 l 131 115 l 261 115 l 261 679 l 131 679 l 131 767 l 174 767 l 174 810 l 217 810 l 217 853 l 261 853 z "},"2":{"ha":694,"x_min":43,"x_max":608,"o":"m 131 853 l 131 897 l 521 897 l 521 853 l 564 853 l 564 810 l 608 810 l 608 550 l 564 550 l 564 506 l 521 506 l 521 463 l 478 463 l 478 419 l 433 419 l 433 375 l 390 375 l 390 332 l 347 332 l 347 289 l 304 289 l 304 246 l 261 246 l 261 203 l 217 203 l 217 158 l 174 158 l 174 115 l 608 115 l 608 28 l 43 28 l 43 158 l 86 158 l 86 203 l 131 203 l 131 246 l 174 246 l 174 289 l 217 289 l 217 332 l 261 332 l 261 375 l 304 375 l 304 419 l 347 419 l 347 463 l 390 463 l 390 506 l 433 506 l 433 550 l 478 550 l 478 767 l 433 767 l 433 810 l 217 810 l 217 767 l 174 767 l 174 593 l 43 593 l 43 810 l 86 810 l 86 853 l 131 853 z "},"3":{"ha":694,"x_min":43,"x_max":608,"o":"m 131 853 l 131 897 l 521 897 l 521 853 l 564 853 l 564 810 l 608 810 l 608 506 l 564 506 l 564 419 l 608 419 l 608 115 l 564 115 l 564 72 l 521 72 l 521 28 l 131 28 l 131 72 l 86 72 l 86 115 l 43 115 l 43 246 l 174 246 l 174 158 l 217 158 l 217 115 l 433 115 l 433 158 l 478 158 l 478 375 l 433 375 l 433 419 l 174 419 l 174 506 l 433 506 l 433 550 l 478 550 l 478 767 l 433 767 l 433 810 l 217 810 l 217 767 l 174 767 l 174 679 l 43 679 l 43 810 l 86 810 l 86 853 l 131 853 z "},"4":{"ha":694,"x_min":43,"x_max":608,"o":"m 478 853 l 478 897 l 608 897 l 608 28 l 478 28 l 478 246 l 43 246 l 43 463 l 86 463 l 86 506 l 131 506 l 131 550 l 174 550 l 174 593 l 217 593 l 217 636 l 261 636 l 261 679 l 304 679 l 304 722 l 347 722 l 347 767 l 390 767 l 390 810 l 433 810 l 433 853 l 478 853 m 478 332 l 478 722 l 433 722 l 433 679 l 390 679 l 390 636 l 347 636 l 347 593 l 304 593 l 304 550 l 261 550 l 261 506 l 217 506 l 217 463 l 174 463 l 174 332 l 478 332 z "},"5":{"ha":694,"x_min":43,"x_max":608,"o":"m 43 463 l 43 897 l 608 897 l 608 810 l 174 810 l 174 550 l 521 550 l 521 506 l 564 506 l 564 463 l 608 463 l 608 115 l 564 115 l 564 72 l 521 72 l 521 28 l 131 28 l 131 72 l 86 72 l 86 115 l 43 115 l 43 203 l 174 203 l 174 158 l 217 158 l 217 115 l 478 115 l 478 419 l 433 419 l 433 463 l 43 463 z "},"6":{"ha":694,"x_min":43,"x_max":608,"o":"m 131 853 l 131 897 l 564 897 l 564 810 l 217 810 l 217 767 l 174 767 l 174 550 l 521 550 l 521 506 l 564 506 l 564 463 l 608 463 l 608 115 l 564 115 l 564 72 l 521 72 l 521 28 l 131 28 l 131 72 l 86 72 l 86 115 l 43 115 l 43 810 l 86 810 l 86 853 l 131 853 m 433 419 l 433 463 l 174 463 l 174 158 l 217 158 l 217 115 l 433 115 l 433 158 l 478 158 l 478 419 l 433 419 z "},"7":{"ha":694,"x_min":43,"x_max":608,"o":"m 43 636 l 43 897 l 608 897 l 608 679 l 564 679 l 564 593 l 521 593 l 521 506 l 478 506 l 478 419 l 433 419 l 433 332 l 390 332 l 390 28 l 261 28 l 261 332 l 304 332 l 304 419 l 347 419 l 347 506 l 390 506 l 390 593 l 433 593 l 433 679 l 478 679 l 478 810 l 174 810 l 174 636 l 43 636 z "},"8":{"ha":694,"x_min":43,"x_max":608,"o":"m 131 853 l 131 897 l 521 897 l 521 853 l 564 853 l 564 810 l 608 810 l 608 506 l 564 506 l 564 419 l 608 419 l 608 115 l 564 115 l 564 72 l 521 72 l 521 28 l 131 28 l 131 72 l 86 72 l 86 115 l 43 115 l 43 419 l 86 419 l 86 506 l 43 506 l 43 810 l 86 810 l 86 853 l 131 853 m 433 767 l 433 810 l 217 810 l 217 767 l 174 767 l 174 550 l 217 550 l 217 506 l 433 506 l 433 550 l 478 550 l 478 767 l 433 767 m 433 375 l 433 419 l 217 419 l 217 375 l 174 375 l 174 158 l 217 158 l 217 115 l 433 115 l 433 158 l 478 158 l 478 375 l 433 375 z "},"9":{"ha":694,"x_min":43,"x_max":608,"o":"m 131 853 l 131 897 l 521 897 l 521 853 l 564 853 l 564 810 l 608 810 l 608 115 l 564 115 l 564 72 l 521 72 l 521 28 l 86 28 l 86 115 l 433 115 l 433 158 l 478 158 l 478 375 l 131 375 l 131 419 l 86 419 l 86 463 l 43 463 l 43 810 l 86 810 l 86 853 l 131 853 m 433 767 l 433 810 l 217 810 l 217 767 l 174 767 l 174 506 l 217 506 l 217 463 l 478 463 l 478 767 l 433 767 z "},"Ƒ":{"ha":694,"x_min":46,"x_max":414,"o":"m 46 0 l 46 925 l 414 925 l 414 0 l 46 0 m 92 46 l 368 46 l 368 879 l 92 879 l 92 46 z "},"ȴ":{"ha":694,"x_min":46,"x_max":414,"o":"m 46 0 l 46 925 l 414 925 l 414 0 l 46 0 m 92 46 l 368 46 l 368 879 l 92 879 l 92 46 z "},"ȵ":{"ha":694,"x_min":46,"x_max":414,"o":"m 46 0 l 46 925 l 414 925 l 414 0 l 46 0 m 92 46 l 368 46 l 368 879 l 92 879 l 92 46 z "},"ȶ":{"ha":694,"x_min":46,"x_max":414,"o":"m 46 0 l 46 925 l 414 925 l 414 0 l 46 0 m 92 46 l 368 46 l 368 879 l 92 879 l 92 46 z "},"ɕ":{"ha":694,"x_min":46,"x_max":414,"o":"m 46 0 l 46 925 l 414 925 l 414 0 l 46 0 m 92 46 l 368 46 l 368 879 l 92 879 l 92 46 z "},"ɖ":{"ha":694,"x_min":46,"x_max":414,"o":"m 46 0 l 46 925 l 414 925 l 414 0 l 46 0 m 92 46 l 368 46 l 368 879 l 92 879 l 92 46 z "},"ɗ":{"ha":694,"x_min":46,"x_max":414,"o":"m 46 0 l 46 925 l 414 925 l 414 0 l 46 0 m 92 46 l 368 46 l 368 879 l 92 879 l 92 46 z "},"ɚ":{"ha":694,"x_min":46,"x_max":414,"o":"m 46 0 l 46 925 l 414 925 l 414 0 l 46 0 m 92 46 l 368 46 l 368 879 l 92 879 l 92 46 z "},"˚":{"ha":694,"x_min":46,"x_max":414,"o":"m 46 0 l 46 925 l 414 925 l 414 0 l 46 0 m 92 46 l 368 46 l 368 879 l 92 879 l 92 46 z "},"ϒ":{"ha":694,"x_min":46,"x_max":414,"o":"m 46 0 l 46 925 l 414 925 l 414 0 l 46 0 m 92 46 l 368 46 l 368 879 l 92 879 l 92 46 z "},"ϓ":{"ha":694,"x_min":46,"x_max":414,"o":"m 46 0 l 46 925 l 414 925 l 414 0 l 46 0 m 92 46 l 368 46 l 368 879 l 92 879 l 92 46 z "},"ϔ":{"ha":694,"x_min":46,"x_max":414,"o":"m 46 0 l 46 925 l 414 925 l 414 0 l 46 0 m 92 46 l 368 46 l 368 879 l 92 879 l 92 46 z "},"Ẻ":{"ha":694,"x_min":46,"x_max":414,"o":"m 46 0 l 46 925 l 414 925 l 414 0 l 46 0 m 92 46 l 368 46 l 368 879 l 92 879 l 92 46 z "},"ẻ":{"ha":694,"x_min":46,"x_max":414,"o":"m 46 0 l 46 925 l 414 925 l 414 0 l 46 0 m 92 46 l 368 46 l 368 879 l 92 879 l 92 46 z "},"‱":{"ha":694,"x_min":46,"x_max":414,"o":"m 46 0 l 46 925 l 414 925 l 414 0 l 46 0 m 92 46 l 368 46 l 368 879 l 92 879 l 92 46 z "},"※":{"ha":694,"x_min":46,"x_max":414,"o":"m 46 0 l 46 925 l 414 925 l 414 0 l 46 0 m 92 46 l 368 46 l 368 879 l 92 879 l 92 46 z "},"‽":{"ha":694,"x_min":46,"x_max":414,"o":"m 46 0 l 46 925 l 414 925 l 414 0 l 46 0 m 92 46 l 368 46 l 368 879 l 92 879 l 92 46 z "},"₨":{"ha":694,"x_min":46,"x_max":414,"o":"m 46 0 l 46 925 l 414 925 l 414 0 l 46 0 m 92 46 l 368 46 l 368 879 l 92 879 l 92 46 z "},"₩":{"ha":694,"x_min":46,"x_max":414,"o":"m 46 0 l 46 925 l 414 925 l 414 0 l 46 0 m 92 46 l 368 46 l 368 879 l 92 879 l 92 46 z "},"₫":{"ha":694,"x_min":46,"x_max":414,"o":"m 46 0 l 46 925 l 414 925 l 414 0 l 46 0 m 92 46 l 368 46 l 368 879 l 92 879 l 92 46 z "},"₭":{"ha":694,"x_min":46,"x_max":414,"o":"m 46 0 l 46 925 l 414 925 l 414 0 l 46 0 m 92 46 l 368 46 l 368 879 l 92 879 l 92 46 z "},"℗":{"ha":694,"x_min":46,"x_max":414,"o":"m 46 0 l 46 925 l 414 925 l 414 0 l 46 0 m 92 46 l 368 46 l 368 879 l 92 879 l 92 46 z "},"℘":{"ha":694,"x_min":46,"x_max":414,"o":"m 46 0 l 46 925 l 414 925 l 414 0 l 46 0 m 92 46 l 368 46 l 368 879 l 92 879 l 92 46 z "},"ℙ":{"ha":694,"x_min":46,"x_max":414,"o":"m 46 0 l 46 925 l 414 925 l 414 0 l 46 0 m 92 46 l 368 46 l 368 879 l 92 879 l 92 46 z "},"ℛ":{"ha":694,"x_min":46,"x_max":414,"o":"m 46 0 l 46 925 l 414 925 l 414 0 l 46 0 m 92 46 l 368 46 l 368 879 l 92 879 l 92 46 z "},"ℜ":{"ha":694,"x_min":46,"x_max":414,"o":"m 46 0 l 46 925 l 414 925 l 414 0 l 46 0 m 92 46 l 368 46 l 368 879 l 92 879 l 92 46 z "},"℣":{"ha":694,"x_min":46,"x_max":414,"o":"m 46 0 l 46 925 l 414 925 l 414 0 l 46 0 m 92 46 l 368 46 l 368 879 l 92 879 l 92 46 z "},"℥":{"ha":694,"x_min":46,"x_max":414,"o":"m 46 0 l 46 925 l 414 925 l 414 0 l 46 0 m 92 46 l 368 46 l 368 879 l 92 879 l 92 46 z "},"↥":{"ha":694,"x_min":46,"x_max":414,"o":"m 46 0 l 46 925 l 414 925 l 414 0 l 46 0 m 92 46 l 368 46 l 368 879 l 92 879 l 92 46 z "},"↧":{"ha":694,"x_min":46,"x_max":414,"o":"m 46 0 l 46 925 l 414 925 l 414 0 l 46 0 m 92 46 l 368 46 l 368 879 l 92 879 l 92 46 z "},"↴":{"ha":694,"x_min":46,"x_max":414,"o":"m 46 0 l 46 925 l 414 925 l 414 0 l 46 0 m 92 46 l 368 46 l 368 879 l 92 879 l 92 46 z "},"∛":{"ha":694,"x_min":46,"x_max":414,"o":"m 46 0 l 46 925 l 414 925 l 414 0 l 46 0 m 92 46 l 368 46 l 368 879 l 92 879 l 92 46 z "},"∜":{"ha":694,"x_min":46,"x_max":414,"o":"m 46 0 l 46 925 l 414 925 l 414 0 l 46 0 m 92 46 l 368 46 l 368 879 l 92 879 l 92 46 z "},"∝":{"ha":694,"x_min":46,"x_max":414,"o":"m 46 0 l 46 925 l 414 925 l 414 0 l 46 0 m 92 46 l 368 46 l 368 879 l 92 879 l 92 46 z "},"∦":{"ha":694,"x_min":46,"x_max":414,"o":"m 46 0 l 46 925 l 414 925 l 414 0 l 46 0 m 92 46 l 368 46 l 368 879 l 92 879 l 92 46 z "},"≢":{"ha":694,"x_min":46,"x_max":414,"o":"m 46 0 l 46 925 l 414 925 l 414 0 l 46 0 m 92 46 l 368 46 l 368 879 l 92 879 l 92 46 z "},"≣":{"ha":694,"x_min":46,"x_max":414,"o":"m 46 0 l 46 925 l 414 925 l 414 0 l 46 0 m 92 46 l 368 46 l 368 879 l 92 879 l 92 46 z "},"⊄":{"ha":694,"x_min":46,"x_max":414,"o":"m 46 0 l 46 925 l 414 925 l 414 0 l 46 0 m 92 46 l 368 46 l 368 879 l 92 879 l 92 46 z "},"⊅":{"ha":694,"x_min":46,"x_max":414,"o":"m 46 0 l 46 925 l 414 925 l 414 0 l 46 0 m 92 46 l 368 46 l 368 879 l 92 879 l 92 46 z "},"⌁":{"ha":694,"x_min":46,"x_max":414,"o":"m 46 0 l 46 925 l 414 925 l 414 0 l 46 0 m 92 46 l 368 46 l 368 879 l 92 879 l 92 46 z "},"▭":{"ha":694,"x_min":46,"x_max":414,"o":"m 46 0 l 46 925 l 414 925 l 414 0 l 46 0 m 92 46 l 368 46 l 368 879 l 92 879 l 92 46 z "},"▯":{"ha":694,"x_min":46,"x_max":414,"o":"m 46 0 l 46 925 l 414 925 l 414 0 l 46 0 m 92 46 l 368 46 l 368 879 l 92 879 l 92 46 z "},"▰":{"ha":694,"x_min":46,"x_max":414,"o":"m 46 0 l 46 925 l 414 925 l 414 0 l 46 0 m 92 46 l 368 46 l 368 879 l 92 879 l 92 46 z "},"▱":{"ha":694,"x_min":46,"x_max":414,"o":"m 46 0 l 46 925 l 414 925 l 414 0 l 46 0 m 92 46 l 368 46 l 368 879 l 92 879 l 92 46 z "},"△":{"ha":694,"x_min":46,"x_max":414,"o":"m 46 0 l 46 925 l 414 925 l 414 0 l 46 0 m 92 46 l 368 46 l 368 879 l 92 879 l 92 46 z "},"▴":{"ha":694,"x_min":46,"x_max":414,"o":"m 46 0 l 46 925 l 414 925 l 414 0 l 46 0 m 92 46 l 368 46 l 368 879 l 92 879 l 92 46 z "},"▵":{"ha":694,"x_min":46,"x_max":414,"o":"m 46 0 l 46 925 l 414 925 l 414 0 l 46 0 m 92 46 l 368 46 l 368 879 l 92 879 l 92 46 z "},"▷":{"ha":694,"x_min":46,"x_max":414,"o":"m 46 0 l 46 925 l 414 925 l 414 0 l 46 0 m 92 46 l 368 46 l 368 879 l 92 879 l 92 46 z "},"▸":{"ha":694,"x_min":46,"x_max":414,"o":"m 46 0 l 46 925 l 414 925 l 414 0 l 46 0 m 92 46 l 368 46 l 368 879 l 92 879 l 92 46 z "},"▹":{"ha":694,"x_min":46,"x_max":414,"o":"m 46 0 l 46 925 l 414 925 l 414 0 l 46 0 m 92 46 l 368 46 l 368 879 l 92 879 l 92 46 z "},"▻":{"ha":694,"x_min":46,"x_max":414,"o":"m 46 0 l 46 925 l 414 925 l 414 0 l 46 0 m 92 46 l 368 46 l 368 879 l 92 879 l 92 46 z "},"▽":{"ha":694,"x_min":46,"x_max":414,"o":"m 46 0 l 46 925 l 414 925 l 414 0 l 46 0 m 92 46 l 368 46 l 368 879 l 92 879 l 92 46 z "},"▾":{"ha":694,"x_min":46,"x_max":414,"o":"m 46 0 l 46 925 l 414 925 l 414 0 l 46 0 m 92 46 l 368 46 l 368 879 l 92 879 l 92 46 z "},"▿":{"ha":694,"x_min":46,"x_max":414,"o":"m 46 0 l 46 925 l 414 925 l 414 0 l 46 0 m 92 46 l 368 46 l 368 879 l 92 879 l 92 46 z "},"◁":{"ha":694,"x_min":46,"x_max":414,"o":"m 46 0 l 46 925 l 414 925 l 414 0 l 46 0 m 92 46 l 368 46 l 368 879 l 92 879 l 92 46 z "},"◂":{"ha":694,"x_min":46,"x_max":414,"o":"m 46 0 l 46 925 l 414 925 l 414 0 l 46 0 m 92 46 l 368 46 l 368 879 l 92 879 l 92 46 z "},"◃":{"ha":694,"x_min":46,"x_max":414,"o":"m 46 0 l 46 925 l 414 925 l 414 0 l 46 0 m 92 46 l 368 46 l 368 879 l 92 879 l 92 46 z "},"◅":{"ha":694,"x_min":46,"x_max":414,"o":"m 46 0 l 46 925 l 414 925 l 414 0 l 46 0 m 92 46 l 368 46 l 368 879 l 92 879 l 92 46 z "},"◇":{"ha":694,"x_min":46,"x_max":414,"o":"m 46 0 l 46 925 l 414 925 l 414 0 l 46 0 m 92 46 l 368 46 l 368 879 l 92 879 l 92 46 z "},"◈":{"ha":694,"x_min":46,"x_max":414,"o":"m 46 0 l 46 925 l 414 925 l 414 0 l 46 0 m 92 46 l 368 46 l 368 879 l 92 879 l 92 46 z "},"◉":{"ha":694,"x_min":46,"x_max":414,"o":"m 46 0 l 46 925 l 414 925 l 414 0 l 46 0 m 92 46 l 368 46 l 368 879 l 92 879 l 92 46 z "},"◌":{"ha":694,"x_min":46,"x_max":414,"o":"m 46 0 l 46 925 l 414 925 l 414 0 l 46 0 m 92 46 l 368 46 l 368 879 l 92 879 l 92 46 z "},"◍":{"ha":694,"x_min":46,"x_max":414,"o":"m 46 0 l 46 925 l 414 925 l 414 0 l 46 0 m 92 46 l 368 46 l 368 879 l 92 879 l 92 46 z "},"◎":{"ha":694,"x_min":46,"x_max":414,"o":"m 46 0 l 46 925 l 414 925 l 414 0 l 46 0 m 92 46 l 368 46 l 368 879 l 92 879 l 92 46 z "},"☽":{"ha":694,"x_min":46,"x_max":414,"o":"m 46 0 l 46 925 l 414 925 l 414 0 l 46 0 m 92 46 l 368 46 l 368 879 l 92 879 l 92 46 z "},"☾":{"ha":694,"x_min":46,"x_max":414,"o":"m 46 0 l 46 925 l 414 925 l 414 0 l 46 0 m 92 46 l 368 46 l 368 879 l 92 879 l 92 46 z "},"☿":{"ha":694,"x_min":46,"x_max":414,"o":"m 46 0 l 46 925 l 414 925 l 414 0 l 46 0 m 92 46 l 368 46 l 368 879 l 92 879 l 92 46 z "},"♁":{"ha":694,"x_min":46,"x_max":414,"o":"m 46 0 l 46 925 l 414 925 l 414 0 l 46 0 m 92 46 l 368 46 l 368 879 l 92 879 l 92 46 z "},"♡":{"ha":694,"x_min":46,"x_max":414,"o":"m 46 0 l 46 925 l 414 925 l 414 0 l 46 0 m 92 46 l 368 46 l 368 879 l 92 879 l 92 46 z "},"♢":{"ha":694,"x_min":46,"x_max":414,"o":"m 46 0 l 46 925 l 414 925 l 414 0 l 46 0 m 92 46 l 368 46 l 368 879 l 92 879 l 92 46 z "},"♤":{"ha":694,"x_min":46,"x_max":414,"o":"m 46 0 l 46 925 l 414 925 l 414 0 l 46 0 m 92 46 l 368 46 l 368 879 l 92 879 l 92 46 z "},"♧":{"ha":694,"x_min":46,"x_max":414,"o":"m 46 0 l 46 925 l 414 925 l 414 0 l 46 0 m 92 46 l 368 46 l 368 879 l 92 879 l 92 46 z "},"♨":{"ha":694,"x_min":46,"x_max":414,"o":"m 46 0 l 46 925 l 414 925 l 414 0 l 46 0 m 92 46 l 368 46 l 368 879 l 92 879 l 92 46 z "},"♩":{"ha":694,"x_min":46,"x_max":414,"o":"m 46 0 l 46 925 l 414 925 l 414 0 l 46 0 m 92 46 l 368 46 l 368 879 l 92 879 l 92 46 z "},"✕":{"ha":694,"x_min":46,"x_max":414,"o":"m 46 0 l 46 925 l 414 925 l 414 0 l 46 0 m 92 46 l 368 46 l 368 879 l 92 879 l 92 46 z "},"✖":{"ha":694,"x_min":46,"x_max":414,"o":"m 46 0 l 46 925 l 414 925 l 414 0 l 46 0 m 92 46 l 368 46 l 368 879 l 92 879 l 92 46 z "},"":{"ha":694,"x_min":46,"x_max":414,"o":"m 46 0 l 46 925 l 414 925 l 414 0 l 46 0 m 92 46 l 368 46 l 368 879 l 92 879 l 92 46 z "},"":{"ha":694,"x_min":46,"x_max":414,"o":"m 46 0 l 46 925 l 414 925 l 414 0 l 46 0 m 92 46 l 368 46 l 368 879 l 92 879 l 92 46 z "},"":{"ha":694,"x_min":46,"x_max":414,"o":"m 46 0 l 46 925 l 414 925 l 414 0 l 46 0 m 92 46 l 368 46 l 368 879 l 92 879 l 92 46 z "},"":{"ha":694,"x_min":46,"x_max":414,"o":"m 46 0 l 46 925 l 414 925 l 414 0 l 46 0 m 92 46 l 368 46 l 368 879 l 92 879 l 92 46 z "},"":{"ha":694,"x_min":46,"x_max":414,"o":"m 46 0 l 46 925 l 414 925 l 414 0 l 46 0 m 92 46 l 368 46 l 368 879 l 92 879 l 92 46 z "},"":{"ha":694,"x_min":46,"x_max":414,"o":"m 46 0 l 46 925 l 414 925 l 414 0 l 46 0 m 92 46 l 368 46 l 368 879 l 92 879 l 92 46 z "},"":{"ha":694,"x_min":46,"x_max":414,"o":"m 46 0 l 46 925 l 414 925 l 414 0 l 46 0 m 92 46 l 368 46 l 368 879 l 92 879 l 92 46 z "},"":{"ha":694,"x_min":46,"x_max":414,"o":"m 46 0 l 46 925 l 414 925 l 414 0 l 46 0 m 92 46 l 368 46 l 368 879 l 92 879 l 92 46 z "},"":{"ha":694,"x_min":46,"x_max":414,"o":"m 46 0 l 46 925 l 414 925 l 414 0 l 46 0 m 92 46 l 368 46 l 368 879 l 92 879 l 92 46 z "},"":{"ha":694,"x_min":46,"x_max":414,"o":"m 46 0 l 46 925 l 414 925 l 414 0 l 46 0 m 92 46 l 368 46 l 368 879 l 92 879 l 92 46 z "},"":{"ha":694,"x_min":46,"x_max":414,"o":"m 46 0 l 46 925 l 414 925 l 414 0 l 46 0 m 92 46 l 368 46 l 368 879 l 92 879 l 92 46 z "},"":{"ha":694,"x_min":46,"x_max":414,"o":"m 46 0 l 46 925 l 414 925 l 414 0 l 46 0 m 92 46 l 368 46 l 368 879 l 92 879 l 92 46 z "},"\u0000":{"ha":694,"x_min":43,"x_max":608,"o":"m 478 115 l 478 246 l 608 246 l 608 28 l 390 28 l 390 115 l 478 115 m 43 28 l 43 246 l 174 246 l 174 115 l 261 115 l 261 28 l 43 28 m 478 375 l 478 550 l 608 550 l 608 375 l 478 375 m 43 375 l 43 550 l 174 550 l 174 375 l 43 375 m 390 810 l 390 897 l 608 897 l 608 679 l 478 679 l 478 810 l 390 810 m 43 679 l 43 897 l 261 897 l 261 810 l 174 810 l 174 679 l 43 679 z "}," ":{"ha":694,"x_min":0,"x_max":0,"o":""},"!":{"ha":694,"x_min":261,"x_max":390,"o":"m 261 28 l 261 203 l 390 203 l 390 28 l 261 28 m 261 332 l 261 897 l 390 897 l 390 332 l 261 332 z "},"\"":{"ha":694,"x_min":131,"x_max":521,"o":"m 390 722 l 390 983 l 521 983 l 521 722 l 390 722 m 131 722 l 131 983 l 261 983 l 261 722 l 131 722 z "},"#":{"ha":694,"x_min":43,"x_max":608,"o":"m 131 679 l 131 897 l 261 897 l 261 679 l 390 679 l 390 897 l 521 897 l 521 679 l 608 679 l 608 593 l 521 593 l 521 332 l 608 332 l 608 246 l 521 246 l 521 28 l 390 28 l 390 246 l 261 246 l 261 28 l 131 28 l 131 246 l 43 246 l 43 332 l 131 332 l 131 593 l 43 593 l 43 679 l 131 679 m 390 332 l 390 593 l 261 593 l 261 332 l 390 332 z "},"$":{"ha":694,"x_min":43,"x_max":608,"o":"m 261 853 l 261 983 l 390 983 l 390 853 l 521 853 l 521 810 l 564 810 l 564 767 l 608 767 l 608 679 l 478 679 l 478 722 l 433 722 l 433 767 l 390 767 l 390 506 l 521 506 l 521 463 l 564 463 l 564 419 l 608 419 l 608 158 l 564 158 l 564 115 l 521 115 l 521 72 l 390 72 l 390 -58 l 261 -58 l 261 72 l 131 72 l 131 115 l 86 115 l 86 158 l 43 158 l 43 246 l 174 246 l 174 203 l 217 203 l 217 158 l 261 158 l 261 419 l 131 419 l 131 463 l 86 463 l 86 506 l 43 506 l 43 767 l 86 767 l 86 810 l 131 810 l 131 853 l 261 853 m 261 506 l 261 767 l 217 767 l 217 722 l 174 722 l 174 550 l 217 550 l 217 506 l 261 506 m 433 375 l 433 419 l 390 419 l 390 158 l 433 158 l 433 203 l 478 203 l 478 375 l 433 375 z "},"%":{"ha":694,"x_min":86,"x_max":608,"o":"m 131 853 l 131 897 l 347 897 l 347 853 l 390 853 l 390 722 l 433 722 l 433 810 l 478 810 l 478 897 l 608 897 l 608 810 l 564 810 l 564 722 l 521 722 l 521 636 l 478 636 l 478 550 l 433 550 l 433 463 l 390 463 l 390 375 l 347 375 l 347 289 l 564 289 l 564 246 l 608 246 l 608 72 l 564 72 l 564 28 l 347 28 l 347 72 l 304 72 l 304 203 l 261 203 l 261 115 l 217 115 l 217 28 l 86 28 l 86 115 l 131 115 l 131 203 l 174 203 l 174 289 l 217 289 l 217 375 l 261 375 l 261 463 l 304 463 l 304 550 l 347 550 l 347 636 l 131 636 l 131 679 l 86 679 l 86 853 l 131 853 m 261 722 l 261 810 l 217 810 l 217 722 l 261 722 m 390 636 l 390 679 l 347 679 l 347 636 l 390 636 m 347 246 l 347 289 l 304 289 l 304 246 l 347 246 m 478 115 l 478 203 l 433 203 l 433 115 l 478 115 z "},"&":{"ha":694,"x_min":43,"x_max":651,"o":"m 174 853 l 174 897 l 433 897 l 433 853 l 478 853 l 478 810 l 521 810 l 521 593 l 478 593 l 478 550 l 433 550 l 433 506 l 390 506 l 390 463 l 433 463 l 433 419 l 478 419 l 478 375 l 521 375 l 521 463 l 651 463 l 651 375 l 608 375 l 608 332 l 564 332 l 564 158 l 608 158 l 608 115 l 651 115 l 651 28 l 521 28 l 521 115 l 478 115 l 478 72 l 433 72 l 433 28 l 131 28 l 131 72 l 86 72 l 86 115 l 43 115 l 43 375 l 86 375 l 86 419 l 131 419 l 131 463 l 174 463 l 174 550 l 131 550 l 131 593 l 86 593 l 86 810 l 131 810 l 131 853 l 174 853 m 390 593 l 390 810 l 217 810 l 217 593 l 261 593 l 261 550 l 347 550 l 347 593 l 390 593 m 347 375 l 347 419 l 217 419 l 217 375 l 174 375 l 174 158 l 217 158 l 217 115 l 390 115 l 390 158 l 433 158 l 433 332 l 390 332 l 390 375 l 347 375 z "},"'":{"ha":694,"x_min":261,"x_max":390,"o":"m 261 722 l 261 983 l 390 983 l 390 722 l 261 722 z "},"(":{"ha":694,"x_min":174,"x_max":478,"o":"m 347 853 l 347 897 l 478 897 l 478 853 l 433 853 l 433 810 l 390 810 l 390 767 l 347 767 l 347 679 l 304 679 l 304 246 l 347 246 l 347 158 l 390 158 l 390 115 l 433 115 l 433 72 l 478 72 l 478 28 l 347 28 l 347 72 l 304 72 l 304 115 l 261 115 l 261 158 l 217 158 l 217 246 l 174 246 l 174 679 l 217 679 l 217 767 l 261 767 l 261 810 l 304 810 l 304 853 l 347 853 z "},")":{"ha":694,"x_min":174,"x_max":478,"o":"m 174 853 l 174 897 l 304 897 l 304 853 l 347 853 l 347 810 l 390 810 l 390 767 l 433 767 l 433 679 l 478 679 l 478 246 l 433 246 l 433 158 l 390 158 l 390 115 l 347 115 l 347 72 l 304 72 l 304 28 l 174 28 l 174 72 l 217 72 l 217 115 l 261 115 l 261 158 l 304 158 l 304 246 l 347 246 l 347 679 l 304 679 l 304 767 l 261 767 l 261 810 l 217 810 l 217 853 l 174 853 z "},"*":{"ha":694,"x_min":43,"x_max":608,"o":"m 86 679 l 86 722 l 217 722 l 217 679 l 261 679 l 261 636 l 304 636 l 304 593 l 347 593 l 347 636 l 390 636 l 390 679 l 433 679 l 433 722 l 564 722 l 564 679 l 521 679 l 521 636 l 478 636 l 478 593 l 433 593 l 433 550 l 390 550 l 390 506 l 608 506 l 608 419 l 390 419 l 390 375 l 433 375 l 433 332 l 478 332 l 478 289 l 521 289 l 521 246 l 564 246 l 564 203 l 433 203 l 433 246 l 390 246 l 390 289 l 347 289 l 347 332 l 304 332 l 304 289 l 261 289 l 261 246 l 217 246 l 217 203 l 86 203 l 86 246 l 131 246 l 131 289 l 174 289 l 174 332 l 217 332 l 217 375 l 261 375 l 261 419 l 43 419 l 43 506 l 261 506 l 261 550 l 217 550 l 217 593 l 174 593 l 174 636 l 131 636 l 131 679 l 86 679 z "},"+":{"ha":694,"x_min":43,"x_max":608,"o":"m 261 506 l 261 722 l 390 722 l 390 506 l 608 506 l 608 419 l 390 419 l 390 203 l 261 203 l 261 419 l 43 419 l 43 506 l 261 506 z "},",":{"ha":694,"x_min":174,"x_max":390,"o":"m 261 28 l 261 203 l 390 203 l 390 28 l 347 28 l 347 -15 l 304 -15 l 304 -58 l 174 -58 l 174 -15 l 217 -15 l 217 28 l 261 28 z "},"-":{"ha":694,"x_min":43,"x_max":608,"o":"m 43 419 l 43 506 l 608 506 l 608 419 l 43 419 z "},".":{"ha":694,"x_min":261,"x_max":390,"o":"m 261 28 l 261 203 l 390 203 l 390 28 l 261 28 z "},"/":{"ha":694,"x_min":86,"x_max":608,"o":"m 478 810 l 478 897 l 608 897 l 608 810 l 564 810 l 564 722 l 521 722 l 521 636 l 478 636 l 478 550 l 433 550 l 433 463 l 390 463 l 390 375 l 347 375 l 347 289 l 304 289 l 304 203 l 261 203 l 261 115 l 217 115 l 217 28 l 86 28 l 86 115 l 131 115 l 131 203 l 174 203 l 174 289 l 217 289 l 217 375 l 261 375 l 261 463 l 304 463 l 304 550 l 347 550 l 347 636 l 390 636 l 390 722 l 433 722 l 433 810 l 478 810 z "},":":{"ha":694,"x_min":261,"x_max":390,"o":"m 261 28 l 261 203 l 390 203 l 390 28 l 261 28 m 261 463 l 261 636 l 390 636 l 390 463 l 261 463 z "},";":{"ha":694,"x_min":174,"x_max":390,"o":"m 261 28 l 261 203 l 390 203 l 390 28 l 347 28 l 347 -15 l 304 -15 l 304 -58 l 174 -58 l 174 -15 l 217 -15 l 217 28 l 261 28 m 261 463 l 261 636 l 390 636 l 390 463 l 261 463 z "},"<":{"ha":694,"x_min":86,"x_max":608,"o":"m 478 853 l 478 897 l 608 897 l 608 853 l 564 853 l 564 810 l 521 810 l 521 767 l 478 767 l 478 722 l 433 722 l 433 679 l 390 679 l 390 636 l 347 636 l 347 593 l 304 593 l 304 550 l 261 550 l 261 506 l 217 506 l 217 419 l 261 419 l 261 375 l 304 375 l 304 332 l 347 332 l 347 289 l 390 289 l 390 246 l 433 246 l 433 203 l 478 203 l 478 158 l 521 158 l 521 115 l 564 115 l 564 72 l 608 72 l 608 28 l 478 28 l 478 72 l 433 72 l 433 115 l 390 115 l 390 158 l 347 158 l 347 203 l 304 203 l 304 246 l 261 246 l 261 289 l 217 289 l 217 332 l 174 332 l 174 375 l 131 375 l 131 419 l 86 419 l 86 506 l 131 506 l 131 550 l 174 550 l 174 593 l 217 593 l 217 636 l 261 636 l 261 679 l 304 679 l 304 722 l 347 722 l 347 767 l 390 767 l 390 810 l 433 810 l 433 853 l 478 853 z "},"=":{"ha":694,"x_min":43,"x_max":608,"o":"m 43 289 l 43 375 l 608 375 l 608 289 l 43 289 m 43 550 l 43 636 l 608 636 l 608 550 l 43 550 z "},">":{"ha":694,"x_min":86,"x_max":608,"o":"m 86 853 l 86 897 l 217 897 l 217 853 l 261 853 l 261 810 l 304 810 l 304 767 l 347 767 l 347 722 l 390 722 l 390 679 l 433 679 l 433 636 l 478 636 l 478 593 l 521 593 l 521 550 l 564 550 l 564 506 l 608 506 l 608 419 l 564 419 l 564 375 l 521 375 l 521 332 l 478 332 l 478 289 l 433 289 l 433 246 l 390 246 l 390 203 l 347 203 l 347 158 l 304 158 l 304 115 l 261 115 l 261 72 l 217 72 l 217 28 l 86 28 l 86 72 l 131 72 l 131 115 l 174 115 l 174 158 l 217 158 l 217 203 l 261 203 l 261 246 l 304 246 l 304 289 l 347 289 l 347 332 l 390 332 l 390 375 l 433 375 l 433 419 l 478 419 l 478 506 l 433 506 l 433 550 l 390 550 l 390 593 l 347 593 l 347 636 l 304 636 l 304 679 l 261 679 l 261 722 l 217 722 l 217 767 l 174 767 l 174 810 l 131 810 l 131 853 l 86 853 z "},"?":{"ha":694,"x_min":43,"x_max":608,"o":"m 261 28 l 261 203 l 390 203 l 390 28 l 261 28 m 131 853 l 131 897 l 521 897 l 521 853 l 564 853 l 564 810 l 608 810 l 608 593 l 564 593 l 564 550 l 521 550 l 521 506 l 478 506 l 478 463 l 433 463 l 433 419 l 390 419 l 390 289 l 261 289 l 261 419 l 304 419 l 304 463 l 347 463 l 347 506 l 390 506 l 390 550 l 433 550 l 433 593 l 478 593 l 478 767 l 433 767 l 433 810 l 217 810 l 217 767 l 174 767 l 174 593 l 43 593 l 43 810 l 86 810 l 86 853 l 131 853 z "},"@":{"ha":694,"x_min":43,"x_max":651,"o":"m 131 853 l 131 897 l 564 897 l 564 853 l 608 853 l 608 810 l 651 810 l 651 203 l 564 203 l 564 246 l 521 246 l 521 203 l 304 203 l 304 246 l 261 246 l 261 289 l 217 289 l 217 636 l 261 636 l 261 679 l 304 679 l 304 722 l 564 722 l 564 767 l 521 767 l 521 810 l 217 810 l 217 767 l 174 767 l 174 158 l 217 158 l 217 115 l 651 115 l 651 28 l 131 28 l 131 72 l 86 72 l 86 115 l 43 115 l 43 810 l 86 810 l 86 853 l 131 853 m 521 332 l 521 636 l 390 636 l 390 593 l 347 593 l 347 332 l 390 332 l 390 289 l 478 289 l 478 332 l 521 332 z "},"A":{"ha":694,"x_min":43,"x_max":608,"o":"m 131 853 l 131 897 l 521 897 l 521 853 l 564 853 l 564 810 l 608 810 l 608 28 l 478 28 l 478 375 l 174 375 l 174 28 l 43 28 l 43 810 l 86 810 l 86 853 l 131 853 m 433 767 l 433 810 l 217 810 l 217 767 l 174 767 l 174 463 l 478 463 l 478 767 l 433 767 z "},"B":{"ha":694,"x_min":43,"x_max":608,"o":"m 43 28 l 43 897 l 521 897 l 521 853 l 564 853 l 564 810 l 608 810 l 608 593 l 564 593 l 564 550 l 521 550 l 521 463 l 564 463 l 564 419 l 608 419 l 608 115 l 564 115 l 564 72 l 521 72 l 521 28 l 43 28 m 433 767 l 433 810 l 174 810 l 174 550 l 433 550 l 433 593 l 478 593 l 478 767 l 433 767 m 433 419 l 433 463 l 174 463 l 174 115 l 433 115 l 433 158 l 478 158 l 478 419 l 433 419 z "},"C":{"ha":694,"x_min":43,"x_max":608,"o":"m 131 853 l 131 897 l 521 897 l 521 853 l 564 853 l 564 810 l 608 810 l 608 679 l 478 679 l 478 767 l 433 767 l 433 810 l 217 810 l 217 767 l 174 767 l 174 158 l 217 158 l 217 115 l 433 115 l 433 158 l 478 158 l 478 246 l 608 246 l 608 115 l 564 115 l 564 72 l 521 72 l 521 28 l 131 28 l 131 72 l 86 72 l 86 115 l 43 115 l 43 810 l 86 810 l 86 853 l 131 853 z "},"D":{"ha":694,"x_min":43,"x_max":608,"o":"m 43 28 l 43 897 l 433 897 l 433 853 l 521 853 l 521 810 l 564 810 l 564 722 l 608 722 l 608 203 l 564 203 l 564 115 l 521 115 l 521 72 l 433 72 l 433 28 l 43 28 m 390 767 l 390 810 l 174 810 l 174 115 l 390 115 l 390 158 l 433 158 l 433 203 l 478 203 l 478 722 l 433 722 l 433 767 l 390 767 z "},"E":{"ha":694,"x_min":43,"x_max":608,"o":"m 43 28 l 43 897 l 608 897 l 608 810 l 174 810 l 174 506 l 478 506 l 478 419 l 174 419 l 174 115 l 608 115 l 608 28 l 43 28 z "},"F":{"ha":694,"x_min":43,"x_max":608,"o":"m 43 28 l 43 897 l 608 897 l 608 810 l 174 810 l 174 506 l 478 506 l 478 419 l 174 419 l 174 28 l 43 28 z "},"G":{"ha":694,"x_min":43,"x_max":608,"o":"m 131 853 l 131 897 l 521 897 l 521 853 l 564 853 l 564 810 l 608 810 l 608 679 l 478 679 l 478 767 l 433 767 l 433 810 l 217 810 l 217 767 l 174 767 l 174 158 l 217 158 l 217 115 l 433 115 l 433 158 l 478 158 l 478 419 l 304 419 l 304 506 l 608 506 l 608 115 l 564 115 l 564 72 l 521 72 l 521 28 l 131 28 l 131 72 l 86 72 l 86 115 l 43 115 l 43 810 l 86 810 l 86 853 l 131 853 z "},"H":{"ha":694,"x_min":43,"x_max":608,"o":"m 43 28 l 43 897 l 174 897 l 174 506 l 478 506 l 478 897 l 608 897 l 608 28 l 478 28 l 478 419 l 174 419 l 174 28 l 43 28 z "},"I":{"ha":694,"x_min":174,"x_max":478,"o":"m 174 810 l 174 897 l 478 897 l 478 810 l 390 810 l 390 115 l 478 115 l 478 28 l 174 28 l 174 115 l 261 115 l 261 810 l 174 810 z "},"J":{"ha":694,"x_min":43,"x_max":651,"o":"m 347 810 l 347 897 l 651 897 l 651 810 l 564 810 l 564 115 l 521 115 l 521 72 l 478 72 l 478 28 l 131 28 l 131 72 l 86 72 l 86 115 l 43 115 l 43 289 l 174 289 l 174 158 l 217 158 l 217 115 l 390 115 l 390 158 l 433 158 l 433 810 l 347 810 z "},"K":{"ha":694,"x_min":43,"x_max":608,"o":"m 43 28 l 43 897 l 174 897 l 174 550 l 217 550 l 217 593 l 261 593 l 261 636 l 304 636 l 304 679 l 347 679 l 347 722 l 390 722 l 390 767 l 433 767 l 433 810 l 478 810 l 478 853 l 521 853 l 521 897 l 608 897 l 608 810 l 564 810 l 564 767 l 521 767 l 521 722 l 478 722 l 478 679 l 433 679 l 433 636 l 390 636 l 390 593 l 347 593 l 347 550 l 304 550 l 304 506 l 261 506 l 261 419 l 304 419 l 304 375 l 347 375 l 347 332 l 390 332 l 390 289 l 433 289 l 433 246 l 478 246 l 478 203 l 521 203 l 521 158 l 564 158 l 564 115 l 608 115 l 608 28 l 521 28 l 521 72 l 478 72 l 478 115 l 433 115 l 433 158 l 390 158 l 390 203 l 347 203 l 347 246 l 304 246 l 304 289 l 261 289 l 261 332 l 217 332 l 217 375 l 174 375 l 174 28 l 43 28 z "},"L":{"ha":694,"x_min":43,"x_max":608,"o":"m 43 28 l 43 897 l 174 897 l 174 115 l 608 115 l 608 28 l 43 28 z "},"M":{"ha":694,"x_min":43,"x_max":651,"o":"m 43 28 l 43 897 l 174 897 l 174 810 l 217 810 l 217 767 l 261 767 l 261 722 l 304 722 l 304 636 l 390 636 l 390 722 l 433 722 l 433 767 l 478 767 l 478 810 l 521 810 l 521 897 l 651 897 l 651 28 l 521 28 l 521 636 l 478 636 l 478 593 l 433 593 l 433 506 l 390 506 l 390 463 l 304 463 l 304 506 l 261 506 l 261 593 l 217 593 l 217 636 l 174 636 l 174 28 l 43 28 z "},"N":{"ha":694,"x_min":43,"x_max":608,"o":"m 43 28 l 43 897 l 174 897 l 174 679 l 217 679 l 217 636 l 261 636 l 261 593 l 304 593 l 304 550 l 347 550 l 347 506 l 390 506 l 390 463 l 433 463 l 433 419 l 478 419 l 478 897 l 608 897 l 608 28 l 478 28 l 478 289 l 433 289 l 433 332 l 390 332 l 390 375 l 347 375 l 347 419 l 304 419 l 304 463 l 261 463 l 261 506 l 217 506 l 217 550 l 174 550 l 174 28 l 43 28 z "},"O":{"ha":694,"x_min":43,"x_max":608,"o":"m 131 853 l 131 897 l 521 897 l 521 853 l 564 853 l 564 810 l 608 810 l 608 115 l 564 115 l 564 72 l 521 72 l 521 28 l 131 28 l 131 72 l 86 72 l 86 115 l 43 115 l 43 810 l 86 810 l 86 853 l 131 853 m 433 767 l 433 810 l 217 810 l 217 767 l 174 767 l 174 158 l 217 158 l 217 115 l 433 115 l 433 158 l 478 158 l 478 767 l 433 767 z "},"P":{"ha":694,"x_min":43,"x_max":608,"o":"m 43 28 l 43 897 l 521 897 l 521 853 l 564 853 l 564 810 l 608 810 l 608 463 l 564 463 l 564 419 l 521 419 l 521 375 l 174 375 l 174 28 l 43 28 m 433 767 l 433 810 l 174 810 l 174 463 l 433 463 l 433 506 l 478 506 l 478 767 l 433 767 z "},"Q":{"ha":694,"x_min":43,"x_max":608,"o":"m 131 853 l 131 897 l 521 897 l 521 853 l 564 853 l 564 810 l 608 810 l 608 115 l 564 115 l 564 72 l 521 72 l 521 28 l 564 28 l 564 -15 l 608 -15 l 608 -58 l 478 -58 l 478 -15 l 433 -15 l 433 28 l 131 28 l 131 72 l 86 72 l 86 115 l 43 115 l 43 810 l 86 810 l 86 853 l 131 853 m 433 767 l 433 810 l 217 810 l 217 767 l 174 767 l 174 158 l 217 158 l 217 115 l 304 115 l 304 158 l 261 158 l 261 203 l 390 203 l 390 158 l 478 158 l 478 767 l 433 767 z "},"R":{"ha":694,"x_min":43,"x_max":608,"o":"m 43 28 l 43 897 l 521 897 l 521 853 l 564 853 l 564 810 l 608 810 l 608 463 l 564 463 l 564 419 l 521 419 l 521 375 l 304 375 l 304 332 l 347 332 l 347 289 l 390 289 l 390 246 l 433 246 l 433 203 l 478 203 l 478 158 l 521 158 l 521 115 l 564 115 l 564 72 l 608 72 l 608 28 l 478 28 l 478 72 l 433 72 l 433 115 l 390 115 l 390 158 l 347 158 l 347 203 l 304 203 l 304 246 l 261 246 l 261 289 l 217 289 l 217 332 l 174 332 l 174 28 l 43 28 m 433 767 l 433 810 l 174 810 l 174 463 l 433 463 l 433 506 l 478 506 l 478 767 l 433 767 z "},"S":{"ha":694,"x_min":43,"x_max":608,"o":"m 131 853 l 131 897 l 521 897 l 521 853 l 564 853 l 564 810 l 608 810 l 608 679 l 478 679 l 478 767 l 433 767 l 433 810 l 217 810 l 217 767 l 174 767 l 174 550 l 217 550 l 217 506 l 521 506 l 521 463 l 564 463 l 564 419 l 608 419 l 608 115 l 564 115 l 564 72 l 521 72 l 521 28 l 131 28 l 131 72 l 86 72 l 86 115 l 43 115 l 43 246 l 174 246 l 174 158 l 217 158 l 217 115 l 433 115 l 433 158 l 478 158 l 478 375 l 433 375 l 433 419 l 131 419 l 131 463 l 86 463 l 86 506 l 43 506 l 43 810 l 86 810 l 86 853 l 131 853 z "},"T":{"ha":694,"x_min":43,"x_max":608,"o":"m 43 810 l 43 897 l 608 897 l 608 810 l 390 810 l 390 28 l 261 28 l 261 810 l 43 810 z "},"U":{"ha":694,"x_min":43,"x_max":608,"o":"m 43 115 l 43 897 l 174 897 l 174 158 l 217 158 l 217 115 l 433 115 l 433 158 l 478 158 l 478 897 l 608 897 l 608 115 l 564 115 l 564 72 l 521 72 l 521 28 l 131 28 l 131 72 l 86 72 l 86 115 l 43 115 z "},"V":{"ha":694,"x_min":43,"x_max":608,"o":"m 43 679 l 43 897 l 174 897 l 174 679 l 217 679 l 217 463 l 261 463 l 261 289 l 304 289 l 304 158 l 347 158 l 347 289 l 390 289 l 390 463 l 433 463 l 433 679 l 478 679 l 478 897 l 608 897 l 608 679 l 564 679 l 564 463 l 521 463 l 521 289 l 478 289 l 478 158 l 433 158 l 433 28 l 217 28 l 217 158 l 174 158 l 174 289 l 131 289 l 131 463 l 86 463 l 86 679 l 43 679 z "},"W":{"ha":694,"x_min":43,"x_max":651,"o":"m 43 28 l 43 897 l 174 897 l 174 289 l 217 289 l 217 332 l 261 332 l 261 419 l 304 419 l 304 463 l 390 463 l 390 419 l 433 419 l 433 332 l 478 332 l 478 289 l 521 289 l 521 897 l 651 897 l 651 28 l 521 28 l 521 115 l 478 115 l 478 158 l 433 158 l 433 203 l 390 203 l 390 289 l 304 289 l 304 203 l 261 203 l 261 158 l 217 158 l 217 115 l 174 115 l 174 28 l 43 28 z "},"X":{"ha":694,"x_min":43,"x_max":608,"o":"m 43 810 l 43 897 l 174 897 l 174 810 l 217 810 l 217 722 l 261 722 l 261 636 l 304 636 l 304 550 l 347 550 l 347 636 l 390 636 l 390 722 l 433 722 l 433 810 l 478 810 l 478 897 l 608 897 l 608 810 l 564 810 l 564 722 l 521 722 l 521 636 l 478 636 l 478 550 l 433 550 l 433 375 l 478 375 l 478 289 l 521 289 l 521 203 l 564 203 l 564 115 l 608 115 l 608 28 l 478 28 l 478 115 l 433 115 l 433 203 l 390 203 l 390 289 l 347 289 l 347 375 l 304 375 l 304 289 l 261 289 l 261 203 l 217 203 l 217 115 l 174 115 l 174 28 l 43 28 l 43 115 l 86 115 l 86 203 l 131 203 l 131 289 l 174 289 l 174 375 l 217 375 l 217 550 l 174 550 l 174 636 l 131 636 l 131 722 l 86 722 l 86 810 l 43 810 z "},"Y":{"ha":694,"x_min":43,"x_max":608,"o":"m 43 767 l 43 897 l 174 897 l 174 767 l 217 767 l 217 679 l 261 679 l 261 593 l 304 593 l 304 506 l 347 506 l 347 593 l 390 593 l 390 679 l 433 679 l 433 767 l 478 767 l 478 897 l 608 897 l 608 767 l 564 767 l 564 679 l 521 679 l 521 593 l 478 593 l 478 506 l 433 506 l 433 419 l 390 419 l 390 28 l 261 28 l 261 419 l 217 419 l 217 506 l 174 506 l 174 593 l 131 593 l 131 679 l 86 679 l 86 767 l 43 767 z "},"Z":{"ha":694,"x_min":43,"x_max":608,"o":"m 43 810 l 43 897 l 608 897 l 608 679 l 564 679 l 564 636 l 521 636 l 521 593 l 478 593 l 478 550 l 433 550 l 433 506 l 390 506 l 390 463 l 347 463 l 347 419 l 304 419 l 304 375 l 261 375 l 261 332 l 217 332 l 217 289 l 174 289 l 174 115 l 608 115 l 608 28 l 43 28 l 43 289 l 86 289 l 86 332 l 131 332 l 131 375 l 174 375 l 174 419 l 217 419 l 217 463 l 261 463 l 261 506 l 304 506 l 304 550 l 347 550 l 347 593 l 390 593 l 390 636 l 433 636 l 433 679 l 478 679 l 478 810 l 43 810 z "},"[":{"ha":694,"x_min":174,"x_max":521,"o":"m 174 28 l 174 897 l 521 897 l 521 810 l 304 810 l 304 115 l 521 115 l 521 28 l 174 28 z "},"\\":{"ha":694,"x_min":86,"x_max":608,"o":"m 86 810 l 86 897 l 217 897 l 217 810 l 261 810 l 261 722 l 304 722 l 304 636 l 347 636 l 347 550 l 390 550 l 390 463 l 433 463 l 433 375 l 478 375 l 478 289 l 521 289 l 521 203 l 564 203 l 564 115 l 608 115 l 608 28 l 478 28 l 478 115 l 433 115 l 433 203 l 390 203 l 390 289 l 347 289 l 347 375 l 304 375 l 304 463 l 261 463 l 261 550 l 217 550 l 217 636 l 174 636 l 174 722 l 131 722 l 131 810 l 86 810 z "},"]":{"ha":694,"x_min":174,"x_max":521,"o":"m 174 810 l 174 897 l 521 897 l 521 28 l 174 28 l 174 115 l 390 115 l 390 810 l 174 810 z "},"^":{"ha":694,"x_min":43,"x_max":608,"o":"m 261 940 l 261 983 l 390 983 l 390 940 l 433 940 l 433 897 l 478 897 l 478 853 l 521 853 l 521 810 l 564 810 l 564 767 l 608 767 l 608 722 l 478 722 l 478 767 l 433 767 l 433 810 l 390 810 l 390 853 l 347 853 l 347 897 l 304 897 l 304 853 l 261 853 l 261 810 l 217 810 l 217 767 l 174 767 l 174 722 l 43 722 l 43 767 l 86 767 l 86 810 l 131 810 l 131 853 l 174 853 l 174 897 l 217 897 l 217 940 l 261 940 z "},"_":{"ha":694,"x_min":43,"x_max":608,"o":"m 43 -101 l 43 -15 l 608 -15 l 608 -101 l 43 -101 z "},"`":{"ha":694,"x_min":131,"x_max":390,"o":"m 131 1026 l 131 1069 l 261 1069 l 261 1026 l 304 1026 l 304 983 l 347 983 l 347 940 l 390 940 l 390 897 l 261 897 l 261 940 l 217 940 l 217 983 l 174 983 l 174 1026 l 131 1026 z "},"a":{"ha":694,"x_min":43,"x_max":608,"o":"m 86 550 l 86 636 l 521 636 l 521 593 l 564 593 l 564 550 l 608 550 l 608 28 l 131 28 l 131 72 l 86 72 l 86 115 l 43 115 l 43 332 l 86 332 l 86 375 l 131 375 l 131 419 l 478 419 l 478 506 l 433 506 l 433 550 l 86 550 m 478 115 l 478 332 l 217 332 l 217 289 l 174 289 l 174 158 l 217 158 l 217 115 l 478 115 z "},"b":{"ha":694,"x_min":43,"x_max":608,"o":"m 43 28 l 43 897 l 174 897 l 174 636 l 521 636 l 521 593 l 564 593 l 564 550 l 608 550 l 608 115 l 564 115 l 564 72 l 521 72 l 521 28 l 43 28 m 433 506 l 433 550 l 174 550 l 174 115 l 433 115 l 433 158 l 478 158 l 478 506 l 433 506 z "},"c":{"ha":694,"x_min":43,"x_max":608,"o":"m 131 593 l 131 636 l 521 636 l 521 593 l 564 593 l 564 550 l 608 550 l 608 463 l 478 463 l 478 506 l 433 506 l 433 550 l 217 550 l 217 506 l 174 506 l 174 158 l 217 158 l 217 115 l 433 115 l 433 158 l 478 158 l 478 203 l 608 203 l 608 115 l 564 115 l 564 72 l 521 72 l 521 28 l 131 28 l 131 72 l 86 72 l 86 115 l 43 115 l 43 550 l 86 550 l 86 593 l 131 593 z "},"d":{"ha":694,"x_min":43,"x_max":608,"o":"m 478 636 l 478 897 l 608 897 l 608 28 l 131 28 l 131 72 l 86 72 l 86 115 l 43 115 l 43 550 l 86 550 l 86 593 l 131 593 l 131 636 l 478 636 m 478 115 l 478 550 l 217 550 l 217 506 l 174 506 l 174 158 l 217 158 l 217 115 l 478 115 z "},"e":{"ha":694,"x_min":43,"x_max":608,"o":"m 131 593 l 131 636 l 521 636 l 521 593 l 564 593 l 564 550 l 608 550 l 608 289 l 174 289 l 174 158 l 217 158 l 217 115 l 478 115 l 478 158 l 608 158 l 608 72 l 564 72 l 564 28 l 131 28 l 131 72 l 86 72 l 86 115 l 43 115 l 43 550 l 86 550 l 86 593 l 131 593 m 433 506 l 433 550 l 217 550 l 217 506 l 174 506 l 174 375 l 478 375 l 478 506 l 433 506 z "},"f":{"ha":694,"x_min":86,"x_max":651,"o":"m 347 853 l 347 897 l 651 897 l 651 810 l 433 810 l 433 767 l 390 767 l 390 636 l 564 636 l 564 550 l 390 550 l 390 28 l 261 28 l 261 550 l 86 550 l 86 636 l 261 636 l 261 810 l 304 810 l 304 853 l 347 853 z "},"g":{"ha":694,"x_min":43,"x_max":608,"o":"m 131 593 l 131 636 l 608 636 l 608 -101 l 564 -101 l 564 -144 l 521 -144 l 521 -189 l 86 -189 l 86 -101 l 433 -101 l 433 -58 l 478 -58 l 478 28 l 131 28 l 131 72 l 86 72 l 86 115 l 43 115 l 43 550 l 86 550 l 86 593 l 131 593 m 478 115 l 478 550 l 217 550 l 217 506 l 174 506 l 174 158 l 217 158 l 217 115 l 478 115 z "},"h":{"ha":694,"x_min":43,"x_max":608,"o":"m 43 28 l 43 897 l 174 897 l 174 636 l 521 636 l 521 593 l 564 593 l 564 550 l 608 550 l 608 28 l 478 28 l 478 506 l 433 506 l 433 550 l 174 550 l 174 28 l 43 28 z "},"i":{"ha":694,"x_min":174,"x_max":478,"o":"m 174 550 l 174 636 l 390 636 l 390 115 l 478 115 l 478 28 l 174 28 l 174 115 l 261 115 l 261 550 l 174 550 m 261 722 l 261 897 l 390 897 l 390 722 l 261 722 z "},"j":{"ha":694,"x_min":86,"x_max":564,"o":"m 347 550 l 347 636 l 564 636 l 564 -101 l 521 -101 l 521 -144 l 478 -144 l 478 -189 l 174 -189 l 174 -144 l 131 -144 l 131 -101 l 86 -101 l 86 28 l 217 28 l 217 -58 l 261 -58 l 261 -101 l 390 -101 l 390 -58 l 433 -58 l 433 550 l 347 550 m 433 722 l 433 897 l 564 897 l 564 722 l 433 722 z "},"k":{"ha":694,"x_min":86,"x_max":608,"o":"m 86 28 l 86 897 l 217 897 l 217 375 l 261 375 l 261 419 l 304 419 l 304 463 l 347 463 l 347 506 l 390 506 l 390 550 l 433 550 l 433 593 l 478 593 l 478 636 l 608 636 l 608 593 l 564 593 l 564 550 l 521 550 l 521 506 l 478 506 l 478 463 l 433 463 l 433 419 l 390 419 l 390 375 l 347 375 l 347 289 l 390 289 l 390 246 l 433 246 l 433 203 l 478 203 l 478 158 l 521 158 l 521 115 l 564 115 l 564 72 l 608 72 l 608 28 l 478 28 l 478 72 l 433 72 l 433 115 l 390 115 l 390 158 l 347 158 l 347 203 l 304 203 l 304 246 l 261 246 l 261 289 l 217 289 l 217 28 l 86 28 z "},"l":{"ha":694,"x_min":174,"x_max":478,"o":"m 174 810 l 174 897 l 390 897 l 390 115 l 478 115 l 478 28 l 174 28 l 174 115 l 261 115 l 261 810 l 174 810 z "},"m":{"ha":694,"x_min":43,"x_max":608,"o":"m 43 28 l 43 636 l 521 636 l 521 593 l 564 593 l 564 550 l 608 550 l 608 28 l 478 28 l 478 506 l 433 506 l 433 550 l 390 550 l 390 28 l 261 28 l 261 550 l 174 550 l 174 28 l 43 28 z "},"n":{"ha":694,"x_min":43,"x_max":608,"o":"m 43 28 l 43 636 l 521 636 l 521 593 l 564 593 l 564 550 l 608 550 l 608 28 l 478 28 l 478 506 l 433 506 l 433 550 l 174 550 l 174 28 l 43 28 z "},"o":{"ha":694,"x_min":43,"x_max":608,"o":"m 131 593 l 131 636 l 521 636 l 521 593 l 564 593 l 564 550 l 608 550 l 608 115 l 564 115 l 564 72 l 521 72 l 521 28 l 131 28 l 131 72 l 86 72 l 86 115 l 43 115 l 43 550 l 86 550 l 86 593 l 131 593 m 433 506 l 433 550 l 217 550 l 217 506 l 174 506 l 174 158 l 217 158 l 217 115 l 433 115 l 433 158 l 478 158 l 478 506 l 433 506 z "},"p":{"ha":694,"x_min":43,"x_max":608,"o":"m 43 -189 l 43 636 l 521 636 l 521 593 l 564 593 l 564 550 l 608 550 l 608 115 l 564 115 l 564 72 l 521 72 l 521 28 l 174 28 l 174 -189 l 43 -189 m 433 506 l 433 550 l 174 550 l 174 115 l 433 115 l 433 158 l 478 158 l 478 506 l 433 506 z "},"q":{"ha":694,"x_min":43,"x_max":608,"o":"m 131 593 l 131 636 l 608 636 l 608 -189 l 478 -189 l 478 28 l 131 28 l 131 72 l 86 72 l 86 115 l 43 115 l 43 550 l 86 550 l 86 593 l 131 593 m 478 115 l 478 550 l 217 550 l 217 506 l 174 506 l 174 158 l 217 158 l 217 115 l 478 115 z "},"r":{"ha":694,"x_min":43,"x_max":608,"o":"m 43 28 l 43 636 l 174 636 l 174 550 l 217 550 l 217 593 l 261 593 l 261 636 l 608 636 l 608 550 l 304 550 l 304 506 l 261 506 l 261 463 l 217 463 l 217 419 l 174 419 l 174 28 l 43 28 z "},"s":{"ha":694,"x_min":43,"x_max":608,"o":"m 131 593 l 131 636 l 521 636 l 521 593 l 564 593 l 564 550 l 608 550 l 608 506 l 433 506 l 433 550 l 217 550 l 217 506 l 174 506 l 174 419 l 217 419 l 217 375 l 521 375 l 521 332 l 564 332 l 564 289 l 608 289 l 608 115 l 564 115 l 564 72 l 521 72 l 521 28 l 131 28 l 131 72 l 86 72 l 86 115 l 43 115 l 43 158 l 217 158 l 217 115 l 433 115 l 433 158 l 478 158 l 478 246 l 433 246 l 433 289 l 131 289 l 131 332 l 86 332 l 86 375 l 43 375 l 43 550 l 86 550 l 86 593 l 131 593 z "},"t":{"ha":694,"x_min":43,"x_max":608,"o":"m 217 636 l 217 897 l 347 897 l 347 636 l 521 636 l 521 550 l 347 550 l 347 158 l 390 158 l 390 115 l 608 115 l 608 28 l 304 28 l 304 72 l 261 72 l 261 115 l 217 115 l 217 550 l 43 550 l 43 636 l 217 636 z "},"u":{"ha":694,"x_min":43,"x_max":608,"o":"m 43 115 l 43 636 l 174 636 l 174 158 l 217 158 l 217 115 l 478 115 l 478 636 l 608 636 l 608 28 l 131 28 l 131 72 l 86 72 l 86 115 l 43 115 z "},"v":{"ha":694,"x_min":43,"x_max":608,"o":"m 43 506 l 43 636 l 174 636 l 174 506 l 217 506 l 217 375 l 261 375 l 261 246 l 304 246 l 304 158 l 347 158 l 347 246 l 390 246 l 390 375 l 433 375 l 433 506 l 478 506 l 478 636 l 608 636 l 608 506 l 564 506 l 564 375 l 521 375 l 521 246 l 478 246 l 478 158 l 433 158 l 433 28 l 217 28 l 217 158 l 174 158 l 174 246 l 131 246 l 131 375 l 86 375 l 86 506 l 43 506 z "},"w":{"ha":694,"x_min":43,"x_max":608,"o":"m 43 115 l 43 636 l 174 636 l 174 158 l 217 158 l 217 115 l 261 115 l 261 463 l 390 463 l 390 115 l 433 115 l 433 158 l 478 158 l 478 636 l 608 636 l 608 115 l 564 115 l 564 72 l 521 72 l 521 28 l 131 28 l 131 72 l 86 72 l 86 115 l 43 115 z "},"x":{"ha":694,"x_min":43,"x_max":608,"o":"m 43 506 l 43 636 l 174 636 l 174 506 l 217 506 l 217 463 l 261 463 l 261 419 l 304 419 l 304 375 l 347 375 l 347 419 l 390 419 l 390 463 l 433 463 l 433 506 l 478 506 l 478 636 l 608 636 l 608 506 l 564 506 l 564 463 l 521 463 l 521 419 l 478 419 l 478 375 l 433 375 l 433 289 l 478 289 l 478 246 l 521 246 l 521 203 l 564 203 l 564 158 l 608 158 l 608 28 l 478 28 l 478 158 l 433 158 l 433 203 l 390 203 l 390 246 l 347 246 l 347 289 l 304 289 l 304 246 l 261 246 l 261 203 l 217 203 l 217 158 l 174 158 l 174 28 l 43 28 l 43 158 l 86 158 l 86 203 l 131 203 l 131 246 l 174 246 l 174 289 l 217 289 l 217 375 l 174 375 l 174 419 l 131 419 l 131 463 l 86 463 l 86 506 l 43 506 z "},"y":{"ha":694,"x_min":43,"x_max":608,"o":"m 43 115 l 43 636 l 174 636 l 174 158 l 217 158 l 217 115 l 478 115 l 478 636 l 608 636 l 608 -101 l 564 -101 l 564 -144 l 521 -144 l 521 -189 l 86 -189 l 86 -101 l 433 -101 l 433 -58 l 478 -58 l 478 28 l 131 28 l 131 72 l 86 72 l 86 115 l 43 115 z "},"z":{"ha":694,"x_min":43,"x_max":608,"o":"m 43 550 l 43 636 l 608 636 l 608 550 l 564 550 l 564 506 l 521 506 l 521 463 l 478 463 l 478 419 l 433 419 l 433 375 l 390 375 l 390 332 l 347 332 l 347 289 l 304 289 l 304 246 l 261 246 l 261 203 l 217 203 l 217 158 l 174 158 l 174 115 l 608 115 l 608 28 l 43 28 l 43 158 l 86 158 l 86 203 l 131 203 l 131 246 l 174 246 l 174 289 l 217 289 l 217 332 l 261 332 l 261 375 l 304 375 l 304 419 l 347 419 l 347 463 l 390 463 l 390 506 l 433 506 l 433 550 l 43 550 z "},"{":{"ha":694,"x_min":86,"x_max":521,"o":"m 304 853 l 304 897 l 521 897 l 521 810 l 390 810 l 390 767 l 347 767 l 347 506 l 304 506 l 304 419 l 347 419 l 347 158 l 390 158 l 390 115 l 521 115 l 521 28 l 304 28 l 304 72 l 261 72 l 261 115 l 217 115 l 217 419 l 86 419 l 86 506 l 217 506 l 217 810 l 261 810 l 261 853 l 304 853 z "},"|":{"ha":694,"x_min":261,"x_max":390,"o":"m 261 28 l 261 897 l 390 897 l 390 28 l 261 28 z "},"}":{"ha":694,"x_min":86,"x_max":521,"o":"m 86 810 l 86 897 l 304 897 l 304 853 l 347 853 l 347 810 l 390 810 l 390 506 l 521 506 l 521 419 l 390 419 l 390 115 l 347 115 l 347 72 l 304 72 l 304 28 l 86 28 l 86 115 l 217 115 l 217 158 l 261 158 l 261 419 l 304 419 l 304 506 l 261 506 l 261 767 l 217 767 l 217 810 l 86 810 z "},"~":{"ha":694,"x_min":43,"x_max":608,"o":"m 131 940 l 131 983 l 304 983 l 304 940 l 347 940 l 347 897 l 390 897 l 390 853 l 433 853 l 433 810 l 478 810 l 478 983 l 608 983 l 608 810 l 564 810 l 564 767 l 521 767 l 521 722 l 347 722 l 347 767 l 304 767 l 304 810 l 261 810 l 261 853 l 217 853 l 217 897 l 174 897 l 174 722 l 43 722 l 43 897 l 86 897 l 86 940 l 131 940 z "}," ":{"ha":694,"x_min":0,"x_max":0,"o":""},"¡":{"ha":694,"x_min":261,"x_max":390,"o":"m 261 28 l 261 636 l 390 636 l 390 28 l 261 28 m 261 722 l 261 897 l 390 897 l 390 722 l 261 722 z "},"¢":{"ha":694,"x_min":43,"x_max":608,"o":"m 261 636 l 261 767 l 390 767 l 390 636 l 521 636 l 521 593 l 564 593 l 564 550 l 608 550 l 608 463 l 478 463 l 478 506 l 433 506 l 433 550 l 390 550 l 390 115 l 433 115 l 433 158 l 478 158 l 478 203 l 608 203 l 608 115 l 564 115 l 564 72 l 521 72 l 521 28 l 390 28 l 390 -101 l 261 -101 l 261 28 l 131 28 l 131 72 l 86 72 l 86 115 l 43 115 l 43 550 l 86 550 l 86 593 l 131 593 l 131 636 l 261 636 m 261 115 l 261 550 l 217 550 l 217 506 l 174 506 l 174 158 l 217 158 l 217 115 l 261 115 z "},"£":{"ha":694,"x_min":43,"x_max":608,"o":"m 217 853 l 217 897 l 478 897 l 478 853 l 521 853 l 521 810 l 564 810 l 564 722 l 433 722 l 433 767 l 390 767 l 390 810 l 304 810 l 304 767 l 261 767 l 261 506 l 478 506 l 478 419 l 261 419 l 261 115 l 478 115 l 478 203 l 608 203 l 608 28 l 43 28 l 43 115 l 131 115 l 131 419 l 43 419 l 43 506 l 131 506 l 131 810 l 174 810 l 174 853 l 217 853 z "},"¤":{"ha":694,"x_min":43,"x_max":608,"o":"m 43 722 l 43 767 l 174 767 l 174 722 l 217 722 l 217 679 l 433 679 l 433 722 l 478 722 l 478 767 l 608 767 l 608 722 l 564 722 l 564 679 l 521 679 l 521 593 l 564 593 l 564 332 l 521 332 l 521 246 l 564 246 l 564 203 l 608 203 l 608 158 l 478 158 l 478 203 l 433 203 l 433 246 l 217 246 l 217 203 l 174 203 l 174 158 l 43 158 l 43 203 l 86 203 l 86 246 l 131 246 l 131 332 l 86 332 l 86 593 l 131 593 l 131 679 l 86 679 l 86 722 l 43 722 m 433 332 l 433 593 l 217 593 l 217 332 l 433 332 z "},"¥":{"ha":694,"x_min":43,"x_max":608,"o":"m 43 810 l 43 897 l 174 897 l 174 810 l 217 810 l 217 722 l 261 722 l 261 636 l 304 636 l 304 550 l 347 550 l 347 636 l 390 636 l 390 722 l 433 722 l 433 810 l 478 810 l 478 897 l 608 897 l 608 810 l 564 810 l 564 722 l 521 722 l 521 636 l 478 636 l 478 550 l 433 550 l 433 463 l 390 463 l 390 375 l 564 375 l 564 289 l 390 289 l 390 203 l 564 203 l 564 115 l 390 115 l 390 28 l 261 28 l 261 115 l 86 115 l 86 203 l 261 203 l 261 289 l 86 289 l 86 375 l 261 375 l 261 463 l 217 463 l 217 550 l 174 550 l 174 636 l 131 636 l 131 722 l 86 722 l 86 810 l 43 810 z "},"¦":{"ha":694,"x_min":261,"x_max":390,"o":"m 261 28 l 261 375 l 390 375 l 390 28 l 261 28 m 261 550 l 261 897 l 390 897 l 390 550 l 261 550 z "},"§":{"ha":694,"x_min":131,"x_max":564,"o":"m 217 940 l 217 983 l 478 983 l 478 940 l 521 940 l 521 897 l 564 897 l 564 810 l 433 810 l 433 853 l 390 853 l 390 897 l 304 897 l 304 853 l 261 853 l 261 767 l 304 767 l 304 722 l 433 722 l 433 679 l 478 679 l 478 636 l 521 636 l 521 593 l 564 593 l 564 332 l 521 332 l 521 246 l 564 246 l 564 72 l 521 72 l 521 28 l 478 28 l 478 -15 l 217 -15 l 217 28 l 174 28 l 174 72 l 131 72 l 131 158 l 261 158 l 261 115 l 304 115 l 304 72 l 390 72 l 390 115 l 433 115 l 433 203 l 390 203 l 390 246 l 261 246 l 261 289 l 217 289 l 217 332 l 174 332 l 174 375 l 131 375 l 131 636 l 174 636 l 174 722 l 131 722 l 131 897 l 174 897 l 174 940 l 217 940 m 347 593 l 347 636 l 261 636 l 261 419 l 304 419 l 304 375 l 347 375 l 347 332 l 433 332 l 433 550 l 390 550 l 390 593 l 347 593 z "},"¨":{"ha":694,"x_min":131,"x_max":521,"o":"m 390 940 l 390 1114 l 521 1114 l 521 940 l 390 940 m 131 940 l 131 1114 l 261 1114 l 261 940 l 131 940 z "},"©":{"ha":694,"x_min":43,"x_max":651,"o":"m 217 636 l 217 679 l 478 679 l 478 636 l 521 636 l 521 550 l 390 550 l 390 593 l 304 593 l 304 332 l 390 332 l 390 375 l 521 375 l 521 289 l 478 289 l 478 246 l 217 246 l 217 289 l 174 289 l 174 636 l 217 636 m 131 767 l 131 810 l 564 810 l 564 767 l 608 767 l 608 722 l 651 722 l 651 203 l 608 203 l 608 158 l 564 158 l 564 115 l 131 115 l 131 158 l 86 158 l 86 203 l 43 203 l 43 722 l 86 722 l 86 767 l 131 767 m 521 679 l 521 722 l 174 722 l 174 679 l 131 679 l 131 246 l 174 246 l 174 203 l 521 203 l 521 246 l 564 246 l 564 679 l 521 679 z "},"ª":{"ha":694,"x_min":86,"x_max":564,"o":"m 86 419 l 86 506 l 564 506 l 564 419 l 86 419 m 131 983 l 131 1069 l 478 1069 l 478 1026 l 521 1026 l 521 983 l 564 983 l 564 593 l 174 593 l 174 636 l 131 636 l 131 679 l 86 679 l 86 810 l 131 810 l 131 853 l 174 853 l 174 897 l 433 897 l 433 983 l 131 983 m 433 679 l 433 810 l 217 810 l 217 679 l 433 679 z "},"«":{"ha":694,"x_min":43,"x_max":651,"o":"m 521 593 l 521 636 l 651 636 l 651 593 l 608 593 l 608 550 l 564 550 l 564 506 l 521 506 l 521 463 l 478 463 l 478 419 l 433 419 l 433 375 l 390 375 l 390 289 l 433 289 l 433 246 l 478 246 l 478 203 l 521 203 l 521 158 l 564 158 l 564 115 l 608 115 l 608 72 l 651 72 l 651 28 l 521 28 l 521 72 l 478 72 l 478 115 l 433 115 l 433 158 l 390 158 l 390 203 l 347 203 l 347 246 l 304 246 l 304 289 l 261 289 l 261 375 l 304 375 l 304 419 l 347 419 l 347 463 l 390 463 l 390 506 l 433 506 l 433 550 l 478 550 l 478 593 l 521 593 m 304 593 l 304 636 l 433 636 l 433 593 l 390 593 l 390 550 l 347 550 l 347 506 l 304 506 l 304 463 l 261 463 l 261 419 l 217 419 l 217 375 l 174 375 l 174 289 l 217 289 l 217 246 l 261 246 l 261 203 l 304 203 l 304 158 l 347 158 l 347 115 l 390 115 l 390 72 l 433 72 l 433 28 l 304 28 l 304 72 l 261 72 l 261 115 l 217 115 l 217 158 l 174 158 l 174 203 l 131 203 l 131 246 l 86 246 l 86 289 l 43 289 l 43 375 l 86 375 l 86 419 l 131 419 l 131 463 l 174 463 l 174 506 l 217 506 l 217 550 l 261 550 l 261 593 l 304 593 z "},"¬":{"ha":694,"x_min":43,"x_max":608,"o":"m 43 550 l 43 636 l 608 636 l 608 289 l 478 289 l 478 550 l 43 550 z "},"­":{"ha":694,"x_min":86,"x_max":564,"o":"m 86 419 l 86 506 l 564 506 l 564 419 l 86 419 z "},"®":{"ha":694,"x_min":43,"x_max":651,"o":"m 174 246 l 174 679 l 478 679 l 478 636 l 521 636 l 521 463 l 478 463 l 478 419 l 433 419 l 433 332 l 478 332 l 478 289 l 521 289 l 521 246 l 390 246 l 390 289 l 347 289 l 347 332 l 304 332 l 304 246 l 174 246 m 390 463 l 390 593 l 304 593 l 304 463 l 390 463 m 131 767 l 131 810 l 564 810 l 564 767 l 608 767 l 608 722 l 651 722 l 651 203 l 608 203 l 608 158 l 564 158 l 564 115 l 131 115 l 131 158 l 86 158 l 86 203 l 43 203 l 43 722 l 86 722 l 86 767 l 131 767 m 521 679 l 521 722 l 174 722 l 174 679 l 131 679 l 131 246 l 174 246 l 174 203 l 521 203 l 521 246 l 564 246 l 564 679 l 521 679 z "},"¯":{"ha":694,"x_min":131,"x_max":521,"o":"m 131 983 l 131 1069 l 521 1069 l 521 983 l 131 983 z "},"°":{"ha":694,"x_min":131,"x_max":521,"o":"m 174 940 l 174 983 l 478 983 l 478 940 l 521 940 l 521 679 l 478 679 l 478 636 l 174 636 l 174 679 l 131 679 l 131 940 l 174 940 m 390 722 l 390 897 l 261 897 l 261 722 l 390 722 z "},"±":{"ha":694,"x_min":43,"x_max":608,"o":"m 43 28 l 43 115 l 608 115 l 608 28 l 43 28 m 261 506 l 261 722 l 390 722 l 390 506 l 608 506 l 608 419 l 390 419 l 390 203 l 261 203 l 261 419 l 43 419 l 43 506 l 261 506 z "},"²":{"ha":694,"x_min":131,"x_max":521,"o":"m 174 983 l 174 1026 l 478 1026 l 478 983 l 521 983 l 521 853 l 478 853 l 478 810 l 433 810 l 433 767 l 390 767 l 390 722 l 347 722 l 347 679 l 304 679 l 304 636 l 521 636 l 521 550 l 131 550 l 131 636 l 174 636 l 174 679 l 217 679 l 217 722 l 261 722 l 261 767 l 304 767 l 304 810 l 347 810 l 347 853 l 390 853 l 390 940 l 261 940 l 261 853 l 131 853 l 131 983 l 174 983 z "},"³":{"ha":694,"x_min":131,"x_max":521,"o":"m 174 983 l 174 1026 l 478 1026 l 478 983 l 521 983 l 521 853 l 478 853 l 478 767 l 521 767 l 521 593 l 478 593 l 478 550 l 174 550 l 174 593 l 131 593 l 131 679 l 261 679 l 261 636 l 390 636 l 390 767 l 261 767 l 261 853 l 390 853 l 390 940 l 261 940 l 261 897 l 131 897 l 131 983 l 174 983 z "},"´":{"ha":694,"x_min":261,"x_max":521,"o":"m 390 1069 l 390 1114 l 521 1114 l 521 1069 l 478 1069 l 478 1026 l 433 1026 l 433 983 l 390 983 l 390 940 l 261 940 l 261 983 l 304 983 l 304 1026 l 347 1026 l 347 1069 l 390 1069 z "},"µ":{"ha":694,"x_min":43,"x_max":608,"o":"m 43 -189 l 43 636 l 174 636 l 174 115 l 347 115 l 347 158 l 390 158 l 390 203 l 433 203 l 433 246 l 478 246 l 478 636 l 608 636 l 608 28 l 478 28 l 478 115 l 433 115 l 433 72 l 390 72 l 390 28 l 174 28 l 174 -189 l 43 -189 z "},"¶":{"ha":694,"x_min":43,"x_max":651,"o":"m 131 853 l 131 897 l 651 897 l 651 28 l 521 28 l 521 810 l 433 810 l 433 28 l 304 28 l 304 419 l 131 419 l 131 463 l 86 463 l 86 506 l 43 506 l 43 810 l 86 810 l 86 853 l 131 853 m 304 506 l 304 810 l 217 810 l 217 767 l 174 767 l 174 550 l 217 550 l 217 506 l 304 506 z "},"·":{"ha":694,"x_min":261,"x_max":390,"o":"m 261 375 l 261 550 l 390 550 l 390 375 l 261 375 z "},"¸":{"ha":694,"x_min":174,"x_max":390,"o":"m 261 -101 l 261 28 l 390 28 l 390 -101 l 347 -101 l 347 -144 l 304 -144 l 304 -189 l 174 -189 l 174 -144 l 217 -144 l 217 -101 l 261 -101 z "},"¹":{"ha":694,"x_min":174,"x_max":478,"o":"m 261 983 l 261 1026 l 390 1026 l 390 636 l 478 636 l 478 550 l 174 550 l 174 636 l 261 636 l 261 853 l 174 853 l 174 940 l 217 940 l 217 983 l 261 983 z "},"º":{"ha":694,"x_min":86,"x_max":564,"o":"m 86 419 l 86 506 l 564 506 l 564 419 l 86 419 m 174 1026 l 174 1069 l 478 1069 l 478 1026 l 521 1026 l 521 983 l 564 983 l 564 679 l 521 679 l 521 636 l 478 636 l 478 593 l 174 593 l 174 636 l 131 636 l 131 679 l 86 679 l 86 983 l 131 983 l 131 1026 l 174 1026 m 433 679 l 433 983 l 217 983 l 217 679 l 433 679 z "},"»":{"ha":694,"x_min":43,"x_max":651,"o":"m 261 593 l 261 636 l 390 636 l 390 593 l 433 593 l 433 550 l 478 550 l 478 506 l 521 506 l 521 463 l 564 463 l 564 419 l 608 419 l 608 375 l 651 375 l 651 289 l 608 289 l 608 246 l 564 246 l 564 203 l 521 203 l 521 158 l 478 158 l 478 115 l 433 115 l 433 72 l 390 72 l 390 28 l 261 28 l 261 72 l 304 72 l 304 115 l 347 115 l 347 158 l 390 158 l 390 203 l 433 203 l 433 246 l 478 246 l 478 289 l 521 289 l 521 375 l 478 375 l 478 419 l 433 419 l 433 463 l 390 463 l 390 506 l 347 506 l 347 550 l 304 550 l 304 593 l 261 593 m 43 593 l 43 636 l 174 636 l 174 593 l 217 593 l 217 550 l 261 550 l 261 506 l 304 506 l 304 463 l 347 463 l 347 419 l 390 419 l 390 375 l 433 375 l 433 289 l 390 289 l 390 246 l 347 246 l 347 203 l 304 203 l 304 158 l 261 158 l 261 115 l 217 115 l 217 72 l 174 72 l 174 28 l 43 28 l 43 72 l 86 72 l 86 115 l 131 115 l 131 158 l 174 158 l 174 203 l 217 203 l 217 246 l 261 246 l 261 289 l 304 289 l 304 375 l 261 375 l 261 419 l 217 419 l 217 463 l 174 463 l 174 506 l 131 506 l 131 550 l 86 550 l 86 593 l 43 593 z "},"¼":{"ha":694,"x_min":43,"x_max":651,"o":"m 521 419 l 521 463 l 651 463 l 651 28 l 521 28 l 521 115 l 261 115 l 261 203 l 304 203 l 304 246 l 347 246 l 347 289 l 390 289 l 390 332 l 433 332 l 433 375 l 478 375 l 478 419 l 521 419 m 521 203 l 521 289 l 478 289 l 478 246 l 433 246 l 433 203 l 521 203 m 564 679 l 564 722 l 651 722 l 651 636 l 608 636 l 608 593 l 564 593 l 564 550 l 521 550 l 521 506 l 478 506 l 478 463 l 433 463 l 433 419 l 390 419 l 390 375 l 347 375 l 347 332 l 304 332 l 304 289 l 261 289 l 261 246 l 217 246 l 217 203 l 174 203 l 174 158 l 131 158 l 131 115 l 43 115 l 43 203 l 86 203 l 86 246 l 131 246 l 131 289 l 174 289 l 174 332 l 217 332 l 217 375 l 261 375 l 261 419 l 304 419 l 304 463 l 347 463 l 347 506 l 390 506 l 390 550 l 433 550 l 433 593 l 478 593 l 478 636 l 521 636 l 521 679 l 564 679 m 174 853 l 174 897 l 304 897 l 304 506 l 174 506 l 174 767 l 86 767 l 86 810 l 131 810 l 131 853 l 174 853 z "},"½":{"ha":694,"x_min":43,"x_max":651,"o":"m 131 853 l 131 897 l 261 897 l 261 506 l 304 506 l 304 550 l 347 550 l 347 593 l 390 593 l 390 636 l 433 636 l 433 679 l 478 679 l 478 722 l 521 722 l 521 767 l 564 767 l 564 810 l 651 810 l 651 722 l 608 722 l 608 679 l 564 679 l 564 636 l 521 636 l 521 593 l 478 593 l 478 550 l 433 550 l 433 506 l 390 506 l 390 463 l 347 463 l 347 419 l 608 419 l 608 375 l 651 375 l 651 246 l 608 246 l 608 203 l 564 203 l 564 158 l 521 158 l 521 115 l 651 115 l 651 28 l 304 28 l 304 72 l 347 72 l 347 115 l 390 115 l 390 158 l 433 158 l 433 203 l 478 203 l 478 246 l 521 246 l 521 332 l 433 332 l 433 246 l 304 246 l 304 375 l 261 375 l 261 332 l 217 332 l 217 289 l 174 289 l 174 246 l 131 246 l 131 203 l 43 203 l 43 289 l 86 289 l 86 332 l 131 332 l 131 375 l 174 375 l 174 419 l 217 419 l 217 463 l 261 463 l 261 506 l 131 506 l 131 767 l 43 767 l 43 810 l 86 810 l 86 853 l 131 853 m 347 375 l 347 419 l 304 419 l 304 375 l 347 375 z "},"¾":{"ha":694,"x_min":43,"x_max":651,"o":"m 86 853 l 86 897 l 390 897 l 390 853 l 433 853 l 433 767 l 390 767 l 390 679 l 433 679 l 433 550 l 478 550 l 478 593 l 521 593 l 521 636 l 564 636 l 564 679 l 651 679 l 651 593 l 608 593 l 608 550 l 564 550 l 564 506 l 521 506 l 521 463 l 651 463 l 651 28 l 521 28 l 521 115 l 261 115 l 261 203 l 217 203 l 217 158 l 174 158 l 174 115 l 131 115 l 131 72 l 43 72 l 43 158 l 86 158 l 86 203 l 131 203 l 131 246 l 174 246 l 174 289 l 217 289 l 217 332 l 261 332 l 261 375 l 304 375 l 304 419 l 347 419 l 347 463 l 390 463 l 390 506 l 86 506 l 86 550 l 43 550 l 43 636 l 174 636 l 174 593 l 304 593 l 304 679 l 174 679 l 174 767 l 43 767 l 43 853 l 86 853 m 304 767 l 304 810 l 174 810 l 174 767 l 304 767 m 433 506 l 433 550 l 390 550 l 390 506 l 433 506 m 521 419 l 521 463 l 478 463 l 478 419 l 433 419 l 433 375 l 390 375 l 390 332 l 347 332 l 347 289 l 304 289 l 304 246 l 261 246 l 261 203 l 304 203 l 304 246 l 347 246 l 347 289 l 390 289 l 390 332 l 433 332 l 433 375 l 478 375 l 478 419 l 521 419 m 521 203 l 521 289 l 478 289 l 478 246 l 433 246 l 433 203 l 521 203 z "},"¿":{"ha":694,"x_min":43,"x_max":608,"o":"m 261 506 l 261 636 l 390 636 l 390 506 l 347 506 l 347 463 l 304 463 l 304 419 l 261 419 l 261 375 l 217 375 l 217 332 l 174 332 l 174 158 l 217 158 l 217 115 l 433 115 l 433 158 l 478 158 l 478 332 l 608 332 l 608 115 l 564 115 l 564 72 l 521 72 l 521 28 l 131 28 l 131 72 l 86 72 l 86 115 l 43 115 l 43 332 l 86 332 l 86 375 l 131 375 l 131 419 l 174 419 l 174 463 l 217 463 l 217 506 l 261 506 m 261 722 l 261 897 l 390 897 l 390 722 l 261 722 z "},"À":{"ha":694,"x_min":43,"x_max":608,"o":"m 131 853 l 131 897 l 521 897 l 521 853 l 564 853 l 564 810 l 608 810 l 608 28 l 478 28 l 478 375 l 174 375 l 174 28 l 43 28 l 43 810 l 86 810 l 86 853 l 131 853 m 433 767 l 433 810 l 217 810 l 217 767 l 174 767 l 174 463 l 478 463 l 478 767 l 433 767 m 131 1069 l 131 1114 l 261 1114 l 261 1069 l 304 1069 l 304 1026 l 347 1026 l 347 983 l 390 983 l 390 940 l 261 940 l 261 983 l 217 983 l 217 1026 l 174 1026 l 174 1069 l 131 1069 z "},"Á":{"ha":694,"x_min":43,"x_max":608,"o":"m 131 853 l 131 897 l 521 897 l 521 853 l 564 853 l 564 810 l 608 810 l 608 28 l 478 28 l 478 375 l 174 375 l 174 28 l 43 28 l 43 810 l 86 810 l 86 853 l 131 853 m 433 767 l 433 810 l 217 810 l 217 767 l 174 767 l 174 463 l 478 463 l 478 767 l 433 767 m 390 1069 l 390 1114 l 521 1114 l 521 1069 l 478 1069 l 478 1026 l 433 1026 l 433 983 l 390 983 l 390 940 l 261 940 l 261 983 l 304 983 l 304 1026 l 347 1026 l 347 1069 l 390 1069 z "},"Â":{"ha":694,"x_min":43,"x_max":608,"o":"m 131 853 l 131 897 l 521 897 l 521 853 l 564 853 l 564 810 l 608 810 l 608 28 l 478 28 l 478 375 l 174 375 l 174 28 l 43 28 l 43 810 l 86 810 l 86 853 l 131 853 m 433 767 l 433 810 l 217 810 l 217 767 l 174 767 l 174 463 l 478 463 l 478 767 l 433 767 m 261 1069 l 261 1114 l 390 1114 l 390 1069 l 433 1069 l 433 1026 l 478 1026 l 478 983 l 521 983 l 521 940 l 390 940 l 390 983 l 347 983 l 347 1026 l 304 1026 l 304 983 l 261 983 l 261 940 l 131 940 l 131 983 l 174 983 l 174 1026 l 217 1026 l 217 1069 l 261 1069 z "},"Ã":{"ha":694,"x_min":43,"x_max":608,"o":"m 131 853 l 131 897 l 521 897 l 521 853 l 564 853 l 564 810 l 608 810 l 608 28 l 478 28 l 478 375 l 174 375 l 174 28 l 43 28 l 43 810 l 86 810 l 86 853 l 131 853 m 433 767 l 433 810 l 217 810 l 217 767 l 174 767 l 174 463 l 478 463 l 478 767 l 433 767 m 131 1069 l 131 1114 l 347 1114 l 347 1069 l 390 1069 l 390 983 l 433 983 l 433 1114 l 564 1114 l 564 983 l 521 983 l 521 940 l 304 940 l 304 983 l 261 983 l 261 1069 l 217 1069 l 217 940 l 86 940 l 86 1069 l 131 1069 z "},"Ä":{"ha":694,"x_min":43,"x_max":608,"o":"m 131 853 l 131 897 l 521 897 l 521 853 l 564 853 l 564 810 l 608 810 l 608 28 l 478 28 l 478 375 l 174 375 l 174 28 l 43 28 l 43 810 l 86 810 l 86 853 l 131 853 m 433 767 l 433 810 l 217 810 l 217 767 l 174 767 l 174 463 l 478 463 l 478 767 l 433 767 m 390 940 l 390 1114 l 521 1114 l 521 940 l 390 940 m 131 940 l 131 1114 l 261 1114 l 261 940 l 131 940 z "},"Å":{"ha":694,"x_min":43,"x_max":608,"o":"m 217 1069 l 217 1114 l 433 1114 l 433 1069 l 478 1069 l 478 940 l 433 940 l 433 897 l 521 897 l 521 853 l 564 853 l 564 810 l 608 810 l 608 28 l 478 28 l 478 375 l 174 375 l 174 28 l 43 28 l 43 810 l 86 810 l 86 853 l 131 853 l 131 897 l 217 897 l 217 940 l 174 940 l 174 1069 l 217 1069 m 347 940 l 347 1069 l 304 1069 l 304 940 l 347 940 m 433 767 l 433 810 l 217 810 l 217 767 l 174 767 l 174 463 l 478 463 l 478 767 l 433 767 z "},"Æ":{"ha":694,"x_min":0,"x_max":651,"o":"m 86 853 l 86 897 l 651 897 l 651 810 l 433 810 l 433 506 l 651 506 l 651 419 l 433 419 l 433 115 l 651 115 l 651 28 l 304 28 l 304 419 l 131 419 l 131 28 l 0 28 l 0 810 l 43 810 l 43 853 l 86 853 m 304 506 l 304 810 l 174 810 l 174 767 l 131 767 l 131 506 l 304 506 z "},"Ç":{"ha":694,"x_min":43,"x_max":608,"o":"m 131 853 l 131 897 l 521 897 l 521 853 l 564 853 l 564 810 l 608 810 l 608 679 l 478 679 l 478 767 l 433 767 l 433 810 l 217 810 l 217 767 l 174 767 l 174 158 l 217 158 l 217 115 l 433 115 l 433 158 l 478 158 l 478 246 l 608 246 l 608 115 l 564 115 l 564 72 l 521 72 l 521 28 l 390 28 l 390 -101 l 347 -101 l 347 -144 l 304 -144 l 304 -189 l 174 -189 l 174 -144 l 217 -144 l 217 -101 l 261 -101 l 261 28 l 131 28 l 131 72 l 86 72 l 86 115 l 43 115 l 43 810 l 86 810 l 86 853 l 131 853 z "},"È":{"ha":694,"x_min":43,"x_max":608,"o":"m 43 28 l 43 897 l 608 897 l 608 810 l 174 810 l 174 506 l 478 506 l 478 419 l 174 419 l 174 115 l 608 115 l 608 28 l 43 28 m 131 1069 l 131 1114 l 261 1114 l 261 1069 l 304 1069 l 304 1026 l 347 1026 l 347 983 l 390 983 l 390 940 l 261 940 l 261 983 l 217 983 l 217 1026 l 174 1026 l 174 1069 l 131 1069 z "},"É":{"ha":694,"x_min":43,"x_max":608,"o":"m 43 28 l 43 897 l 608 897 l 608 810 l 174 810 l 174 506 l 478 506 l 478 419 l 174 419 l 174 115 l 608 115 l 608 28 l 43 28 m 390 1069 l 390 1114 l 521 1114 l 521 1069 l 478 1069 l 478 1026 l 433 1026 l 433 983 l 390 983 l 390 940 l 261 940 l 261 983 l 304 983 l 304 1026 l 347 1026 l 347 1069 l 390 1069 z "},"Ê":{"ha":694,"x_min":43,"x_max":608,"o":"m 43 28 l 43 897 l 608 897 l 608 810 l 174 810 l 174 506 l 478 506 l 478 419 l 174 419 l 174 115 l 608 115 l 608 28 l 43 28 m 261 1069 l 261 1114 l 390 1114 l 390 1069 l 433 1069 l 433 1026 l 478 1026 l 478 983 l 521 983 l 521 940 l 390 940 l 390 983 l 347 983 l 347 1026 l 304 1026 l 304 983 l 261 983 l 261 940 l 131 940 l 131 983 l 174 983 l 174 1026 l 217 1026 l 217 1069 l 261 1069 z "},"Ë":{"ha":694,"x_min":43,"x_max":608,"o":"m 43 28 l 43 897 l 608 897 l 608 810 l 174 810 l 174 506 l 478 506 l 478 419 l 174 419 l 174 115 l 608 115 l 608 28 l 43 28 m 390 940 l 390 1114 l 521 1114 l 521 940 l 390 940 m 131 940 l 131 1114 l 261 1114 l 261 940 l 131 940 z "},"Ì":{"ha":694,"x_min":131,"x_max":478,"o":"m 174 810 l 174 897 l 478 897 l 478 810 l 390 810 l 390 115 l 478 115 l 478 28 l 174 28 l 174 115 l 261 115 l 261 810 l 174 810 m 131 1069 l 131 1114 l 261 1114 l 261 1069 l 304 1069 l 304 1026 l 347 1026 l 347 983 l 390 983 l 390 940 l 261 940 l 261 983 l 217 983 l 217 1026 l 174 1026 l 174 1069 l 131 1069 z "},"Í":{"ha":694,"x_min":174,"x_max":521,"o":"m 174 810 l 174 897 l 478 897 l 478 810 l 390 810 l 390 115 l 478 115 l 478 28 l 174 28 l 174 115 l 261 115 l 261 810 l 174 810 m 390 1069 l 390 1114 l 521 1114 l 521 1069 l 478 1069 l 478 1026 l 433 1026 l 433 983 l 390 983 l 390 940 l 261 940 l 261 983 l 304 983 l 304 1026 l 347 1026 l 347 1069 l 390 1069 z "},"Î":{"ha":694,"x_min":131,"x_max":521,"o":"m 174 810 l 174 897 l 478 897 l 478 810 l 390 810 l 390 115 l 478 115 l 478 28 l 174 28 l 174 115 l 261 115 l 261 810 l 174 810 m 261 1069 l 261 1114 l 390 1114 l 390 1069 l 433 1069 l 433 1026 l 478 1026 l 478 983 l 521 983 l 521 940 l 390 940 l 390 983 l 347 983 l 347 1026 l 304 1026 l 304 983 l 261 983 l 261 940 l 131 940 l 131 983 l 174 983 l 174 1026 l 217 1026 l 217 1069 l 261 1069 z "},"Ï":{"ha":694,"x_min":131,"x_max":521,"o":"m 174 810 l 174 897 l 478 897 l 478 810 l 390 810 l 390 115 l 478 115 l 478 28 l 174 28 l 174 115 l 261 115 l 261 810 l 174 810 m 390 940 l 390 1114 l 521 1114 l 521 940 l 390 940 m 131 940 l 131 1114 l 261 1114 l 261 940 l 131 940 z "},"Ð":{"ha":694,"x_min":0,"x_max":608,"o":"m 43 506 l 43 897 l 433 897 l 433 853 l 521 853 l 521 810 l 564 810 l 564 722 l 608 722 l 608 203 l 564 203 l 564 115 l 521 115 l 521 72 l 433 72 l 433 28 l 43 28 l 43 419 l 0 419 l 0 506 l 43 506 m 390 767 l 390 810 l 174 810 l 174 506 l 390 506 l 390 419 l 174 419 l 174 115 l 390 115 l 390 158 l 433 158 l 433 203 l 478 203 l 478 722 l 433 722 l 433 767 l 390 767 z "},"Ñ":{"ha":694,"x_min":43,"x_max":608,"o":"m 43 28 l 43 897 l 174 897 l 174 679 l 217 679 l 217 636 l 261 636 l 261 593 l 304 593 l 304 550 l 347 550 l 347 506 l 390 506 l 390 463 l 433 463 l 433 419 l 478 419 l 478 897 l 608 897 l 608 28 l 478 28 l 478 289 l 433 289 l 433 332 l 390 332 l 390 375 l 347 375 l 347 419 l 304 419 l 304 463 l 261 463 l 261 506 l 217 506 l 217 550 l 174 550 l 174 28 l 43 28 m 131 1069 l 131 1114 l 347 1114 l 347 1069 l 390 1069 l 390 983 l 433 983 l 433 1114 l 564 1114 l 564 983 l 521 983 l 521 940 l 304 940 l 304 983 l 261 983 l 261 1069 l 217 1069 l 217 940 l 86 940 l 86 1069 l 131 1069 z "},"Ò":{"ha":694,"x_min":43,"x_max":608,"o":"m 131 853 l 131 897 l 521 897 l 521 853 l 564 853 l 564 810 l 608 810 l 608 115 l 564 115 l 564 72 l 521 72 l 521 28 l 131 28 l 131 72 l 86 72 l 86 115 l 43 115 l 43 810 l 86 810 l 86 853 l 131 853 m 433 767 l 433 810 l 217 810 l 217 767 l 174 767 l 174 158 l 217 158 l 217 115 l 433 115 l 433 158 l 478 158 l 478 767 l 433 767 m 131 1069 l 131 1114 l 261 1114 l 261 1069 l 304 1069 l 304 1026 l 347 1026 l 347 983 l 390 983 l 390 940 l 261 940 l 261 983 l 217 983 l 217 1026 l 174 1026 l 174 1069 l 131 1069 z "},"Ó":{"ha":694,"x_min":43,"x_max":608,"o":"m 131 853 l 131 897 l 521 897 l 521 853 l 564 853 l 564 810 l 608 810 l 608 115 l 564 115 l 564 72 l 521 72 l 521 28 l 131 28 l 131 72 l 86 72 l 86 115 l 43 115 l 43 810 l 86 810 l 86 853 l 131 853 m 433 767 l 433 810 l 217 810 l 217 767 l 174 767 l 174 158 l 217 158 l 217 115 l 433 115 l 433 158 l 478 158 l 478 767 l 433 767 m 390 1069 l 390 1114 l 521 1114 l 521 1069 l 478 1069 l 478 1026 l 433 1026 l 433 983 l 390 983 l 390 940 l 261 940 l 261 983 l 304 983 l 304 1026 l 347 1026 l 347 1069 l 390 1069 z "},"Ô":{"ha":694,"x_min":43,"x_max":608,"o":"m 131 853 l 131 897 l 521 897 l 521 853 l 564 853 l 564 810 l 608 810 l 608 115 l 564 115 l 564 72 l 521 72 l 521 28 l 131 28 l 131 72 l 86 72 l 86 115 l 43 115 l 43 810 l 86 810 l 86 853 l 131 853 m 433 767 l 433 810 l 217 810 l 217 767 l 174 767 l 174 158 l 217 158 l 217 115 l 433 115 l 433 158 l 478 158 l 478 767 l 433 767 m 261 1069 l 261 1114 l 390 1114 l 390 1069 l 433 1069 l 433 1026 l 478 1026 l 478 983 l 521 983 l 521 940 l 390 940 l 390 983 l 347 983 l 347 1026 l 304 1026 l 304 983 l 261 983 l 261 940 l 131 940 l 131 983 l 174 983 l 174 1026 l 217 1026 l 217 1069 l 261 1069 z "},"Õ":{"ha":694,"x_min":43,"x_max":608,"o":"m 131 853 l 131 897 l 521 897 l 521 853 l 564 853 l 564 810 l 608 810 l 608 115 l 564 115 l 564 72 l 521 72 l 521 28 l 131 28 l 131 72 l 86 72 l 86 115 l 43 115 l 43 810 l 86 810 l 86 853 l 131 853 m 433 767 l 433 810 l 217 810 l 217 767 l 174 767 l 174 158 l 217 158 l 217 115 l 433 115 l 433 158 l 478 158 l 478 767 l 433 767 m 131 1069 l 131 1114 l 347 1114 l 347 1069 l 390 1069 l 390 983 l 433 983 l 433 1114 l 564 1114 l 564 983 l 521 983 l 521 940 l 304 940 l 304 983 l 261 983 l 261 1069 l 217 1069 l 217 940 l 86 940 l 86 1069 l 131 1069 z "},"Ö":{"ha":694,"x_min":43,"x_max":608,"o":"m 131 853 l 131 897 l 521 897 l 521 853 l 564 853 l 564 810 l 608 810 l 608 115 l 564 115 l 564 72 l 521 72 l 521 28 l 131 28 l 131 72 l 86 72 l 86 115 l 43 115 l 43 810 l 86 810 l 86 853 l 131 853 m 433 767 l 433 810 l 217 810 l 217 767 l 174 767 l 174 158 l 217 158 l 217 115 l 433 115 l 433 158 l 478 158 l 478 767 l 433 767 m 390 940 l 390 1114 l 521 1114 l 521 940 l 390 940 m 131 940 l 131 1114 l 261 1114 l 261 940 l 131 940 z "},"×":{"ha":694,"x_min":43,"x_max":651,"o":"m 43 679 l 43 722 l 174 722 l 174 679 l 217 679 l 217 636 l 261 636 l 261 593 l 304 593 l 304 550 l 390 550 l 390 593 l 433 593 l 433 636 l 478 636 l 478 679 l 521 679 l 521 722 l 651 722 l 651 679 l 608 679 l 608 636 l 564 636 l 564 593 l 521 593 l 521 550 l 478 550 l 478 506 l 433 506 l 433 419 l 478 419 l 478 375 l 521 375 l 521 332 l 564 332 l 564 289 l 608 289 l 608 246 l 651 246 l 651 203 l 521 203 l 521 246 l 478 246 l 478 289 l 433 289 l 433 332 l 390 332 l 390 375 l 304 375 l 304 332 l 261 332 l 261 289 l 217 289 l 217 246 l 174 246 l 174 203 l 43 203 l 43 246 l 86 246 l 86 289 l 131 289 l 131 332 l 174 332 l 174 375 l 217 375 l 217 419 l 261 419 l 261 506 l 217 506 l 217 550 l 174 550 l 174 593 l 131 593 l 131 636 l 86 636 l 86 679 l 43 679 z "},"Ø":{"ha":694,"x_min":0,"x_max":651,"o":"m 131 853 l 131 897 l 521 897 l 521 853 l 564 853 l 564 810 l 651 810 l 651 722 l 608 722 l 608 115 l 564 115 l 564 72 l 521 72 l 521 28 l 131 28 l 131 72 l 86 72 l 86 115 l 43 115 l 43 158 l 0 158 l 0 246 l 43 246 l 43 810 l 86 810 l 86 853 l 131 853 m 433 767 l 433 810 l 217 810 l 217 767 l 174 767 l 174 419 l 217 419 l 217 463 l 261 463 l 261 506 l 304 506 l 304 550 l 347 550 l 347 593 l 390 593 l 390 636 l 433 636 l 433 679 l 478 679 l 478 767 l 433 767 m 478 158 l 478 550 l 433 550 l 433 506 l 390 506 l 390 463 l 347 463 l 347 419 l 304 419 l 304 375 l 261 375 l 261 332 l 217 332 l 217 289 l 174 289 l 174 158 l 217 158 l 217 115 l 433 115 l 433 158 l 478 158 z "},"Ù":{"ha":694,"x_min":43,"x_max":608,"o":"m 43 115 l 43 897 l 174 897 l 174 158 l 217 158 l 217 115 l 433 115 l 433 158 l 478 158 l 478 897 l 608 897 l 608 115 l 564 115 l 564 72 l 521 72 l 521 28 l 131 28 l 131 72 l 86 72 l 86 115 l 43 115 m 131 1069 l 131 1114 l 261 1114 l 261 1069 l 304 1069 l 304 1026 l 347 1026 l 347 983 l 390 983 l 390 940 l 261 940 l 261 983 l 217 983 l 217 1026 l 174 1026 l 174 1069 l 131 1069 z "},"Ú":{"ha":694,"x_min":43,"x_max":608,"o":"m 43 115 l 43 897 l 174 897 l 174 158 l 217 158 l 217 115 l 433 115 l 433 158 l 478 158 l 478 897 l 608 897 l 608 115 l 564 115 l 564 72 l 521 72 l 521 28 l 131 28 l 131 72 l 86 72 l 86 115 l 43 115 m 390 1069 l 390 1114 l 521 1114 l 521 1069 l 478 1069 l 478 1026 l 433 1026 l 433 983 l 390 983 l 390 940 l 261 940 l 261 983 l 304 983 l 304 1026 l 347 1026 l 347 1069 l 390 1069 z "},"Û":{"ha":694,"x_min":43,"x_max":608,"o":"m 43 115 l 43 897 l 174 897 l 174 158 l 217 158 l 217 115 l 433 115 l 433 158 l 478 158 l 478 897 l 608 897 l 608 115 l 564 115 l 564 72 l 521 72 l 521 28 l 131 28 l 131 72 l 86 72 l 86 115 l 43 115 m 261 1069 l 261 1114 l 390 1114 l 390 1069 l 433 1069 l 433 1026 l 478 1026 l 478 983 l 521 983 l 521 940 l 390 940 l 390 983 l 347 983 l 347 1026 l 304 1026 l 304 983 l 261 983 l 261 940 l 131 940 l 131 983 l 174 983 l 174 1026 l 217 1026 l 217 1069 l 261 1069 z "},"Ü":{"ha":694,"x_min":43,"x_max":608,"o":"m 43 115 l 43 897 l 174 897 l 174 158 l 217 158 l 217 115 l 433 115 l 433 158 l 478 158 l 478 897 l 608 897 l 608 115 l 564 115 l 564 72 l 521 72 l 521 28 l 131 28 l 131 72 l 86 72 l 86 115 l 43 115 m 390 940 l 390 1114 l 521 1114 l 521 940 l 390 940 m 131 940 l 131 1114 l 261 1114 l 261 940 l 131 940 z "},"Ý":{"ha":694,"x_min":43,"x_max":608,"o":"m 43 767 l 43 897 l 174 897 l 174 767 l 217 767 l 217 679 l 261 679 l 261 593 l 304 593 l 304 506 l 347 506 l 347 593 l 390 593 l 390 679 l 433 679 l 433 767 l 478 767 l 478 897 l 608 897 l 608 767 l 564 767 l 564 679 l 521 679 l 521 593 l 478 593 l 478 506 l 433 506 l 433 419 l 390 419 l 390 28 l 261 28 l 261 419 l 217 419 l 217 506 l 174 506 l 174 593 l 131 593 l 131 679 l 86 679 l 86 767 l 43 767 m 390 1069 l 390 1114 l 521 1114 l 521 1069 l 478 1069 l 478 1026 l 433 1026 l 433 983 l 390 983 l 390 940 l 261 940 l 261 983 l 304 983 l 304 1026 l 347 1026 l 347 1069 l 390 1069 z "},"Þ":{"ha":694,"x_min":43,"x_max":608,"o":"m 43 28 l 43 897 l 174 897 l 174 722 l 521 722 l 521 679 l 564 679 l 564 636 l 608 636 l 608 289 l 564 289 l 564 246 l 521 246 l 521 203 l 174 203 l 174 28 l 43 28 m 433 593 l 433 636 l 174 636 l 174 289 l 433 289 l 433 332 l 478 332 l 478 593 l 433 593 z "},"ß":{"ha":694,"x_min":43,"x_max":608,"o":"m 86 853 l 86 897 l 478 897 l 478 853 l 521 853 l 521 810 l 564 810 l 564 593 l 521 593 l 521 463 l 564 463 l 564 419 l 608 419 l 608 115 l 564 115 l 564 72 l 521 72 l 521 28 l 261 28 l 261 72 l 217 72 l 217 115 l 174 115 l 174 28 l 43 28 l 43 853 l 86 853 m 390 767 l 390 810 l 174 810 l 174 550 l 390 550 l 390 593 l 433 593 l 433 767 l 390 767 m 433 419 l 433 463 l 174 463 l 174 203 l 217 203 l 217 158 l 261 158 l 261 115 l 433 115 l 433 158 l 478 158 l 478 419 l 433 419 z "},"à":{"ha":694,"x_min":43,"x_max":608,"o":"m 86 550 l 86 636 l 521 636 l 521 593 l 564 593 l 564 550 l 608 550 l 608 28 l 131 28 l 131 72 l 86 72 l 86 115 l 43 115 l 43 332 l 86 332 l 86 375 l 131 375 l 131 419 l 478 419 l 478 506 l 433 506 l 433 550 l 86 550 m 478 115 l 478 332 l 217 332 l 217 289 l 174 289 l 174 158 l 217 158 l 217 115 l 478 115 m 131 853 l 131 897 l 261 897 l 261 853 l 304 853 l 304 810 l 347 810 l 347 767 l 390 767 l 390 722 l 261 722 l 261 767 l 217 767 l 217 810 l 174 810 l 174 853 l 131 853 z "},"á":{"ha":694,"x_min":43,"x_max":608,"o":"m 86 550 l 86 636 l 521 636 l 521 593 l 564 593 l 564 550 l 608 550 l 608 28 l 131 28 l 131 72 l 86 72 l 86 115 l 43 115 l 43 332 l 86 332 l 86 375 l 131 375 l 131 419 l 478 419 l 478 506 l 433 506 l 433 550 l 86 550 m 478 115 l 478 332 l 217 332 l 217 289 l 174 289 l 174 158 l 217 158 l 217 115 l 478 115 m 390 853 l 390 897 l 521 897 l 521 853 l 478 853 l 478 810 l 433 810 l 433 767 l 390 767 l 390 722 l 261 722 l 261 767 l 304 767 l 304 810 l 347 810 l 347 853 l 390 853 z "},"â":{"ha":694,"x_min":43,"x_max":608,"o":"m 86 550 l 86 636 l 521 636 l 521 593 l 564 593 l 564 550 l 608 550 l 608 28 l 131 28 l 131 72 l 86 72 l 86 115 l 43 115 l 43 332 l 86 332 l 86 375 l 131 375 l 131 419 l 478 419 l 478 506 l 433 506 l 433 550 l 86 550 m 478 115 l 478 332 l 217 332 l 217 289 l 174 289 l 174 158 l 217 158 l 217 115 l 478 115 m 261 853 l 261 897 l 390 897 l 390 853 l 433 853 l 433 810 l 478 810 l 478 767 l 521 767 l 521 722 l 390 722 l 390 767 l 347 767 l 347 810 l 304 810 l 304 767 l 261 767 l 261 722 l 131 722 l 131 767 l 174 767 l 174 810 l 217 810 l 217 853 l 261 853 z "},"ã":{"ha":694,"x_min":43,"x_max":608,"o":"m 86 550 l 86 636 l 521 636 l 521 593 l 564 593 l 564 550 l 608 550 l 608 28 l 131 28 l 131 72 l 86 72 l 86 115 l 43 115 l 43 332 l 86 332 l 86 375 l 131 375 l 131 419 l 478 419 l 478 506 l 433 506 l 433 550 l 86 550 m 478 115 l 478 332 l 217 332 l 217 289 l 174 289 l 174 158 l 217 158 l 217 115 l 478 115 m 131 853 l 131 897 l 347 897 l 347 853 l 390 853 l 390 767 l 433 767 l 433 897 l 564 897 l 564 767 l 521 767 l 521 722 l 304 722 l 304 767 l 261 767 l 261 853 l 217 853 l 217 722 l 86 722 l 86 853 l 131 853 z "},"ä":{"ha":694,"x_min":43,"x_max":608,"o":"m 86 550 l 86 636 l 521 636 l 521 593 l 564 593 l 564 550 l 608 550 l 608 28 l 131 28 l 131 72 l 86 72 l 86 115 l 43 115 l 43 332 l 86 332 l 86 375 l 131 375 l 131 419 l 478 419 l 478 506 l 433 506 l 433 550 l 86 550 m 478 115 l 478 332 l 217 332 l 217 289 l 174 289 l 174 158 l 217 158 l 217 115 l 478 115 m 390 722 l 390 897 l 521 897 l 521 722 l 390 722 m 131 722 l 131 897 l 261 897 l 261 722 l 131 722 z "},"å":{"ha":694,"x_min":43,"x_max":608,"o":"m 86 550 l 86 636 l 521 636 l 521 593 l 564 593 l 564 550 l 608 550 l 608 28 l 131 28 l 131 72 l 86 72 l 86 115 l 43 115 l 43 332 l 86 332 l 86 375 l 131 375 l 131 419 l 478 419 l 478 506 l 433 506 l 433 550 l 86 550 m 478 115 l 478 332 l 217 332 l 217 289 l 174 289 l 174 158 l 217 158 l 217 115 l 478 115 m 217 853 l 217 897 l 433 897 l 433 853 l 478 853 l 478 722 l 433 722 l 433 679 l 217 679 l 217 722 l 174 722 l 174 853 l 217 853 m 347 722 l 347 853 l 304 853 l 304 722 l 347 722 z "},"æ":{"ha":694,"x_min":0,"x_max":651,"o":"m 43 550 l 43 636 l 304 636 l 304 593 l 347 593 l 347 636 l 564 636 l 564 593 l 608 593 l 608 550 l 651 550 l 651 289 l 390 289 l 390 158 l 433 158 l 433 115 l 521 115 l 521 158 l 651 158 l 651 72 l 608 72 l 608 28 l 347 28 l 347 72 l 304 72 l 304 28 l 86 28 l 86 72 l 43 72 l 43 115 l 0 115 l 0 332 l 43 332 l 43 375 l 86 375 l 86 419 l 261 419 l 261 550 l 43 550 m 478 506 l 478 550 l 390 550 l 390 375 l 521 375 l 521 506 l 478 506 m 261 115 l 261 332 l 174 332 l 174 289 l 131 289 l 131 158 l 174 158 l 174 115 l 261 115 z "},"ç":{"ha":694,"x_min":43,"x_max":608,"o":"m 131 593 l 131 636 l 521 636 l 521 593 l 564 593 l 564 550 l 608 550 l 608 463 l 478 463 l 478 506 l 433 506 l 433 550 l 217 550 l 217 506 l 174 506 l 174 158 l 217 158 l 217 115 l 433 115 l 433 158 l 478 158 l 478 203 l 608 203 l 608 115 l 564 115 l 564 72 l 521 72 l 521 28 l 390 28 l 390 -101 l 347 -101 l 347 -144 l 304 -144 l 304 -189 l 174 -189 l 174 -144 l 217 -144 l 217 -101 l 261 -101 l 261 28 l 131 28 l 131 72 l 86 72 l 86 115 l 43 115 l 43 550 l 86 550 l 86 593 l 131 593 z "},"è":{"ha":694,"x_min":43,"x_max":608,"o":"m 131 593 l 131 636 l 521 636 l 521 593 l 564 593 l 564 550 l 608 550 l 608 289 l 174 289 l 174 158 l 217 158 l 217 115 l 478 115 l 478 158 l 608 158 l 608 72 l 564 72 l 564 28 l 131 28 l 131 72 l 86 72 l 86 115 l 43 115 l 43 550 l 86 550 l 86 593 l 131 593 m 433 506 l 433 550 l 217 550 l 217 506 l 174 506 l 174 375 l 478 375 l 478 506 l 433 506 m 131 853 l 131 897 l 261 897 l 261 853 l 304 853 l 304 810 l 347 810 l 347 767 l 390 767 l 390 722 l 261 722 l 261 767 l 217 767 l 217 810 l 174 810 l 174 853 l 131 853 z "},"é":{"ha":694,"x_min":43,"x_max":608,"o":"m 131 593 l 131 636 l 521 636 l 521 593 l 564 593 l 564 550 l 608 550 l 608 289 l 174 289 l 174 158 l 217 158 l 217 115 l 478 115 l 478 158 l 608 158 l 608 72 l 564 72 l 564 28 l 131 28 l 131 72 l 86 72 l 86 115 l 43 115 l 43 550 l 86 550 l 86 593 l 131 593 m 433 506 l 433 550 l 217 550 l 217 506 l 174 506 l 174 375 l 478 375 l 478 506 l 433 506 m 390 853 l 390 897 l 521 897 l 521 853 l 478 853 l 478 810 l 433 810 l 433 767 l 390 767 l 390 722 l 261 722 l 261 767 l 304 767 l 304 810 l 347 810 l 347 853 l 390 853 z "},"ê":{"ha":694,"x_min":43,"x_max":608,"o":"m 131 593 l 131 636 l 521 636 l 521 593 l 564 593 l 564 550 l 608 550 l 608 289 l 174 289 l 174 158 l 217 158 l 217 115 l 478 115 l 478 158 l 608 158 l 608 72 l 564 72 l 564 28 l 131 28 l 131 72 l 86 72 l 86 115 l 43 115 l 43 550 l 86 550 l 86 593 l 131 593 m 433 506 l 433 550 l 217 550 l 217 506 l 174 506 l 174 375 l 478 375 l 478 506 l 433 506 m 261 853 l 261 897 l 390 897 l 390 853 l 433 853 l 433 810 l 478 810 l 478 767 l 521 767 l 521 722 l 390 722 l 390 767 l 347 767 l 347 810 l 304 810 l 304 767 l 261 767 l 261 722 l 131 722 l 131 767 l 174 767 l 174 810 l 217 810 l 217 853 l 261 853 z "},"ë":{"ha":694,"x_min":43,"x_max":608,"o":"m 131 593 l 131 636 l 521 636 l 521 593 l 564 593 l 564 550 l 608 550 l 608 289 l 174 289 l 174 158 l 217 158 l 217 115 l 478 115 l 478 158 l 608 158 l 608 72 l 564 72 l 564 28 l 131 28 l 131 72 l 86 72 l 86 115 l 43 115 l 43 550 l 86 550 l 86 593 l 131 593 m 433 506 l 433 550 l 217 550 l 217 506 l 174 506 l 174 375 l 478 375 l 478 506 l 433 506 m 390 722 l 390 897 l 521 897 l 521 722 l 390 722 m 131 722 l 131 897 l 261 897 l 261 722 l 131 722 z "},"ì":{"ha":694,"x_min":131,"x_max":478,"o":"m 174 550 l 174 636 l 390 636 l 390 115 l 478 115 l 478 28 l 174 28 l 174 115 l 261 115 l 261 550 l 174 550 m 131 853 l 131 897 l 261 897 l 261 853 l 304 853 l 304 810 l 347 810 l 347 767 l 390 767 l 390 722 l 261 722 l 261 767 l 217 767 l 217 810 l 174 810 l 174 853 l 131 853 z "},"í":{"ha":694,"x_min":174,"x_max":521,"o":"m 174 550 l 174 636 l 390 636 l 390 115 l 478 115 l 478 28 l 174 28 l 174 115 l 261 115 l 261 550 l 174 550 m 390 853 l 390 897 l 521 897 l 521 853 l 478 853 l 478 810 l 433 810 l 433 767 l 390 767 l 390 722 l 261 722 l 261 767 l 304 767 l 304 810 l 347 810 l 347 853 l 390 853 z "},"î":{"ha":694,"x_min":131,"x_max":521,"o":"m 174 550 l 174 636 l 390 636 l 390 115 l 478 115 l 478 28 l 174 28 l 174 115 l 261 115 l 261 550 l 174 550 m 261 853 l 261 897 l 390 897 l 390 853 l 433 853 l 433 810 l 478 810 l 478 767 l 521 767 l 521 722 l 390 722 l 390 767 l 347 767 l 347 810 l 304 810 l 304 767 l 261 767 l 261 722 l 131 722 l 131 767 l 174 767 l 174 810 l 217 810 l 217 853 l 261 853 z "},"ï":{"ha":694,"x_min":131,"x_max":521,"o":"m 174 550 l 174 636 l 390 636 l 390 115 l 478 115 l 478 28 l 174 28 l 174 115 l 261 115 l 261 550 l 174 550 m 390 722 l 390 897 l 521 897 l 521 722 l 390 722 m 131 722 l 131 897 l 261 897 l 261 722 l 131 722 z "},"ð":{"ha":694,"x_min":43,"x_max":608,"o":"m 131 853 l 131 897 l 261 897 l 261 853 l 304 853 l 304 897 l 433 897 l 433 853 l 390 853 l 390 810 l 347 810 l 347 767 l 390 767 l 390 722 l 433 722 l 433 679 l 478 679 l 478 636 l 521 636 l 521 593 l 564 593 l 564 550 l 608 550 l 608 115 l 564 115 l 564 72 l 521 72 l 521 28 l 131 28 l 131 72 l 86 72 l 86 115 l 43 115 l 43 550 l 86 550 l 86 593 l 131 593 l 131 636 l 347 636 l 347 679 l 304 679 l 304 722 l 261 722 l 261 767 l 217 767 l 217 722 l 86 722 l 86 767 l 131 767 l 131 810 l 174 810 l 174 853 l 131 853 m 433 506 l 433 550 l 217 550 l 217 506 l 174 506 l 174 158 l 217 158 l 217 115 l 433 115 l 433 158 l 478 158 l 478 506 l 433 506 z "},"ñ":{"ha":694,"x_min":43,"x_max":608,"o":"m 43 28 l 43 636 l 521 636 l 521 593 l 564 593 l 564 550 l 608 550 l 608 28 l 478 28 l 478 506 l 433 506 l 433 550 l 174 550 l 174 28 l 43 28 m 131 853 l 131 897 l 347 897 l 347 853 l 390 853 l 390 767 l 433 767 l 433 897 l 564 897 l 564 767 l 521 767 l 521 722 l 304 722 l 304 767 l 261 767 l 261 853 l 217 853 l 217 722 l 86 722 l 86 853 l 131 853 z "},"ò":{"ha":694,"x_min":43,"x_max":608,"o":"m 131 593 l 131 636 l 521 636 l 521 593 l 564 593 l 564 550 l 608 550 l 608 115 l 564 115 l 564 72 l 521 72 l 521 28 l 131 28 l 131 72 l 86 72 l 86 115 l 43 115 l 43 550 l 86 550 l 86 593 l 131 593 m 433 506 l 433 550 l 217 550 l 217 506 l 174 506 l 174 158 l 217 158 l 217 115 l 433 115 l 433 158 l 478 158 l 478 506 l 433 506 m 131 853 l 131 897 l 261 897 l 261 853 l 304 853 l 304 810 l 347 810 l 347 767 l 390 767 l 390 722 l 261 722 l 261 767 l 217 767 l 217 810 l 174 810 l 174 853 l 131 853 z "},"ó":{"ha":694,"x_min":43,"x_max":608,"o":"m 131 593 l 131 636 l 521 636 l 521 593 l 564 593 l 564 550 l 608 550 l 608 115 l 564 115 l 564 72 l 521 72 l 521 28 l 131 28 l 131 72 l 86 72 l 86 115 l 43 115 l 43 550 l 86 550 l 86 593 l 131 593 m 433 506 l 433 550 l 217 550 l 217 506 l 174 506 l 174 158 l 217 158 l 217 115 l 433 115 l 433 158 l 478 158 l 478 506 l 433 506 m 390 853 l 390 897 l 521 897 l 521 853 l 478 853 l 478 810 l 433 810 l 433 767 l 390 767 l 390 722 l 261 722 l 261 767 l 304 767 l 304 810 l 347 810 l 347 853 l 390 853 z "},"ô":{"ha":694,"x_min":43,"x_max":608,"o":"m 131 593 l 131 636 l 521 636 l 521 593 l 564 593 l 564 550 l 608 550 l 608 115 l 564 115 l 564 72 l 521 72 l 521 28 l 131 28 l 131 72 l 86 72 l 86 115 l 43 115 l 43 550 l 86 550 l 86 593 l 131 593 m 433 506 l 433 550 l 217 550 l 217 506 l 174 506 l 174 158 l 217 158 l 217 115 l 433 115 l 433 158 l 478 158 l 478 506 l 433 506 m 261 853 l 261 897 l 390 897 l 390 853 l 433 853 l 433 810 l 478 810 l 478 767 l 521 767 l 521 722 l 390 722 l 390 767 l 347 767 l 347 810 l 304 810 l 304 767 l 261 767 l 261 722 l 131 722 l 131 767 l 174 767 l 174 810 l 217 810 l 217 853 l 261 853 z "},"õ":{"ha":694,"x_min":43,"x_max":608,"o":"m 131 593 l 131 636 l 521 636 l 521 593 l 564 593 l 564 550 l 608 550 l 608 115 l 564 115 l 564 72 l 521 72 l 521 28 l 131 28 l 131 72 l 86 72 l 86 115 l 43 115 l 43 550 l 86 550 l 86 593 l 131 593 m 433 506 l 433 550 l 217 550 l 217 506 l 174 506 l 174 158 l 217 158 l 217 115 l 433 115 l 433 158 l 478 158 l 478 506 l 433 506 m 131 853 l 131 897 l 347 897 l 347 853 l 390 853 l 390 767 l 433 767 l 433 897 l 564 897 l 564 767 l 521 767 l 521 722 l 304 722 l 304 767 l 261 767 l 261 853 l 217 853 l 217 722 l 86 722 l 86 853 l 131 853 z "},"ö":{"ha":694,"x_min":43,"x_max":608,"o":"m 131 593 l 131 636 l 521 636 l 521 593 l 564 593 l 564 550 l 608 550 l 608 115 l 564 115 l 564 72 l 521 72 l 521 28 l 131 28 l 131 72 l 86 72 l 86 115 l 43 115 l 43 550 l 86 550 l 86 593 l 131 593 m 433 506 l 433 550 l 217 550 l 217 506 l 174 506 l 174 158 l 217 158 l 217 115 l 433 115 l 433 158 l 478 158 l 478 506 l 433 506 m 390 722 l 390 897 l 521 897 l 521 722 l 390 722 m 131 722 l 131 897 l 261 897 l 261 722 l 131 722 z "},"÷":{"ha":694,"x_min":43,"x_max":608,"o":"m 261 158 l 261 332 l 390 332 l 390 158 l 261 158 m 43 419 l 43 506 l 608 506 l 608 419 l 43 419 m 261 593 l 261 767 l 390 767 l 390 593 l 261 593 z "},"ø":{"ha":694,"x_min":0,"x_max":651,"o":"m 131 593 l 131 636 l 521 636 l 521 593 l 564 593 l 564 636 l 651 636 l 651 550 l 608 550 l 608 115 l 564 115 l 564 72 l 521 72 l 521 28 l 131 28 l 131 72 l 86 72 l 86 28 l 0 28 l 0 115 l 43 115 l 43 550 l 86 550 l 86 593 l 131 593 m 433 506 l 433 550 l 217 550 l 217 506 l 174 506 l 174 289 l 217 289 l 217 332 l 261 332 l 261 375 l 304 375 l 304 419 l 347 419 l 347 463 l 390 463 l 390 506 l 433 506 m 478 158 l 478 419 l 433 419 l 433 375 l 390 375 l 390 332 l 347 332 l 347 289 l 304 289 l 304 246 l 261 246 l 261 203 l 217 203 l 217 115 l 433 115 l 433 158 l 478 158 z "},"ù":{"ha":694,"x_min":43,"x_max":608,"o":"m 43 115 l 43 636 l 174 636 l 174 158 l 217 158 l 217 115 l 478 115 l 478 636 l 608 636 l 608 28 l 131 28 l 131 72 l 86 72 l 86 115 l 43 115 m 131 853 l 131 897 l 261 897 l 261 853 l 304 853 l 304 810 l 347 810 l 347 767 l 390 767 l 390 722 l 261 722 l 261 767 l 217 767 l 217 810 l 174 810 l 174 853 l 131 853 z "},"ú":{"ha":694,"x_min":43,"x_max":608,"o":"m 43 115 l 43 636 l 174 636 l 174 158 l 217 158 l 217 115 l 478 115 l 478 636 l 608 636 l 608 28 l 131 28 l 131 72 l 86 72 l 86 115 l 43 115 m 390 853 l 390 897 l 521 897 l 521 853 l 478 853 l 478 810 l 433 810 l 433 767 l 390 767 l 390 722 l 261 722 l 261 767 l 304 767 l 304 810 l 347 810 l 347 853 l 390 853 z "},"û":{"ha":694,"x_min":43,"x_max":608,"o":"m 43 115 l 43 636 l 174 636 l 174 158 l 217 158 l 217 115 l 478 115 l 478 636 l 608 636 l 608 28 l 131 28 l 131 72 l 86 72 l 86 115 l 43 115 m 261 853 l 261 897 l 390 897 l 390 853 l 433 853 l 433 810 l 478 810 l 478 767 l 521 767 l 521 722 l 390 722 l 390 767 l 347 767 l 347 810 l 304 810 l 304 767 l 261 767 l 261 722 l 131 722 l 131 767 l 174 767 l 174 810 l 217 810 l 217 853 l 261 853 z "},"ü":{"ha":694,"x_min":43,"x_max":608,"o":"m 43 115 l 43 636 l 174 636 l 174 158 l 217 158 l 217 115 l 478 115 l 478 636 l 608 636 l 608 28 l 131 28 l 131 72 l 86 72 l 86 115 l 43 115 m 390 722 l 390 897 l 521 897 l 521 722 l 390 722 m 131 722 l 131 897 l 261 897 l 261 722 l 131 722 z "},"ý":{"ha":694,"x_min":43,"x_max":608,"o":"m 43 115 l 43 636 l 174 636 l 174 158 l 217 158 l 217 115 l 478 115 l 478 636 l 608 636 l 608 -101 l 564 -101 l 564 -144 l 521 -144 l 521 -189 l 86 -189 l 86 -101 l 433 -101 l 433 -58 l 478 -58 l 478 28 l 131 28 l 131 72 l 86 72 l 86 115 l 43 115 m 390 853 l 390 897 l 521 897 l 521 853 l 478 853 l 478 810 l 433 810 l 433 767 l 390 767 l 390 722 l 261 722 l 261 767 l 304 767 l 304 810 l 347 810 l 347 853 l 390 853 z "},"þ":{"ha":694,"x_min":43,"x_max":608,"o":"m 43 -189 l 43 897 l 174 897 l 174 636 l 521 636 l 521 593 l 564 593 l 564 550 l 608 550 l 608 115 l 564 115 l 564 72 l 521 72 l 521 28 l 174 28 l 174 -189 l 43 -189 m 433 506 l 433 550 l 174 550 l 174 115 l 433 115 l 433 158 l 478 158 l 478 506 l 433 506 z "},"ÿ":{"ha":694,"x_min":43,"x_max":608,"o":"m 43 115 l 43 636 l 174 636 l 174 158 l 217 158 l 217 115 l 478 115 l 478 636 l 608 636 l 608 -101 l 564 -101 l 564 -144 l 521 -144 l 521 -189 l 86 -189 l 86 -101 l 433 -101 l 433 -58 l 478 -58 l 478 28 l 131 28 l 131 72 l 86 72 l 86 115 l 43 115 m 390 722 l 390 897 l 521 897 l 521 722 l 390 722 m 131 722 l 131 897 l 261 897 l 261 722 l 131 722 z "},"Ā":{"ha":694,"x_min":43,"x_max":608,"o":"m 131 853 l 131 897 l 521 897 l 521 853 l 564 853 l 564 810 l 608 810 l 608 28 l 478 28 l 478 375 l 174 375 l 174 28 l 43 28 l 43 810 l 86 810 l 86 853 l 131 853 m 433 767 l 433 810 l 217 810 l 217 767 l 174 767 l 174 463 l 478 463 l 478 767 l 433 767 m 131 983 l 131 1069 l 521 1069 l 521 983 l 131 983 z "},"ā":{"ha":694,"x_min":43,"x_max":608,"o":"m 86 550 l 86 636 l 521 636 l 521 593 l 564 593 l 564 550 l 608 550 l 608 28 l 131 28 l 131 72 l 86 72 l 86 115 l 43 115 l 43 332 l 86 332 l 86 375 l 131 375 l 131 419 l 478 419 l 478 506 l 433 506 l 433 550 l 86 550 m 478 115 l 478 332 l 217 332 l 217 289 l 174 289 l 174 158 l 217 158 l 217 115 l 478 115 m 131 722 l 131 810 l 521 810 l 521 722 l 131 722 z "},"Ă":{"ha":694,"x_min":43,"x_max":608,"o":"m 131 853 l 131 897 l 521 897 l 521 853 l 564 853 l 564 810 l 608 810 l 608 28 l 478 28 l 478 375 l 174 375 l 174 28 l 43 28 l 43 810 l 86 810 l 86 853 l 131 853 m 433 767 l 433 810 l 217 810 l 217 767 l 174 767 l 174 463 l 478 463 l 478 767 l 433 767 m 131 1026 l 131 1114 l 261 1114 l 261 1026 l 390 1026 l 390 1114 l 521 1114 l 521 1026 l 478 1026 l 478 983 l 433 983 l 433 940 l 217 940 l 217 983 l 174 983 l 174 1026 l 131 1026 z "},"ă":{"ha":694,"x_min":43,"x_max":608,"o":"m 86 550 l 86 636 l 521 636 l 521 593 l 564 593 l 564 550 l 608 550 l 608 28 l 131 28 l 131 72 l 86 72 l 86 115 l 43 115 l 43 332 l 86 332 l 86 375 l 131 375 l 131 419 l 478 419 l 478 506 l 433 506 l 433 550 l 86 550 m 478 115 l 478 332 l 217 332 l 217 289 l 174 289 l 174 158 l 217 158 l 217 115 l 478 115 m 131 810 l 131 897 l 261 897 l 261 810 l 390 810 l 390 897 l 521 897 l 521 810 l 478 810 l 478 767 l 433 767 l 433 722 l 217 722 l 217 767 l 174 767 l 174 810 l 131 810 z "},"Ą":{"ha":694,"x_min":43,"x_max":608,"o":"m 131 853 l 131 897 l 521 897 l 521 853 l 564 853 l 564 810 l 608 810 l 608 -15 l 521 -15 l 521 -58 l 478 -58 l 478 -101 l 608 -101 l 608 -189 l 390 -189 l 390 -144 l 347 -144 l 347 -15 l 390 -15 l 390 28 l 478 28 l 478 375 l 174 375 l 174 28 l 43 28 l 43 810 l 86 810 l 86 853 l 131 853 m 433 767 l 433 810 l 217 810 l 217 767 l 174 767 l 174 463 l 478 463 l 478 767 l 433 767 z "},"ą":{"ha":694,"x_min":43,"x_max":608,"o":"m 86 550 l 86 636 l 521 636 l 521 593 l 564 593 l 564 550 l 608 550 l 608 -15 l 521 -15 l 521 -58 l 478 -58 l 478 -101 l 608 -101 l 608 -189 l 390 -189 l 390 -144 l 347 -144 l 347 -15 l 390 -15 l 390 28 l 131 28 l 131 72 l 86 72 l 86 115 l 43 115 l 43 332 l 86 332 l 86 375 l 131 375 l 131 419 l 478 419 l 478 506 l 433 506 l 433 550 l 86 550 m 478 115 l 478 332 l 217 332 l 217 289 l 174 289 l 174 158 l 217 158 l 217 115 l 478 115 z "},"Ć":{"ha":694,"x_min":43,"x_max":608,"o":"m 131 853 l 131 897 l 521 897 l 521 853 l 564 853 l 564 810 l 608 810 l 608 679 l 478 679 l 478 767 l 433 767 l 433 810 l 217 810 l 217 767 l 174 767 l 174 158 l 217 158 l 217 115 l 433 115 l 433 158 l 478 158 l 478 246 l 608 246 l 608 115 l 564 115 l 564 72 l 521 72 l 521 28 l 131 28 l 131 72 l 86 72 l 86 115 l 43 115 l 43 810 l 86 810 l 86 853 l 131 853 m 390 1069 l 390 1114 l 521 1114 l 521 1069 l 478 1069 l 478 1026 l 433 1026 l 433 983 l 390 983 l 390 940 l 261 940 l 261 983 l 304 983 l 304 1026 l 347 1026 l 347 1069 l 390 1069 z "},"ć":{"ha":694,"x_min":43,"x_max":608,"o":"m 131 593 l 131 636 l 521 636 l 521 593 l 564 593 l 564 550 l 608 550 l 608 463 l 478 463 l 478 506 l 433 506 l 433 550 l 217 550 l 217 506 l 174 506 l 174 158 l 217 158 l 217 115 l 433 115 l 433 158 l 478 158 l 478 203 l 608 203 l 608 115 l 564 115 l 564 72 l 521 72 l 521 28 l 131 28 l 131 72 l 86 72 l 86 115 l 43 115 l 43 550 l 86 550 l 86 593 l 131 593 m 390 853 l 390 897 l 521 897 l 521 853 l 478 853 l 478 810 l 433 810 l 433 767 l 390 767 l 390 722 l 261 722 l 261 767 l 304 767 l 304 810 l 347 810 l 347 853 l 390 853 z "},"Ĉ":{"ha":694,"x_min":43,"x_max":608,"o":"m 131 853 l 131 897 l 521 897 l 521 853 l 564 853 l 564 810 l 608 810 l 608 679 l 478 679 l 478 767 l 433 767 l 433 810 l 217 810 l 217 767 l 174 767 l 174 158 l 217 158 l 217 115 l 433 115 l 433 158 l 478 158 l 478 246 l 608 246 l 608 115 l 564 115 l 564 72 l 521 72 l 521 28 l 131 28 l 131 72 l 86 72 l 86 115 l 43 115 l 43 810 l 86 810 l 86 853 l 131 853 m 261 1069 l 261 1114 l 390 1114 l 390 1069 l 433 1069 l 433 1026 l 478 1026 l 478 983 l 521 983 l 521 940 l 390 940 l 390 983 l 347 983 l 347 1026 l 304 1026 l 304 983 l 261 983 l 261 940 l 131 940 l 131 983 l 174 983 l 174 1026 l 217 1026 l 217 1069 l 261 1069 z "},"ĉ":{"ha":694,"x_min":43,"x_max":608,"o":"m 131 593 l 131 636 l 521 636 l 521 593 l 564 593 l 564 550 l 608 550 l 608 463 l 478 463 l 478 506 l 433 506 l 433 550 l 217 550 l 217 506 l 174 506 l 174 158 l 217 158 l 217 115 l 433 115 l 433 158 l 478 158 l 478 203 l 608 203 l 608 115 l 564 115 l 564 72 l 521 72 l 521 28 l 131 28 l 131 72 l 86 72 l 86 115 l 43 115 l 43 550 l 86 550 l 86 593 l 131 593 m 261 853 l 261 897 l 390 897 l 390 853 l 433 853 l 433 810 l 478 810 l 478 767 l 521 767 l 521 722 l 390 722 l 390 767 l 347 767 l 347 810 l 304 810 l 304 767 l 261 767 l 261 722 l 131 722 l 131 767 l 174 767 l 174 810 l 217 810 l 217 853 l 261 853 z "},"Ċ":{"ha":694,"x_min":43,"x_max":608,"o":"m 131 853 l 131 897 l 521 897 l 521 853 l 564 853 l 564 810 l 608 810 l 608 679 l 478 679 l 478 767 l 433 767 l 433 810 l 217 810 l 217 767 l 174 767 l 174 158 l 217 158 l 217 115 l 433 115 l 433 158 l 478 158 l 478 246 l 608 246 l 608 115 l 564 115 l 564 72 l 521 72 l 521 28 l 131 28 l 131 72 l 86 72 l 86 115 l 43 115 l 43 810 l 86 810 l 86 853 l 131 853 m 261 940 l 261 1114 l 390 1114 l 390 940 l 261 940 z "},"ċ":{"ha":694,"x_min":43,"x_max":608,"o":"m 131 593 l 131 636 l 521 636 l 521 593 l 564 593 l 564 550 l 608 550 l 608 463 l 478 463 l 478 506 l 433 506 l 433 550 l 217 550 l 217 506 l 174 506 l 174 158 l 217 158 l 217 115 l 433 115 l 433 158 l 478 158 l 478 203 l 608 203 l 608 115 l 564 115 l 564 72 l 521 72 l 521 28 l 131 28 l 131 72 l 86 72 l 86 115 l 43 115 l 43 550 l 86 550 l 86 593 l 131 593 m 261 722 l 261 897 l 390 897 l 390 722 l 261 722 z "},"Č":{"ha":694,"x_min":43,"x_max":608,"o":"m 131 853 l 131 897 l 521 897 l 521 853 l 564 853 l 564 810 l 608 810 l 608 679 l 478 679 l 478 767 l 433 767 l 433 810 l 217 810 l 217 767 l 174 767 l 174 158 l 217 158 l 217 115 l 433 115 l 433 158 l 478 158 l 478 246 l 608 246 l 608 115 l 564 115 l 564 72 l 521 72 l 521 28 l 131 28 l 131 72 l 86 72 l 86 115 l 43 115 l 43 810 l 86 810 l 86 853 l 131 853 m 131 1069 l 131 1114 l 261 1114 l 261 1069 l 304 1069 l 304 1026 l 347 1026 l 347 1069 l 390 1069 l 390 1114 l 521 1114 l 521 1069 l 478 1069 l 478 1026 l 433 1026 l 433 983 l 390 983 l 390 940 l 261 940 l 261 983 l 217 983 l 217 1026 l 174 1026 l 174 1069 l 131 1069 z "},"č":{"ha":694,"x_min":43,"x_max":608,"o":"m 131 593 l 131 636 l 521 636 l 521 593 l 564 593 l 564 550 l 608 550 l 608 463 l 478 463 l 478 506 l 433 506 l 433 550 l 217 550 l 217 506 l 174 506 l 174 158 l 217 158 l 217 115 l 433 115 l 433 158 l 478 158 l 478 203 l 608 203 l 608 115 l 564 115 l 564 72 l 521 72 l 521 28 l 131 28 l 131 72 l 86 72 l 86 115 l 43 115 l 43 550 l 86 550 l 86 593 l 131 593 m 131 853 l 131 897 l 261 897 l 261 853 l 304 853 l 304 810 l 347 810 l 347 853 l 390 853 l 390 897 l 521 897 l 521 853 l 478 853 l 478 810 l 433 810 l 433 767 l 390 767 l 390 722 l 261 722 l 261 767 l 217 767 l 217 810 l 174 810 l 174 853 l 131 853 z "},"Ď":{"ha":694,"x_min":43,"x_max":608,"o":"m 43 28 l 43 897 l 433 897 l 433 853 l 521 853 l 521 810 l 564 810 l 564 722 l 608 722 l 608 203 l 564 203 l 564 115 l 521 115 l 521 72 l 433 72 l 433 28 l 43 28 m 390 767 l 390 810 l 174 810 l 174 115 l 390 115 l 390 158 l 433 158 l 433 203 l 478 203 l 478 722 l 433 722 l 433 767 l 390 767 m 131 1069 l 131 1114 l 261 1114 l 261 1069 l 304 1069 l 304 1026 l 347 1026 l 347 1069 l 390 1069 l 390 1114 l 521 1114 l 521 1069 l 478 1069 l 478 1026 l 433 1026 l 433 983 l 390 983 l 390 940 l 261 940 l 261 983 l 217 983 l 217 1026 l 174 1026 l 174 1069 l 131 1069 z "},"ď":{"ha":694,"x_min":43,"x_max":608,"o":"m 478 636 l 478 897 l 608 897 l 608 28 l 131 28 l 131 72 l 86 72 l 86 115 l 43 115 l 43 550 l 86 550 l 86 593 l 131 593 l 131 636 l 478 636 m 478 115 l 478 550 l 217 550 l 217 506 l 174 506 l 174 158 l 217 158 l 217 115 l 478 115 m 131 1069 l 131 1114 l 261 1114 l 261 1069 l 304 1069 l 304 1026 l 347 1026 l 347 1069 l 390 1069 l 390 1114 l 521 1114 l 521 1069 l 478 1069 l 478 1026 l 433 1026 l 433 983 l 390 983 l 390 940 l 261 940 l 261 983 l 217 983 l 217 1026 l 174 1026 l 174 1069 l 131 1069 z "},"Đ":{"ha":694,"x_min":0,"x_max":608,"o":"m 43 506 l 43 897 l 433 897 l 433 853 l 521 853 l 521 810 l 564 810 l 564 722 l 608 722 l 608 203 l 564 203 l 564 115 l 521 115 l 521 72 l 433 72 l 433 28 l 43 28 l 43 419 l 0 419 l 0 506 l 43 506 m 390 767 l 390 810 l 174 810 l 174 506 l 390 506 l 390 419 l 174 419 l 174 115 l 390 115 l 390 158 l 433 158 l 433 203 l 478 203 l 478 722 l 433 722 l 433 767 l 390 767 z "},"đ":{"ha":694,"x_min":43,"x_max":694,"o":"m 478 810 l 478 897 l 608 897 l 608 810 l 694 810 l 694 722 l 608 722 l 608 28 l 131 28 l 131 72 l 86 72 l 86 115 l 43 115 l 43 550 l 86 550 l 86 593 l 131 593 l 131 636 l 478 636 l 478 722 l 261 722 l 261 810 l 478 810 m 478 115 l 478 550 l 217 550 l 217 506 l 174 506 l 174 158 l 217 158 l 217 115 l 478 115 z "},"Ē":{"ha":694,"x_min":43,"x_max":608,"o":"m 43 28 l 43 897 l 608 897 l 608 810 l 174 810 l 174 506 l 478 506 l 478 419 l 174 419 l 174 115 l 608 115 l 608 28 l 43 28 m 131 983 l 131 1069 l 521 1069 l 521 983 l 131 983 z "},"ē":{"ha":694,"x_min":43,"x_max":608,"o":"m 131 593 l 131 636 l 521 636 l 521 593 l 564 593 l 564 550 l 608 550 l 608 289 l 174 289 l 174 158 l 217 158 l 217 115 l 478 115 l 478 158 l 608 158 l 608 72 l 564 72 l 564 28 l 131 28 l 131 72 l 86 72 l 86 115 l 43 115 l 43 550 l 86 550 l 86 593 l 131 593 m 433 506 l 433 550 l 217 550 l 217 506 l 174 506 l 174 375 l 478 375 l 478 506 l 433 506 m 131 722 l 131 810 l 521 810 l 521 722 l 131 722 z "},"Ĕ":{"ha":694,"x_min":43,"x_max":608,"o":"m 43 28 l 43 897 l 608 897 l 608 810 l 174 810 l 174 506 l 478 506 l 478 419 l 174 419 l 174 115 l 608 115 l 608 28 l 43 28 m 131 1026 l 131 1114 l 261 1114 l 261 1026 l 390 1026 l 390 1114 l 521 1114 l 521 1026 l 478 1026 l 478 983 l 433 983 l 433 940 l 217 940 l 217 983 l 174 983 l 174 1026 l 131 1026 z "},"ĕ":{"ha":694,"x_min":43,"x_max":608,"o":"m 131 593 l 131 636 l 521 636 l 521 593 l 564 593 l 564 550 l 608 550 l 608 289 l 174 289 l 174 158 l 217 158 l 217 115 l 478 115 l 478 158 l 608 158 l 608 72 l 564 72 l 564 28 l 131 28 l 131 72 l 86 72 l 86 115 l 43 115 l 43 550 l 86 550 l 86 593 l 131 593 m 433 506 l 433 550 l 217 550 l 217 506 l 174 506 l 174 375 l 478 375 l 478 506 l 433 506 m 131 810 l 131 897 l 261 897 l 261 810 l 390 810 l 390 897 l 521 897 l 521 810 l 478 810 l 478 767 l 433 767 l 433 722 l 217 722 l 217 767 l 174 767 l 174 810 l 131 810 z "},"Ė":{"ha":694,"x_min":43,"x_max":608,"o":"m 43 28 l 43 897 l 608 897 l 608 810 l 174 810 l 174 506 l 478 506 l 478 419 l 174 419 l 174 115 l 608 115 l 608 28 l 43 28 m 261 940 l 261 1114 l 390 1114 l 390 940 l 261 940 z "},"ė":{"ha":694,"x_min":43,"x_max":608,"o":"m 131 593 l 131 636 l 521 636 l 521 593 l 564 593 l 564 550 l 608 550 l 608 289 l 174 289 l 174 158 l 217 158 l 217 115 l 478 115 l 478 158 l 608 158 l 608 72 l 564 72 l 564 28 l 131 28 l 131 72 l 86 72 l 86 115 l 43 115 l 43 550 l 86 550 l 86 593 l 131 593 m 433 506 l 433 550 l 217 550 l 217 506 l 174 506 l 174 375 l 478 375 l 478 506 l 433 506 m 261 722 l 261 897 l 390 897 l 390 722 l 261 722 z "},"Ę":{"ha":694,"x_min":43,"x_max":608,"o":"m 43 28 l 43 897 l 608 897 l 608 810 l 174 810 l 174 506 l 478 506 l 478 419 l 174 419 l 174 115 l 608 115 l 608 -15 l 521 -15 l 521 -58 l 478 -58 l 478 -101 l 608 -101 l 608 -189 l 390 -189 l 390 -144 l 347 -144 l 347 -15 l 390 -15 l 390 28 l 43 28 z "},"ę":{"ha":694,"x_min":43,"x_max":608,"o":"m 131 593 l 131 636 l 521 636 l 521 593 l 564 593 l 564 550 l 608 550 l 608 289 l 174 289 l 174 158 l 217 158 l 217 115 l 478 115 l 478 158 l 608 158 l 608 72 l 564 72 l 564 28 l 433 28 l 433 -15 l 390 -15 l 390 -58 l 347 -58 l 347 -101 l 478 -101 l 478 -189 l 261 -189 l 261 -144 l 217 -144 l 217 -15 l 261 -15 l 261 28 l 131 28 l 131 72 l 86 72 l 86 115 l 43 115 l 43 550 l 86 550 l 86 593 l 131 593 m 433 506 l 433 550 l 217 550 l 217 506 l 174 506 l 174 375 l 478 375 l 478 506 l 433 506 z "},"Ě":{"ha":694,"x_min":43,"x_max":608,"o":"m 43 28 l 43 897 l 608 897 l 608 810 l 174 810 l 174 506 l 478 506 l 478 419 l 174 419 l 174 115 l 608 115 l 608 28 l 43 28 m 131 1069 l 131 1114 l 261 1114 l 261 1069 l 304 1069 l 304 1026 l 347 1026 l 347 1069 l 390 1069 l 390 1114 l 521 1114 l 521 1069 l 478 1069 l 478 1026 l 433 1026 l 433 983 l 390 983 l 390 940 l 261 940 l 261 983 l 217 983 l 217 1026 l 174 1026 l 174 1069 l 131 1069 z "},"ě":{"ha":694,"x_min":43,"x_max":608,"o":"m 131 593 l 131 636 l 521 636 l 521 593 l 564 593 l 564 550 l 608 550 l 608 289 l 174 289 l 174 158 l 217 158 l 217 115 l 478 115 l 478 158 l 608 158 l 608 72 l 564 72 l 564 28 l 131 28 l 131 72 l 86 72 l 86 115 l 43 115 l 43 550 l 86 550 l 86 593 l 131 593 m 433 506 l 433 550 l 217 550 l 217 506 l 174 506 l 174 375 l 478 375 l 478 506 l 433 506 m 131 853 l 131 897 l 261 897 l 261 853 l 304 853 l 304 810 l 347 810 l 347 853 l 390 853 l 390 897 l 521 897 l 521 853 l 478 853 l 478 810 l 433 810 l 433 767 l 390 767 l 390 722 l 261 722 l 261 767 l 217 767 l 217 810 l 174 810 l 174 853 l 131 853 z "},"Ĝ":{"ha":694,"x_min":43,"x_max":608,"o":"m 131 853 l 131 897 l 521 897 l 521 853 l 564 853 l 564 810 l 608 810 l 608 679 l 478 679 l 478 767 l 433 767 l 433 810 l 217 810 l 217 767 l 174 767 l 174 158 l 217 158 l 217 115 l 433 115 l 433 158 l 478 158 l 478 419 l 304 419 l 304 506 l 608 506 l 608 115 l 564 115 l 564 72 l 521 72 l 521 28 l 131 28 l 131 72 l 86 72 l 86 115 l 43 115 l 43 810 l 86 810 l 86 853 l 131 853 m 261 1069 l 261 1114 l 390 1114 l 390 1069 l 433 1069 l 433 1026 l 478 1026 l 478 983 l 521 983 l 521 940 l 390 940 l 390 983 l 347 983 l 347 1026 l 304 1026 l 304 983 l 261 983 l 261 940 l 131 940 l 131 983 l 174 983 l 174 1026 l 217 1026 l 217 1069 l 261 1069 z "},"ĝ":{"ha":694,"x_min":43,"x_max":608,"o":"m 131 593 l 131 636 l 608 636 l 608 -101 l 564 -101 l 564 -144 l 521 -144 l 521 -189 l 86 -189 l 86 -101 l 433 -101 l 433 -58 l 478 -58 l 478 28 l 131 28 l 131 72 l 86 72 l 86 115 l 43 115 l 43 550 l 86 550 l 86 593 l 131 593 m 478 115 l 478 550 l 217 550 l 217 506 l 174 506 l 174 158 l 217 158 l 217 115 l 478 115 m 261 853 l 261 897 l 390 897 l 390 853 l 433 853 l 433 810 l 478 810 l 478 767 l 521 767 l 521 722 l 390 722 l 390 767 l 347 767 l 347 810 l 304 810 l 304 767 l 261 767 l 261 722 l 131 722 l 131 767 l 174 767 l 174 810 l 217 810 l 217 853 l 261 853 z "},"Ğ":{"ha":694,"x_min":43,"x_max":608,"o":"m 131 853 l 131 897 l 521 897 l 521 853 l 564 853 l 564 810 l 608 810 l 608 679 l 478 679 l 478 767 l 433 767 l 433 810 l 217 810 l 217 767 l 174 767 l 174 158 l 217 158 l 217 115 l 433 115 l 433 158 l 478 158 l 478 419 l 304 419 l 304 506 l 608 506 l 608 115 l 564 115 l 564 72 l 521 72 l 521 28 l 131 28 l 131 72 l 86 72 l 86 115 l 43 115 l 43 810 l 86 810 l 86 853 l 131 853 m 131 1026 l 131 1114 l 261 1114 l 261 1026 l 390 1026 l 390 1114 l 521 1114 l 521 1026 l 478 1026 l 478 983 l 433 983 l 433 940 l 217 940 l 217 983 l 174 983 l 174 1026 l 131 1026 z "},"ğ":{"ha":694,"x_min":43,"x_max":608,"o":"m 131 593 l 131 636 l 608 636 l 608 -101 l 564 -101 l 564 -144 l 521 -144 l 521 -189 l 86 -189 l 86 -101 l 433 -101 l 433 -58 l 478 -58 l 478 28 l 131 28 l 131 72 l 86 72 l 86 115 l 43 115 l 43 550 l 86 550 l 86 593 l 131 593 m 478 115 l 478 550 l 217 550 l 217 506 l 174 506 l 174 158 l 217 158 l 217 115 l 478 115 m 131 810 l 131 897 l 261 897 l 261 810 l 390 810 l 390 897 l 521 897 l 521 810 l 478 810 l 478 767 l 433 767 l 433 722 l 217 722 l 217 767 l 174 767 l 174 810 l 131 810 z "},"Ġ":{"ha":694,"x_min":43,"x_max":608,"o":"m 131 853 l 131 897 l 521 897 l 521 853 l 564 853 l 564 810 l 608 810 l 608 679 l 478 679 l 478 767 l 433 767 l 433 810 l 217 810 l 217 767 l 174 767 l 174 158 l 217 158 l 217 115 l 433 115 l 433 158 l 478 158 l 478 419 l 304 419 l 304 506 l 608 506 l 608 115 l 564 115 l 564 72 l 521 72 l 521 28 l 131 28 l 131 72 l 86 72 l 86 115 l 43 115 l 43 810 l 86 810 l 86 853 l 131 853 m 261 940 l 261 1114 l 390 1114 l 390 940 l 261 940 z "},"ġ":{"ha":694,"x_min":43,"x_max":608,"o":"m 131 593 l 131 636 l 608 636 l 608 -101 l 564 -101 l 564 -144 l 521 -144 l 521 -189 l 86 -189 l 86 -101 l 433 -101 l 433 -58 l 478 -58 l 478 28 l 131 28 l 131 72 l 86 72 l 86 115 l 43 115 l 43 550 l 86 550 l 86 593 l 131 593 m 478 115 l 478 550 l 217 550 l 217 506 l 174 506 l 174 158 l 217 158 l 217 115 l 478 115 m 304 722 l 304 897 l 433 897 l 433 722 l 304 722 z "},"Ģ":{"ha":694,"x_min":43,"x_max":608,"o":"m 261 -144 l 261 -15 l 390 -15 l 390 -144 l 347 -144 l 347 -189 l 304 -189 l 304 -232 l 174 -232 l 174 -189 l 217 -189 l 217 -144 l 261 -144 m 131 853 l 131 897 l 521 897 l 521 853 l 564 853 l 564 810 l 608 810 l 608 679 l 478 679 l 478 767 l 433 767 l 433 810 l 217 810 l 217 767 l 174 767 l 174 158 l 217 158 l 217 115 l 433 115 l 433 158 l 478 158 l 478 419 l 304 419 l 304 506 l 608 506 l 608 115 l 564 115 l 564 72 l 521 72 l 521 28 l 131 28 l 131 72 l 86 72 l 86 115 l 43 115 l 43 810 l 86 810 l 86 853 l 131 853 z "},"ģ":{"ha":694,"x_min":43,"x_max":608,"o":"m 131 593 l 131 636 l 608 636 l 608 -101 l 564 -101 l 564 -144 l 521 -144 l 521 -189 l 86 -189 l 86 -101 l 433 -101 l 433 -58 l 478 -58 l 478 28 l 131 28 l 131 72 l 86 72 l 86 115 l 43 115 l 43 550 l 86 550 l 86 593 l 131 593 m 478 115 l 478 550 l 217 550 l 217 506 l 174 506 l 174 158 l 217 158 l 217 115 l 478 115 m 390 853 l 390 897 l 521 897 l 521 853 l 478 853 l 478 810 l 433 810 l 433 679 l 304 679 l 304 810 l 347 810 l 347 853 l 390 853 z "},"Ĥ":{"ha":694,"x_min":43,"x_max":608,"o":"m 43 28 l 43 897 l 174 897 l 174 506 l 478 506 l 478 897 l 608 897 l 608 28 l 478 28 l 478 419 l 174 419 l 174 28 l 43 28 m 261 1069 l 261 1114 l 390 1114 l 390 1069 l 433 1069 l 433 1026 l 478 1026 l 478 983 l 521 983 l 521 940 l 390 940 l 390 983 l 347 983 l 347 1026 l 304 1026 l 304 983 l 261 983 l 261 940 l 131 940 l 131 983 l 174 983 l 174 1026 l 217 1026 l 217 1069 l 261 1069 z "},"ĥ":{"ha":694,"x_min":43,"x_max":608,"o":"m 43 28 l 43 897 l 174 897 l 174 636 l 521 636 l 521 593 l 564 593 l 564 550 l 608 550 l 608 28 l 478 28 l 478 506 l 433 506 l 433 550 l 174 550 l 174 28 l 43 28 m 261 1069 l 261 1114 l 390 1114 l 390 1069 l 433 1069 l 433 1026 l 478 1026 l 478 983 l 521 983 l 521 940 l 390 940 l 390 983 l 347 983 l 347 1026 l 304 1026 l 304 983 l 261 983 l 261 940 l 131 940 l 131 983 l 174 983 l 174 1026 l 217 1026 l 217 1069 l 261 1069 z "},"Ħ":{"ha":694,"x_min":0,"x_max":651,"o":"m 43 767 l 43 897 l 174 897 l 174 767 l 478 767 l 478 897 l 608 897 l 608 767 l 651 767 l 651 679 l 608 679 l 608 28 l 478 28 l 478 419 l 174 419 l 174 28 l 43 28 l 43 679 l 0 679 l 0 767 l 43 767 m 478 506 l 478 679 l 174 679 l 174 506 l 478 506 z "},"ħ":{"ha":694,"x_min":0,"x_max":651,"o":"m 86 810 l 86 897 l 217 897 l 217 810 l 433 810 l 433 722 l 217 722 l 217 636 l 564 636 l 564 593 l 608 593 l 608 550 l 651 550 l 651 28 l 521 28 l 521 506 l 478 506 l 478 550 l 217 550 l 217 28 l 86 28 l 86 722 l 0 722 l 0 810 l 86 810 z "},"Ĩ":{"ha":694,"x_min":86,"x_max":564,"o":"m 174 810 l 174 897 l 478 897 l 478 810 l 390 810 l 390 115 l 478 115 l 478 28 l 174 28 l 174 115 l 261 115 l 261 810 l 174 810 m 131 1069 l 131 1114 l 347 1114 l 347 1069 l 390 1069 l 390 983 l 433 983 l 433 1114 l 564 1114 l 564 983 l 521 983 l 521 940 l 304 940 l 304 983 l 261 983 l 261 1069 l 217 1069 l 217 940 l 86 940 l 86 1069 l 131 1069 z "},"ĩ":{"ha":694,"x_min":86,"x_max":564,"o":"m 174 550 l 174 636 l 390 636 l 390 115 l 478 115 l 478 28 l 174 28 l 174 115 l 261 115 l 261 550 l 174 550 m 131 853 l 131 897 l 347 897 l 347 853 l 390 853 l 390 767 l 433 767 l 433 897 l 564 897 l 564 767 l 521 767 l 521 722 l 304 722 l 304 767 l 261 767 l 261 853 l 217 853 l 217 722 l 86 722 l 86 853 l 131 853 z "},"Ī":{"ha":694,"x_min":131,"x_max":521,"o":"m 174 810 l 174 897 l 478 897 l 478 810 l 390 810 l 390 115 l 478 115 l 478 28 l 174 28 l 174 115 l 261 115 l 261 810 l 174 810 m 131 983 l 131 1069 l 521 1069 l 521 983 l 131 983 z "},"ī":{"ha":694,"x_min":131,"x_max":521,"o":"m 174 550 l 174 636 l 390 636 l 390 115 l 478 115 l 478 28 l 174 28 l 174 115 l 261 115 l 261 550 l 174 550 m 131 722 l 131 810 l 521 810 l 521 722 l 131 722 z "},"Ĭ":{"ha":694,"x_min":131,"x_max":521,"o":"m 174 810 l 174 897 l 478 897 l 478 810 l 390 810 l 390 115 l 478 115 l 478 28 l 174 28 l 174 115 l 261 115 l 261 810 l 174 810 m 131 1026 l 131 1114 l 261 1114 l 261 1026 l 390 1026 l 390 1114 l 521 1114 l 521 1026 l 478 1026 l 478 983 l 433 983 l 433 940 l 217 940 l 217 983 l 174 983 l 174 1026 l 131 1026 z "},"ĭ":{"ha":694,"x_min":131,"x_max":521,"o":"m 174 550 l 174 636 l 390 636 l 390 115 l 478 115 l 478 28 l 174 28 l 174 115 l 261 115 l 261 550 l 174 550 m 131 810 l 131 897 l 261 897 l 261 810 l 390 810 l 390 897 l 521 897 l 521 810 l 478 810 l 478 767 l 433 767 l 433 722 l 217 722 l 217 767 l 174 767 l 174 810 l 131 810 z "},"Į":{"ha":694,"x_min":174,"x_max":478,"o":"m 174 810 l 174 897 l 478 897 l 478 810 l 390 810 l 390 115 l 478 115 l 478 28 l 390 28 l 390 -58 l 347 -58 l 347 -101 l 478 -101 l 478 -189 l 261 -189 l 261 -144 l 217 -144 l 217 -15 l 261 -15 l 261 28 l 174 28 l 174 115 l 261 115 l 261 810 l 174 810 z "},"į":{"ha":694,"x_min":174,"x_max":478,"o":"m 174 550 l 174 636 l 390 636 l 390 115 l 478 115 l 478 28 l 390 28 l 390 -58 l 347 -58 l 347 -101 l 478 -101 l 478 -189 l 261 -189 l 261 -144 l 217 -144 l 217 -15 l 261 -15 l 261 28 l 174 28 l 174 115 l 261 115 l 261 550 l 174 550 m 261 722 l 261 897 l 390 897 l 390 722 l 261 722 z "},"İ":{"ha":694,"x_min":174,"x_max":478,"o":"m 174 810 l 174 897 l 478 897 l 478 810 l 390 810 l 390 115 l 478 115 l 478 28 l 174 28 l 174 115 l 261 115 l 261 810 l 174 810 m 261 940 l 261 1114 l 390 1114 l 390 940 l 261 940 z "},"ı":{"ha":694,"x_min":174,"x_max":478,"o":"m 174 550 l 174 636 l 390 636 l 390 115 l 478 115 l 478 28 l 174 28 l 174 115 l 261 115 l 261 550 l 174 550 z "},"Ĳ":{"ha":694,"x_min":0,"x_max":694,"o":"m 478 810 l 478 897 l 694 897 l 694 810 l 651 810 l 651 115 l 608 115 l 608 72 l 564 72 l 564 28 l 347 28 l 347 72 l 304 72 l 304 115 l 261 115 l 261 289 l 390 289 l 390 158 l 433 158 l 433 115 l 478 115 l 478 158 l 521 158 l 521 810 l 478 810 m 0 810 l 0 897 l 217 897 l 217 810 l 174 810 l 174 115 l 217 115 l 217 28 l 0 28 l 0 115 l 43 115 l 43 810 l 0 810 z "},"ĳ":{"ha":694,"x_min":0,"x_max":651,"o":"m 433 550 l 433 636 l 651 636 l 651 -101 l 608 -101 l 608 -144 l 564 -144 l 564 -189 l 347 -189 l 347 -144 l 304 -144 l 304 -101 l 261 -101 l 261 28 l 390 28 l 390 -58 l 433 -58 l 433 -101 l 478 -101 l 478 -58 l 521 -58 l 521 550 l 433 550 m 0 550 l 0 636 l 174 636 l 174 115 l 217 115 l 217 28 l 0 28 l 0 115 l 43 115 l 43 550 l 0 550 m 521 722 l 521 897 l 651 897 l 651 722 l 521 722 m 43 722 l 43 897 l 174 897 l 174 722 l 43 722 z "},"Ĵ":{"ha":694,"x_min":43,"x_max":694,"o":"m 347 810 l 347 897 l 651 897 l 651 810 l 564 810 l 564 115 l 521 115 l 521 72 l 478 72 l 478 28 l 131 28 l 131 72 l 86 72 l 86 115 l 43 115 l 43 289 l 174 289 l 174 158 l 217 158 l 217 115 l 390 115 l 390 158 l 433 158 l 433 810 l 347 810 m 433 1069 l 433 1114 l 564 1114 l 564 1069 l 608 1069 l 608 1026 l 651 1026 l 651 983 l 694 983 l 694 940 l 564 940 l 564 983 l 521 983 l 521 1026 l 478 1026 l 478 983 l 433 983 l 433 940 l 304 940 l 304 983 l 347 983 l 347 1026 l 390 1026 l 390 1069 l 433 1069 z "},"ĵ":{"ha":694,"x_min":86,"x_max":694,"o":"m 347 550 l 347 636 l 564 636 l 564 -101 l 521 -101 l 521 -144 l 478 -144 l 478 -189 l 174 -189 l 174 -144 l 131 -144 l 131 -101 l 86 -101 l 86 28 l 217 28 l 217 -58 l 261 -58 l 261 -101 l 390 -101 l 390 -58 l 433 -58 l 433 550 l 347 550 m 433 853 l 433 897 l 564 897 l 564 853 l 608 853 l 608 810 l 651 810 l 651 767 l 694 767 l 694 722 l 564 722 l 564 767 l 521 767 l 521 810 l 478 810 l 478 767 l 433 767 l 433 722 l 304 722 l 304 767 l 347 767 l 347 810 l 390 810 l 390 853 l 433 853 z "},"Ķ":{"ha":694,"x_min":43,"x_max":608,"o":"m 261 -144 l 261 -15 l 390 -15 l 390 -144 l 347 -144 l 347 -189 l 304 -189 l 304 -232 l 174 -232 l 174 -189 l 217 -189 l 217 -144 l 261 -144 m 43 28 l 43 897 l 174 897 l 174 550 l 217 550 l 217 593 l 261 593 l 261 636 l 304 636 l 304 679 l 347 679 l 347 722 l 390 722 l 390 767 l 433 767 l 433 810 l 478 810 l 478 853 l 521 853 l 521 897 l 608 897 l 608 810 l 564 810 l 564 767 l 521 767 l 521 722 l 478 722 l 478 679 l 433 679 l 433 636 l 390 636 l 390 593 l 347 593 l 347 550 l 304 550 l 304 506 l 261 506 l 261 419 l 304 419 l 304 375 l 347 375 l 347 332 l 390 332 l 390 289 l 433 289 l 433 246 l 478 246 l 478 203 l 521 203 l 521 158 l 564 158 l 564 115 l 608 115 l 608 28 l 521 28 l 521 72 l 478 72 l 478 115 l 433 115 l 433 158 l 390 158 l 390 203 l 347 203 l 347 246 l 304 246 l 304 289 l 261 289 l 261 332 l 217 332 l 217 375 l 174 375 l 174 28 l 43 28 z "},"ķ":{"ha":694,"x_min":86,"x_max":608,"o":"m 261 -144 l 261 -15 l 390 -15 l 390 -144 l 347 -144 l 347 -189 l 304 -189 l 304 -232 l 174 -232 l 174 -189 l 217 -189 l 217 -144 l 261 -144 m 86 28 l 86 897 l 217 897 l 217 375 l 261 375 l 261 419 l 304 419 l 304 463 l 347 463 l 347 506 l 390 506 l 390 550 l 433 550 l 433 593 l 478 593 l 478 636 l 608 636 l 608 593 l 564 593 l 564 550 l 521 550 l 521 506 l 478 506 l 478 463 l 433 463 l 433 419 l 390 419 l 390 375 l 347 375 l 347 289 l 390 289 l 390 246 l 433 246 l 433 203 l 478 203 l 478 158 l 521 158 l 521 115 l 564 115 l 564 72 l 608 72 l 608 28 l 478 28 l 478 72 l 433 72 l 433 115 l 390 115 l 390 158 l 347 158 l 347 203 l 304 203 l 304 246 l 261 246 l 261 289 l 217 289 l 217 28 l 86 28 z "},"ĸ":{"ha":694,"x_min":86,"x_max":608,"o":"m 86 28 l 86 636 l 217 636 l 217 375 l 261 375 l 261 419 l 304 419 l 304 463 l 347 463 l 347 506 l 390 506 l 390 550 l 433 550 l 433 593 l 478 593 l 478 636 l 608 636 l 608 593 l 564 593 l 564 550 l 521 550 l 521 506 l 478 506 l 478 463 l 433 463 l 433 419 l 390 419 l 390 375 l 347 375 l 347 289 l 390 289 l 390 246 l 433 246 l 433 203 l 478 203 l 478 158 l 521 158 l 521 115 l 564 115 l 564 72 l 608 72 l 608 28 l 478 28 l 478 72 l 433 72 l 433 115 l 390 115 l 390 158 l 347 158 l 347 203 l 304 203 l 304 246 l 261 246 l 261 289 l 217 289 l 217 28 l 86 28 z "},"Ĺ":{"ha":694,"x_min":43,"x_max":608,"o":"m 43 28 l 43 897 l 174 897 l 174 115 l 608 115 l 608 28 l 43 28 m 174 1069 l 174 1114 l 304 1114 l 304 1069 l 261 1069 l 261 1026 l 217 1026 l 217 983 l 174 983 l 174 940 l 43 940 l 43 983 l 86 983 l 86 1026 l 131 1026 l 131 1069 l 174 1069 z "},"ĺ":{"ha":694,"x_min":174,"x_max":521,"o":"m 174 810 l 174 897 l 390 897 l 390 115 l 478 115 l 478 28 l 174 28 l 174 115 l 261 115 l 261 810 l 174 810 m 390 1069 l 390 1114 l 521 1114 l 521 1069 l 478 1069 l 478 1026 l 433 1026 l 433 983 l 390 983 l 390 940 l 261 940 l 261 983 l 304 983 l 304 1026 l 347 1026 l 347 1069 l 390 1069 z "},"Ļ":{"ha":694,"x_min":43,"x_max":608,"o":"m 261 -144 l 261 -15 l 390 -15 l 390 -144 l 347 -144 l 347 -189 l 304 -189 l 304 -232 l 174 -232 l 174 -189 l 217 -189 l 217 -144 l 261 -144 m 43 28 l 43 897 l 174 897 l 174 115 l 608 115 l 608 28 l 43 28 z "},"ļ":{"ha":694,"x_min":174,"x_max":478,"o":"m 261 -144 l 261 -15 l 390 -15 l 390 -144 l 347 -144 l 347 -189 l 304 -189 l 304 -232 l 174 -232 l 174 -189 l 217 -189 l 217 -144 l 261 -144 m 174 810 l 174 897 l 390 897 l 390 115 l 478 115 l 478 28 l 174 28 l 174 115 l 261 115 l 261 810 l 174 810 z "},"Ľ":{"ha":694,"x_min":43,"x_max":608,"o":"m 43 28 l 43 897 l 174 897 l 174 115 l 608 115 l 608 28 l 43 28 m 131 1069 l 131 1114 l 261 1114 l 261 1069 l 304 1069 l 304 1026 l 347 1026 l 347 1069 l 390 1069 l 390 1114 l 521 1114 l 521 1069 l 478 1069 l 478 1026 l 433 1026 l 433 983 l 390 983 l 390 940 l 261 940 l 261 983 l 217 983 l 217 1026 l 174 1026 l 174 1069 l 131 1069 z "},"ľ":{"ha":694,"x_min":131,"x_max":521,"o":"m 174 810 l 174 897 l 390 897 l 390 115 l 478 115 l 478 28 l 174 28 l 174 115 l 261 115 l 261 810 l 174 810 m 131 1069 l 131 1114 l 261 1114 l 261 1069 l 304 1069 l 304 1026 l 347 1026 l 347 1069 l 390 1069 l 390 1114 l 521 1114 l 521 1069 l 478 1069 l 478 1026 l 433 1026 l 433 983 l 390 983 l 390 940 l 261 940 l 261 983 l 217 983 l 217 1026 l 174 1026 l 174 1069 l 131 1069 z "},"Ŀ":{"ha":694,"x_min":43,"x_max":608,"o":"m 390 375 l 390 550 l 521 550 l 521 375 l 390 375 m 43 28 l 43 897 l 174 897 l 174 115 l 608 115 l 608 28 l 43 28 z "},"ŀ":{"ha":694,"x_min":174,"x_max":694,"o":"m 564 375 l 564 550 l 694 550 l 694 375 l 564 375 m 174 810 l 174 897 l 390 897 l 390 115 l 478 115 l 478 28 l 174 28 l 174 115 l 261 115 l 261 810 l 174 810 z "},"Ł":{"ha":694,"x_min":0,"x_max":651,"o":"m 86 419 l 86 897 l 217 897 l 217 550 l 261 550 l 261 593 l 390 593 l 390 550 l 347 550 l 347 506 l 304 506 l 304 463 l 261 463 l 261 419 l 217 419 l 217 115 l 651 115 l 651 28 l 86 28 l 86 332 l 0 332 l 0 375 l 43 375 l 43 419 l 86 419 z "},"ł":{"ha":694,"x_min":131,"x_max":521,"o":"m 174 810 l 174 897 l 390 897 l 390 593 l 521 593 l 521 550 l 478 550 l 478 506 l 433 506 l 433 463 l 390 463 l 390 115 l 478 115 l 478 28 l 174 28 l 174 115 l 261 115 l 261 332 l 131 332 l 131 375 l 174 375 l 174 419 l 217 419 l 217 463 l 261 463 l 261 810 l 174 810 z "},"Ń":{"ha":694,"x_min":43,"x_max":608,"o":"m 43 28 l 43 897 l 174 897 l 174 679 l 217 679 l 217 636 l 261 636 l 261 593 l 304 593 l 304 550 l 347 550 l 347 506 l 390 506 l 390 463 l 433 463 l 433 419 l 478 419 l 478 897 l 608 897 l 608 28 l 478 28 l 478 289 l 433 289 l 433 332 l 390 332 l 390 375 l 347 375 l 347 419 l 304 419 l 304 463 l 261 463 l 261 506 l 217 506 l 217 550 l 174 550 l 174 28 l 43 28 m 390 1069 l 390 1114 l 521 1114 l 521 1069 l 478 1069 l 478 1026 l 433 1026 l 433 983 l 390 983 l 390 940 l 261 940 l 261 983 l 304 983 l 304 1026 l 347 1026 l 347 1069 l 390 1069 z "},"ń":{"ha":694,"x_min":43,"x_max":608,"o":"m 43 28 l 43 636 l 521 636 l 521 593 l 564 593 l 564 550 l 608 550 l 608 28 l 478 28 l 478 506 l 433 506 l 433 550 l 174 550 l 174 28 l 43 28 m 390 853 l 390 897 l 521 897 l 521 853 l 478 853 l 478 810 l 433 810 l 433 767 l 390 767 l 390 722 l 261 722 l 261 767 l 304 767 l 304 810 l 347 810 l 347 853 l 390 853 z "},"Ņ":{"ha":694,"x_min":43,"x_max":608,"o":"m 261 -144 l 261 -15 l 390 -15 l 390 -144 l 347 -144 l 347 -189 l 304 -189 l 304 -232 l 174 -232 l 174 -189 l 217 -189 l 217 -144 l 261 -144 m 43 28 l 43 897 l 174 897 l 174 679 l 217 679 l 217 636 l 261 636 l 261 593 l 304 593 l 304 550 l 347 550 l 347 506 l 390 506 l 390 463 l 433 463 l 433 419 l 478 419 l 478 897 l 608 897 l 608 28 l 478 28 l 478 289 l 433 289 l 433 332 l 390 332 l 390 375 l 347 375 l 347 419 l 304 419 l 304 463 l 261 463 l 261 506 l 217 506 l 217 550 l 174 550 l 174 28 l 43 28 z "},"ņ":{"ha":694,"x_min":43,"x_max":608,"o":"m 261 -144 l 261 -15 l 390 -15 l 390 -144 l 347 -144 l 347 -189 l 304 -189 l 304 -232 l 174 -232 l 174 -189 l 217 -189 l 217 -144 l 261 -144 m 43 28 l 43 636 l 521 636 l 521 593 l 564 593 l 564 550 l 608 550 l 608 28 l 478 28 l 478 506 l 433 506 l 433 550 l 174 550 l 174 28 l 43 28 z "},"Ň":{"ha":694,"x_min":43,"x_max":608,"o":"m 43 28 l 43 897 l 174 897 l 174 679 l 217 679 l 217 636 l 261 636 l 261 593 l 304 593 l 304 550 l 347 550 l 347 506 l 390 506 l 390 463 l 433 463 l 433 419 l 478 419 l 478 897 l 608 897 l 608 28 l 478 28 l 478 289 l 433 289 l 433 332 l 390 332 l 390 375 l 347 375 l 347 419 l 304 419 l 304 463 l 261 463 l 261 506 l 217 506 l 217 550 l 174 550 l 174 28 l 43 28 m 131 1069 l 131 1114 l 261 1114 l 261 1069 l 304 1069 l 304 1026 l 347 1026 l 347 1069 l 390 1069 l 390 1114 l 521 1114 l 521 1069 l 478 1069 l 478 1026 l 433 1026 l 433 983 l 390 983 l 390 940 l 261 940 l 261 983 l 217 983 l 217 1026 l 174 1026 l 174 1069 l 131 1069 z "},"ň":{"ha":694,"x_min":43,"x_max":608,"o":"m 43 28 l 43 636 l 521 636 l 521 593 l 564 593 l 564 550 l 608 550 l 608 28 l 478 28 l 478 506 l 433 506 l 433 550 l 174 550 l 174 28 l 43 28 m 131 853 l 131 897 l 261 897 l 261 853 l 304 853 l 304 810 l 347 810 l 347 853 l 390 853 l 390 897 l 521 897 l 521 853 l 478 853 l 478 810 l 433 810 l 433 767 l 390 767 l 390 722 l 261 722 l 261 767 l 217 767 l 217 810 l 174 810 l 174 853 l 131 853 z "},"ŉ":{"ha":694,"x_min":0,"x_max":608,"o":"m 43 28 l 43 636 l 521 636 l 521 593 l 564 593 l 564 550 l 608 550 l 608 28 l 478 28 l 478 506 l 433 506 l 433 550 l 174 550 l 174 28 l 43 28 m 43 810 l 43 983 l 174 983 l 174 810 l 131 810 l 131 722 l 0 722 l 0 810 l 43 810 z "},"Ŋ":{"ha":694,"x_min":43,"x_max":608,"o":"m 43 28 l 43 897 l 174 897 l 174 679 l 217 679 l 217 636 l 261 636 l 261 593 l 304 593 l 304 550 l 347 550 l 347 506 l 390 506 l 390 463 l 433 463 l 433 419 l 478 419 l 478 897 l 608 897 l 608 -101 l 564 -101 l 564 -144 l 521 -144 l 521 -189 l 304 -189 l 304 -101 l 433 -101 l 433 -58 l 478 -58 l 478 289 l 433 289 l 433 332 l 390 332 l 390 375 l 347 375 l 347 419 l 304 419 l 304 463 l 261 463 l 261 506 l 217 506 l 217 550 l 174 550 l 174 28 l 43 28 z "},"ŋ":{"ha":694,"x_min":43,"x_max":608,"o":"m 43 28 l 43 636 l 521 636 l 521 593 l 564 593 l 564 550 l 608 550 l 608 -101 l 564 -101 l 564 -144 l 521 -144 l 521 -189 l 304 -189 l 304 -101 l 433 -101 l 433 -58 l 478 -58 l 478 506 l 433 506 l 433 550 l 174 550 l 174 28 l 43 28 z "},"Ō":{"ha":694,"x_min":43,"x_max":608,"o":"m 131 853 l 131 897 l 521 897 l 521 853 l 564 853 l 564 810 l 608 810 l 608 115 l 564 115 l 564 72 l 521 72 l 521 28 l 131 28 l 131 72 l 86 72 l 86 115 l 43 115 l 43 810 l 86 810 l 86 853 l 131 853 m 433 767 l 433 810 l 217 810 l 217 767 l 174 767 l 174 158 l 217 158 l 217 115 l 433 115 l 433 158 l 478 158 l 478 767 l 433 767 m 131 983 l 131 1069 l 521 1069 l 521 983 l 131 983 z "},"ō":{"ha":694,"x_min":43,"x_max":608,"o":"m 131 593 l 131 636 l 521 636 l 521 593 l 564 593 l 564 550 l 608 550 l 608 115 l 564 115 l 564 72 l 521 72 l 521 28 l 131 28 l 131 72 l 86 72 l 86 115 l 43 115 l 43 550 l 86 550 l 86 593 l 131 593 m 433 506 l 433 550 l 217 550 l 217 506 l 174 506 l 174 158 l 217 158 l 217 115 l 433 115 l 433 158 l 478 158 l 478 506 l 433 506 m 131 722 l 131 810 l 521 810 l 521 722 l 131 722 z "},"Ŏ":{"ha":694,"x_min":43,"x_max":608,"o":"m 131 853 l 131 897 l 521 897 l 521 853 l 564 853 l 564 810 l 608 810 l 608 115 l 564 115 l 564 72 l 521 72 l 521 28 l 131 28 l 131 72 l 86 72 l 86 115 l 43 115 l 43 810 l 86 810 l 86 853 l 131 853 m 433 767 l 433 810 l 217 810 l 217 767 l 174 767 l 174 158 l 217 158 l 217 115 l 433 115 l 433 158 l 478 158 l 478 767 l 433 767 m 131 1026 l 131 1114 l 261 1114 l 261 1026 l 390 1026 l 390 1114 l 521 1114 l 521 1026 l 478 1026 l 478 983 l 433 983 l 433 940 l 217 940 l 217 983 l 174 983 l 174 1026 l 131 1026 z "},"ŏ":{"ha":694,"x_min":43,"x_max":608,"o":"m 131 593 l 131 636 l 521 636 l 521 593 l 564 593 l 564 550 l 608 550 l 608 115 l 564 115 l 564 72 l 521 72 l 521 28 l 131 28 l 131 72 l 86 72 l 86 115 l 43 115 l 43 550 l 86 550 l 86 593 l 131 593 m 433 506 l 433 550 l 217 550 l 217 506 l 174 506 l 174 158 l 217 158 l 217 115 l 433 115 l 433 158 l 478 158 l 478 506 l 433 506 m 131 810 l 131 897 l 261 897 l 261 810 l 390 810 l 390 897 l 521 897 l 521 810 l 478 810 l 478 767 l 433 767 l 433 722 l 217 722 l 217 767 l 174 767 l 174 810 l 131 810 z "},"Ő":{"ha":694,"x_min":43,"x_max":651,"o":"m 131 853 l 131 897 l 521 897 l 521 853 l 564 853 l 564 810 l 608 810 l 608 115 l 564 115 l 564 72 l 521 72 l 521 28 l 131 28 l 131 72 l 86 72 l 86 115 l 43 115 l 43 810 l 86 810 l 86 853 l 131 853 m 433 767 l 433 810 l 217 810 l 217 767 l 174 767 l 174 158 l 217 158 l 217 115 l 433 115 l 433 158 l 478 158 l 478 767 l 433 767 m 521 1069 l 521 1114 l 651 1114 l 651 1069 l 608 1069 l 608 1026 l 564 1026 l 564 983 l 521 983 l 521 940 l 390 940 l 390 983 l 433 983 l 433 1026 l 478 1026 l 478 1069 l 521 1069 m 261 1069 l 261 1114 l 390 1114 l 390 1069 l 347 1069 l 347 1026 l 304 1026 l 304 983 l 261 983 l 261 940 l 131 940 l 131 983 l 174 983 l 174 1026 l 217 1026 l 217 1069 l 261 1069 z "},"ő":{"ha":694,"x_min":43,"x_max":651,"o":"m 131 593 l 131 636 l 521 636 l 521 593 l 564 593 l 564 550 l 608 550 l 608 115 l 564 115 l 564 72 l 521 72 l 521 28 l 131 28 l 131 72 l 86 72 l 86 115 l 43 115 l 43 550 l 86 550 l 86 593 l 131 593 m 433 506 l 433 550 l 217 550 l 217 506 l 174 506 l 174 158 l 217 158 l 217 115 l 433 115 l 433 158 l 478 158 l 478 506 l 433 506 m 521 853 l 521 897 l 651 897 l 651 853 l 608 853 l 608 810 l 564 810 l 564 767 l 521 767 l 521 722 l 390 722 l 390 767 l 433 767 l 433 810 l 478 810 l 478 853 l 521 853 m 261 853 l 261 897 l 390 897 l 390 853 l 347 853 l 347 810 l 304 810 l 304 767 l 261 767 l 261 722 l 131 722 l 131 767 l 174 767 l 174 810 l 217 810 l 217 853 l 261 853 z "},"Œ":{"ha":694,"x_min":0,"x_max":651,"o":"m 86 853 l 86 897 l 651 897 l 651 810 l 433 810 l 433 506 l 651 506 l 651 419 l 433 419 l 433 115 l 651 115 l 651 28 l 86 28 l 86 72 l 43 72 l 43 115 l 0 115 l 0 810 l 43 810 l 43 853 l 86 853 m 304 115 l 304 810 l 174 810 l 174 767 l 131 767 l 131 158 l 174 158 l 174 115 l 304 115 z "},"œ":{"ha":694,"x_min":0,"x_max":651,"o":"m 86 593 l 86 636 l 564 636 l 564 593 l 608 593 l 608 550 l 651 550 l 651 289 l 390 289 l 390 115 l 521 115 l 521 158 l 651 158 l 651 72 l 608 72 l 608 28 l 86 28 l 86 72 l 43 72 l 43 115 l 0 115 l 0 550 l 43 550 l 43 593 l 86 593 m 261 115 l 261 550 l 174 550 l 174 506 l 131 506 l 131 158 l 174 158 l 174 115 l 261 115 m 478 506 l 478 550 l 390 550 l 390 375 l 521 375 l 521 506 l 478 506 z "},"Ŕ":{"ha":694,"x_min":43,"x_max":608,"o":"m 43 28 l 43 897 l 521 897 l 521 853 l 564 853 l 564 810 l 608 810 l 608 463 l 564 463 l 564 419 l 521 419 l 521 375 l 304 375 l 304 332 l 347 332 l 347 289 l 390 289 l 390 246 l 433 246 l 433 203 l 478 203 l 478 158 l 521 158 l 521 115 l 564 115 l 564 72 l 608 72 l 608 28 l 478 28 l 478 72 l 433 72 l 433 115 l 390 115 l 390 158 l 347 158 l 347 203 l 304 203 l 304 246 l 261 246 l 261 289 l 217 289 l 217 332 l 174 332 l 174 28 l 43 28 m 433 767 l 433 810 l 174 810 l 174 463 l 433 463 l 433 506 l 478 506 l 478 767 l 433 767 m 390 1069 l 390 1114 l 521 1114 l 521 1069 l 478 1069 l 478 1026 l 433 1026 l 433 983 l 390 983 l 390 940 l 261 940 l 261 983 l 304 983 l 304 1026 l 347 1026 l 347 1069 l 390 1069 z "},"ŕ":{"ha":694,"x_min":43,"x_max":608,"o":"m 43 28 l 43 636 l 174 636 l 174 550 l 217 550 l 217 593 l 261 593 l 261 636 l 608 636 l 608 550 l 304 550 l 304 506 l 261 506 l 261 463 l 217 463 l 217 419 l 174 419 l 174 28 l 43 28 m 390 853 l 390 897 l 521 897 l 521 853 l 478 853 l 478 810 l 433 810 l 433 767 l 390 767 l 390 722 l 261 722 l 261 767 l 304 767 l 304 810 l 347 810 l 347 853 l 390 853 z "},"Ŗ":{"ha":694,"x_min":43,"x_max":608,"o":"m 261 -144 l 261 -15 l 390 -15 l 390 -144 l 347 -144 l 347 -189 l 304 -189 l 304 -232 l 174 -232 l 174 -189 l 217 -189 l 217 -144 l 261 -144 m 43 28 l 43 897 l 521 897 l 521 853 l 564 853 l 564 810 l 608 810 l 608 463 l 564 463 l 564 419 l 521 419 l 521 375 l 304 375 l 304 332 l 347 332 l 347 289 l 390 289 l 390 246 l 433 246 l 433 203 l 478 203 l 478 158 l 521 158 l 521 115 l 564 115 l 564 72 l 608 72 l 608 28 l 478 28 l 478 72 l 433 72 l 433 115 l 390 115 l 390 158 l 347 158 l 347 203 l 304 203 l 304 246 l 261 246 l 261 289 l 217 289 l 217 332 l 174 332 l 174 28 l 43 28 m 433 767 l 433 810 l 174 810 l 174 463 l 433 463 l 433 506 l 478 506 l 478 767 l 433 767 z "},"ŗ":{"ha":694,"x_min":0,"x_max":651,"o":"m 86 -144 l 86 -15 l 217 -15 l 217 -144 l 174 -144 l 174 -189 l 131 -189 l 131 -232 l 0 -232 l 0 -189 l 43 -189 l 43 -144 l 86 -144 m 86 28 l 86 636 l 217 636 l 217 550 l 261 550 l 261 593 l 304 593 l 304 636 l 651 636 l 651 550 l 347 550 l 347 506 l 304 506 l 304 463 l 261 463 l 261 419 l 217 419 l 217 28 l 86 28 z "},"Ř":{"ha":694,"x_min":43,"x_max":608,"o":"m 43 28 l 43 897 l 521 897 l 521 853 l 564 853 l 564 810 l 608 810 l 608 463 l 564 463 l 564 419 l 521 419 l 521 375 l 304 375 l 304 332 l 347 332 l 347 289 l 390 289 l 390 246 l 433 246 l 433 203 l 478 203 l 478 158 l 521 158 l 521 115 l 564 115 l 564 72 l 608 72 l 608 28 l 478 28 l 478 72 l 433 72 l 433 115 l 390 115 l 390 158 l 347 158 l 347 203 l 304 203 l 304 246 l 261 246 l 261 289 l 217 289 l 217 332 l 174 332 l 174 28 l 43 28 m 433 767 l 433 810 l 174 810 l 174 463 l 433 463 l 433 506 l 478 506 l 478 767 l 433 767 m 131 1069 l 131 1114 l 261 1114 l 261 1069 l 304 1069 l 304 1026 l 347 1026 l 347 1069 l 390 1069 l 390 1114 l 521 1114 l 521 1069 l 478 1069 l 478 1026 l 433 1026 l 433 983 l 390 983 l 390 940 l 261 940 l 261 983 l 217 983 l 217 1026 l 174 1026 l 174 1069 l 131 1069 z "},"ř":{"ha":694,"x_min":43,"x_max":608,"o":"m 43 28 l 43 636 l 174 636 l 174 550 l 217 550 l 217 593 l 261 593 l 261 636 l 608 636 l 608 550 l 304 550 l 304 506 l 261 506 l 261 463 l 217 463 l 217 419 l 174 419 l 174 28 l 43 28 m 131 853 l 131 897 l 261 897 l 261 853 l 304 853 l 304 810 l 347 810 l 347 853 l 390 853 l 390 897 l 521 897 l 521 853 l 478 853 l 478 810 l 433 810 l 433 767 l 390 767 l 390 722 l 261 722 l 261 767 l 217 767 l 217 810 l 174 810 l 174 853 l 131 853 z "},"Ś":{"ha":694,"x_min":43,"x_max":608,"o":"m 131 853 l 131 897 l 521 897 l 521 853 l 564 853 l 564 810 l 608 810 l 608 679 l 478 679 l 478 767 l 433 767 l 433 810 l 217 810 l 217 767 l 174 767 l 174 550 l 217 550 l 217 506 l 521 506 l 521 463 l 564 463 l 564 419 l 608 419 l 608 115 l 564 115 l 564 72 l 521 72 l 521 28 l 131 28 l 131 72 l 86 72 l 86 115 l 43 115 l 43 246 l 174 246 l 174 158 l 217 158 l 217 115 l 433 115 l 433 158 l 478 158 l 478 375 l 433 375 l 433 419 l 131 419 l 131 463 l 86 463 l 86 506 l 43 506 l 43 810 l 86 810 l 86 853 l 131 853 m 390 1069 l 390 1114 l 521 1114 l 521 1069 l 478 1069 l 478 1026 l 433 1026 l 433 983 l 390 983 l 390 940 l 261 940 l 261 983 l 304 983 l 304 1026 l 347 1026 l 347 1069 l 390 1069 z "},"ś":{"ha":694,"x_min":43,"x_max":608,"o":"m 131 593 l 131 636 l 521 636 l 521 593 l 564 593 l 564 550 l 608 550 l 608 506 l 433 506 l 433 550 l 217 550 l 217 506 l 174 506 l 174 419 l 217 419 l 217 375 l 521 375 l 521 332 l 564 332 l 564 289 l 608 289 l 608 115 l 564 115 l 564 72 l 521 72 l 521 28 l 131 28 l 131 72 l 86 72 l 86 115 l 43 115 l 43 158 l 217 158 l 217 115 l 433 115 l 433 158 l 478 158 l 478 246 l 433 246 l 433 289 l 131 289 l 131 332 l 86 332 l 86 375 l 43 375 l 43 550 l 86 550 l 86 593 l 131 593 m 390 853 l 390 897 l 521 897 l 521 853 l 478 853 l 478 810 l 433 810 l 433 767 l 390 767 l 390 722 l 261 722 l 261 767 l 304 767 l 304 810 l 347 810 l 347 853 l 390 853 z "},"Ŝ":{"ha":694,"x_min":43,"x_max":608,"o":"m 131 853 l 131 897 l 521 897 l 521 853 l 564 853 l 564 810 l 608 810 l 608 679 l 478 679 l 478 767 l 433 767 l 433 810 l 217 810 l 217 767 l 174 767 l 174 550 l 217 550 l 217 506 l 521 506 l 521 463 l 564 463 l 564 419 l 608 419 l 608 115 l 564 115 l 564 72 l 521 72 l 521 28 l 131 28 l 131 72 l 86 72 l 86 115 l 43 115 l 43 246 l 174 246 l 174 158 l 217 158 l 217 115 l 433 115 l 433 158 l 478 158 l 478 375 l 433 375 l 433 419 l 131 419 l 131 463 l 86 463 l 86 506 l 43 506 l 43 810 l 86 810 l 86 853 l 131 853 m 261 1069 l 261 1114 l 390 1114 l 390 1069 l 433 1069 l 433 1026 l 478 1026 l 478 983 l 521 983 l 521 940 l 390 940 l 390 983 l 347 983 l 347 1026 l 304 1026 l 304 983 l 261 983 l 261 940 l 131 940 l 131 983 l 174 983 l 174 1026 l 217 1026 l 217 1069 l 261 1069 z "},"ŝ":{"ha":694,"x_min":43,"x_max":608,"o":"m 131 593 l 131 636 l 521 636 l 521 593 l 564 593 l 564 550 l 608 550 l 608 506 l 433 506 l 433 550 l 217 550 l 217 506 l 174 506 l 174 419 l 217 419 l 217 375 l 521 375 l 521 332 l 564 332 l 564 289 l 608 289 l 608 115 l 564 115 l 564 72 l 521 72 l 521 28 l 131 28 l 131 72 l 86 72 l 86 115 l 43 115 l 43 158 l 217 158 l 217 115 l 433 115 l 433 158 l 478 158 l 478 246 l 433 246 l 433 289 l 131 289 l 131 332 l 86 332 l 86 375 l 43 375 l 43 550 l 86 550 l 86 593 l 131 593 m 261 853 l 261 897 l 390 897 l 390 853 l 433 853 l 433 810 l 478 810 l 478 767 l 521 767 l 521 722 l 390 722 l 390 767 l 347 767 l 347 810 l 304 810 l 304 767 l 261 767 l 261 722 l 131 722 l 131 767 l 174 767 l 174 810 l 217 810 l 217 853 l 261 853 z "},"Ş":{"ha":694,"x_min":43,"x_max":608,"o":"m 131 853 l 131 897 l 521 897 l 521 853 l 564 853 l 564 810 l 608 810 l 608 679 l 478 679 l 478 767 l 433 767 l 433 810 l 217 810 l 217 767 l 174 767 l 174 550 l 217 550 l 217 506 l 521 506 l 521 463 l 564 463 l 564 419 l 608 419 l 608 115 l 564 115 l 564 72 l 521 72 l 521 28 l 390 28 l 390 -101 l 347 -101 l 347 -144 l 304 -144 l 304 -189 l 174 -189 l 174 -144 l 217 -144 l 217 -101 l 261 -101 l 261 28 l 131 28 l 131 72 l 86 72 l 86 115 l 43 115 l 43 246 l 174 246 l 174 158 l 217 158 l 217 115 l 433 115 l 433 158 l 478 158 l 478 375 l 433 375 l 433 419 l 131 419 l 131 463 l 86 463 l 86 506 l 43 506 l 43 810 l 86 810 l 86 853 l 131 853 z "},"ş":{"ha":694,"x_min":43,"x_max":608,"o":"m 131 593 l 131 636 l 521 636 l 521 593 l 564 593 l 564 550 l 608 550 l 608 506 l 433 506 l 433 550 l 217 550 l 217 506 l 174 506 l 174 419 l 217 419 l 217 375 l 521 375 l 521 332 l 564 332 l 564 289 l 608 289 l 608 115 l 564 115 l 564 72 l 521 72 l 521 28 l 390 28 l 390 -101 l 347 -101 l 347 -144 l 304 -144 l 304 -189 l 174 -189 l 174 -144 l 217 -144 l 217 -101 l 261 -101 l 261 28 l 131 28 l 131 72 l 86 72 l 86 115 l 43 115 l 43 158 l 217 158 l 217 115 l 433 115 l 433 158 l 478 158 l 478 246 l 433 246 l 433 289 l 131 289 l 131 332 l 86 332 l 86 375 l 43 375 l 43 550 l 86 550 l 86 593 l 131 593 z "},"Š":{"ha":694,"x_min":43,"x_max":608,"o":"m 131 853 l 131 897 l 521 897 l 521 853 l 564 853 l 564 810 l 608 810 l 608 679 l 478 679 l 478 767 l 433 767 l 433 810 l 217 810 l 217 767 l 174 767 l 174 550 l 217 550 l 217 506 l 521 506 l 521 463 l 564 463 l 564 419 l 608 419 l 608 115 l 564 115 l 564 72 l 521 72 l 521 28 l 131 28 l 131 72 l 86 72 l 86 115 l 43 115 l 43 246 l 174 246 l 174 158 l 217 158 l 217 115 l 433 115 l 433 158 l 478 158 l 478 375 l 433 375 l 433 419 l 131 419 l 131 463 l 86 463 l 86 506 l 43 506 l 43 810 l 86 810 l 86 853 l 131 853 m 131 1069 l 131 1114 l 261 1114 l 261 1069 l 304 1069 l 304 1026 l 347 1026 l 347 1069 l 390 1069 l 390 1114 l 521 1114 l 521 1069 l 478 1069 l 478 1026 l 433 1026 l 433 983 l 390 983 l 390 940 l 261 940 l 261 983 l 217 983 l 217 1026 l 174 1026 l 174 1069 l 131 1069 z "},"š":{"ha":694,"x_min":43,"x_max":608,"o":"m 131 593 l 131 636 l 521 636 l 521 593 l 564 593 l 564 550 l 608 550 l 608 506 l 433 506 l 433 550 l 217 550 l 217 506 l 174 506 l 174 419 l 217 419 l 217 375 l 521 375 l 521 332 l 564 332 l 564 289 l 608 289 l 608 115 l 564 115 l 564 72 l 521 72 l 521 28 l 131 28 l 131 72 l 86 72 l 86 115 l 43 115 l 43 158 l 217 158 l 217 115 l 433 115 l 433 158 l 478 158 l 478 246 l 433 246 l 433 289 l 131 289 l 131 332 l 86 332 l 86 375 l 43 375 l 43 550 l 86 550 l 86 593 l 131 593 m 131 853 l 131 897 l 261 897 l 261 853 l 304 853 l 304 810 l 347 810 l 347 853 l 390 853 l 390 897 l 521 897 l 521 853 l 478 853 l 478 810 l 433 810 l 433 767 l 390 767 l 390 722 l 261 722 l 261 767 l 217 767 l 217 810 l 174 810 l 174 853 l 131 853 z "},"Ţ":{"ha":694,"x_min":43,"x_max":608,"o":"m 43 810 l 43 897 l 608 897 l 608 810 l 390 810 l 390 28 l 433 28 l 433 -101 l 390 -101 l 390 -144 l 347 -144 l 347 -189 l 217 -189 l 217 -144 l 261 -144 l 261 -101 l 304 -101 l 304 28 l 261 28 l 261 810 l 43 810 z "},"ţ":{"ha":694,"x_min":43,"x_max":608,"o":"m 217 636 l 217 897 l 347 897 l 347 636 l 521 636 l 521 550 l 347 550 l 347 158 l 390 158 l 390 115 l 608 115 l 608 28 l 521 28 l 521 -101 l 478 -101 l 478 -144 l 433 -144 l 433 -189 l 304 -189 l 304 -144 l 347 -144 l 347 -101 l 390 -101 l 390 28 l 304 28 l 304 72 l 261 72 l 261 115 l 217 115 l 217 550 l 43 550 l 43 636 l 217 636 z "},"Ť":{"ha":694,"x_min":43,"x_max":608,"o":"m 43 810 l 43 897 l 608 897 l 608 810 l 390 810 l 390 28 l 261 28 l 261 810 l 43 810 m 131 1069 l 131 1114 l 261 1114 l 261 1069 l 304 1069 l 304 1026 l 347 1026 l 347 1069 l 390 1069 l 390 1114 l 521 1114 l 521 1069 l 478 1069 l 478 1026 l 433 1026 l 433 983 l 390 983 l 390 940 l 261 940 l 261 983 l 217 983 l 217 1026 l 174 1026 l 174 1069 l 131 1069 z "},"ť":{"ha":694,"x_min":43,"x_max":608,"o":"m 217 636 l 217 897 l 347 897 l 347 636 l 521 636 l 521 550 l 347 550 l 347 158 l 390 158 l 390 115 l 608 115 l 608 28 l 304 28 l 304 72 l 261 72 l 261 115 l 217 115 l 217 550 l 43 550 l 43 636 l 217 636 m 86 1069 l 86 1114 l 217 1114 l 217 1069 l 261 1069 l 261 1026 l 304 1026 l 304 1069 l 347 1069 l 347 1114 l 478 1114 l 478 1069 l 433 1069 l 433 1026 l 390 1026 l 390 983 l 347 983 l 347 940 l 217 940 l 217 983 l 174 983 l 174 1026 l 131 1026 l 131 1069 l 86 1069 z "},"Ŧ":{"ha":694,"x_min":43,"x_max":608,"o":"m 43 810 l 43 897 l 608 897 l 608 810 l 390 810 l 390 506 l 521 506 l 521 419 l 390 419 l 390 28 l 261 28 l 261 419 l 131 419 l 131 506 l 261 506 l 261 810 l 43 810 z "},"ŧ":{"ha":694,"x_min":43,"x_max":608,"o":"m 217 636 l 217 897 l 347 897 l 347 636 l 521 636 l 521 550 l 347 550 l 347 463 l 433 463 l 433 375 l 347 375 l 347 158 l 390 158 l 390 115 l 608 115 l 608 28 l 304 28 l 304 72 l 261 72 l 261 115 l 217 115 l 217 375 l 131 375 l 131 463 l 217 463 l 217 550 l 43 550 l 43 636 l 217 636 z "},"Ũ":{"ha":694,"x_min":43,"x_max":608,"o":"m 43 115 l 43 897 l 174 897 l 174 158 l 217 158 l 217 115 l 433 115 l 433 158 l 478 158 l 478 897 l 608 897 l 608 115 l 564 115 l 564 72 l 521 72 l 521 28 l 131 28 l 131 72 l 86 72 l 86 115 l 43 115 m 131 1069 l 131 1114 l 347 1114 l 347 1069 l 390 1069 l 390 983 l 433 983 l 433 1114 l 564 1114 l 564 983 l 521 983 l 521 940 l 304 940 l 304 983 l 261 983 l 261 1069 l 217 1069 l 217 940 l 86 940 l 86 1069 l 131 1069 z "},"ũ":{"ha":694,"x_min":43,"x_max":608,"o":"m 43 115 l 43 636 l 174 636 l 174 158 l 217 158 l 217 115 l 478 115 l 478 636 l 608 636 l 608 28 l 131 28 l 131 72 l 86 72 l 86 115 l 43 115 m 131 853 l 131 897 l 347 897 l 347 853 l 390 853 l 390 767 l 433 767 l 433 897 l 564 897 l 564 767 l 521 767 l 521 722 l 304 722 l 304 767 l 261 767 l 261 853 l 217 853 l 217 722 l 86 722 l 86 853 l 131 853 z "},"Ū":{"ha":694,"x_min":43,"x_max":608,"o":"m 43 115 l 43 897 l 174 897 l 174 158 l 217 158 l 217 115 l 433 115 l 433 158 l 478 158 l 478 897 l 608 897 l 608 115 l 564 115 l 564 72 l 521 72 l 521 28 l 131 28 l 131 72 l 86 72 l 86 115 l 43 115 m 131 983 l 131 1069 l 521 1069 l 521 983 l 131 983 z "},"ū":{"ha":694,"x_min":43,"x_max":608,"o":"m 43 115 l 43 636 l 174 636 l 174 158 l 217 158 l 217 115 l 478 115 l 478 636 l 608 636 l 608 28 l 131 28 l 131 72 l 86 72 l 86 115 l 43 115 m 131 722 l 131 810 l 521 810 l 521 722 l 131 722 z "},"Ŭ":{"ha":694,"x_min":43,"x_max":608,"o":"m 43 115 l 43 897 l 174 897 l 174 158 l 217 158 l 217 115 l 433 115 l 433 158 l 478 158 l 478 897 l 608 897 l 608 115 l 564 115 l 564 72 l 521 72 l 521 28 l 131 28 l 131 72 l 86 72 l 86 115 l 43 115 m 131 1026 l 131 1114 l 261 1114 l 261 1026 l 390 1026 l 390 1114 l 521 1114 l 521 1026 l 478 1026 l 478 983 l 433 983 l 433 940 l 217 940 l 217 983 l 174 983 l 174 1026 l 131 1026 z "},"ŭ":{"ha":694,"x_min":43,"x_max":608,"o":"m 43 115 l 43 636 l 174 636 l 174 158 l 217 158 l 217 115 l 478 115 l 478 636 l 608 636 l 608 28 l 131 28 l 131 72 l 86 72 l 86 115 l 43 115 m 131 810 l 131 897 l 261 897 l 261 810 l 390 810 l 390 897 l 521 897 l 521 810 l 478 810 l 478 767 l 433 767 l 433 722 l 217 722 l 217 767 l 174 767 l 174 810 l 131 810 z "},"Ů":{"ha":694,"x_min":43,"x_max":608,"o":"m 43 115 l 43 897 l 174 897 l 174 158 l 217 158 l 217 115 l 433 115 l 433 158 l 478 158 l 478 897 l 608 897 l 608 115 l 564 115 l 564 72 l 521 72 l 521 28 l 131 28 l 131 72 l 86 72 l 86 115 l 43 115 m 217 1069 l 217 1114 l 433 1114 l 433 1069 l 478 1069 l 478 940 l 433 940 l 433 897 l 217 897 l 217 940 l 174 940 l 174 1069 l 217 1069 m 347 940 l 347 1069 l 304 1069 l 304 940 l 347 940 z "},"ů":{"ha":694,"x_min":43,"x_max":608,"o":"m 43 115 l 43 636 l 174 636 l 174 158 l 217 158 l 217 115 l 478 115 l 478 636 l 608 636 l 608 28 l 131 28 l 131 72 l 86 72 l 86 115 l 43 115 m 217 853 l 217 897 l 433 897 l 433 853 l 478 853 l 478 722 l 433 722 l 433 679 l 217 679 l 217 722 l 174 722 l 174 853 l 217 853 m 347 722 l 347 853 l 304 853 l 304 722 l 347 722 z "},"Ű":{"ha":694,"x_min":43,"x_max":651,"o":"m 43 115 l 43 897 l 174 897 l 174 158 l 217 158 l 217 115 l 433 115 l 433 158 l 478 158 l 478 897 l 608 897 l 608 115 l 564 115 l 564 72 l 521 72 l 521 28 l 131 28 l 131 72 l 86 72 l 86 115 l 43 115 m 521 1069 l 521 1114 l 651 1114 l 651 1069 l 608 1069 l 608 1026 l 564 1026 l 564 983 l 521 983 l 521 940 l 390 940 l 390 983 l 433 983 l 433 1026 l 478 1026 l 478 1069 l 521 1069 m 261 1069 l 261 1114 l 390 1114 l 390 1069 l 347 1069 l 347 1026 l 304 1026 l 304 983 l 261 983 l 261 940 l 131 940 l 131 983 l 174 983 l 174 1026 l 217 1026 l 217 1069 l 261 1069 z "},"ű":{"ha":694,"x_min":43,"x_max":651,"o":"m 43 115 l 43 636 l 174 636 l 174 158 l 217 158 l 217 115 l 478 115 l 478 636 l 608 636 l 608 28 l 131 28 l 131 72 l 86 72 l 86 115 l 43 115 m 521 853 l 521 897 l 651 897 l 651 853 l 608 853 l 608 810 l 564 810 l 564 767 l 521 767 l 521 722 l 390 722 l 390 767 l 433 767 l 433 810 l 478 810 l 478 853 l 521 853 m 261 853 l 261 897 l 390 897 l 390 853 l 347 853 l 347 810 l 304 810 l 304 767 l 261 767 l 261 722 l 131 722 l 131 767 l 174 767 l 174 810 l 217 810 l 217 853 l 261 853 z "},"Ų":{"ha":694,"x_min":43,"x_max":608,"o":"m 43 115 l 43 897 l 174 897 l 174 158 l 217 158 l 217 115 l 433 115 l 433 158 l 478 158 l 478 897 l 608 897 l 608 115 l 564 115 l 564 72 l 521 72 l 521 28 l 433 28 l 433 -15 l 390 -15 l 390 -58 l 347 -58 l 347 -101 l 478 -101 l 478 -189 l 261 -189 l 261 -144 l 217 -144 l 217 -15 l 261 -15 l 261 28 l 131 28 l 131 72 l 86 72 l 86 115 l 43 115 z "},"ų":{"ha":694,"x_min":43,"x_max":608,"o":"m 43 115 l 43 636 l 174 636 l 174 158 l 217 158 l 217 115 l 478 115 l 478 636 l 608 636 l 608 -15 l 521 -15 l 521 -58 l 478 -58 l 478 -101 l 608 -101 l 608 -189 l 390 -189 l 390 -144 l 347 -144 l 347 -15 l 390 -15 l 390 28 l 131 28 l 131 72 l 86 72 l 86 115 l 43 115 z "},"Ŵ":{"ha":694,"x_min":43,"x_max":651,"o":"m 43 28 l 43 897 l 174 897 l 174 289 l 217 289 l 217 332 l 261 332 l 261 419 l 304 419 l 304 463 l 390 463 l 390 419 l 433 419 l 433 332 l 478 332 l 478 289 l 521 289 l 521 897 l 651 897 l 651 28 l 521 28 l 521 115 l 478 115 l 478 158 l 433 158 l 433 203 l 390 203 l 390 289 l 304 289 l 304 203 l 261 203 l 261 158 l 217 158 l 217 115 l 174 115 l 174 28 l 43 28 m 261 1069 l 261 1114 l 390 1114 l 390 1069 l 433 1069 l 433 1026 l 478 1026 l 478 983 l 521 983 l 521 940 l 390 940 l 390 983 l 347 983 l 347 1026 l 304 1026 l 304 983 l 261 983 l 261 940 l 131 940 l 131 983 l 174 983 l 174 1026 l 217 1026 l 217 1069 l 261 1069 z "},"ŵ":{"ha":694,"x_min":43,"x_max":608,"o":"m 43 115 l 43 636 l 174 636 l 174 158 l 217 158 l 217 115 l 261 115 l 261 463 l 390 463 l 390 115 l 433 115 l 433 158 l 478 158 l 478 636 l 608 636 l 608 115 l 564 115 l 564 72 l 521 72 l 521 28 l 131 28 l 131 72 l 86 72 l 86 115 l 43 115 m 261 853 l 261 897 l 390 897 l 390 853 l 433 853 l 433 810 l 478 810 l 478 767 l 521 767 l 521 722 l 390 722 l 390 767 l 347 767 l 347 810 l 304 810 l 304 767 l 261 767 l 261 722 l 131 722 l 131 767 l 174 767 l 174 810 l 217 810 l 217 853 l 261 853 z "},"Ŷ":{"ha":694,"x_min":43,"x_max":608,"o":"m 43 767 l 43 897 l 174 897 l 174 767 l 217 767 l 217 679 l 261 679 l 261 593 l 304 593 l 304 506 l 347 506 l 347 593 l 390 593 l 390 679 l 433 679 l 433 767 l 478 767 l 478 897 l 608 897 l 608 767 l 564 767 l 564 679 l 521 679 l 521 593 l 478 593 l 478 506 l 433 506 l 433 419 l 390 419 l 390 28 l 261 28 l 261 419 l 217 419 l 217 506 l 174 506 l 174 593 l 131 593 l 131 679 l 86 679 l 86 767 l 43 767 m 261 1069 l 261 1114 l 390 1114 l 390 1069 l 433 1069 l 433 1026 l 478 1026 l 478 983 l 521 983 l 521 940 l 390 940 l 390 983 l 347 983 l 347 1026 l 304 1026 l 304 983 l 261 983 l 261 940 l 131 940 l 131 983 l 174 983 l 174 1026 l 217 1026 l 217 1069 l 261 1069 z "},"ŷ":{"ha":694,"x_min":43,"x_max":608,"o":"m 43 115 l 43 636 l 174 636 l 174 158 l 217 158 l 217 115 l 478 115 l 478 636 l 608 636 l 608 -101 l 564 -101 l 564 -144 l 521 -144 l 521 -189 l 86 -189 l 86 -101 l 433 -101 l 433 -58 l 478 -58 l 478 28 l 131 28 l 131 72 l 86 72 l 86 115 l 43 115 m 261 853 l 261 897 l 390 897 l 390 853 l 433 853 l 433 810 l 478 810 l 478 767 l 521 767 l 521 722 l 390 722 l 390 767 l 347 767 l 347 810 l 304 810 l 304 767 l 261 767 l 261 722 l 131 722 l 131 767 l 174 767 l 174 810 l 217 810 l 217 853 l 261 853 z "},"Ÿ":{"ha":694,"x_min":43,"x_max":608,"o":"m 43 767 l 43 897 l 174 897 l 174 767 l 217 767 l 217 679 l 261 679 l 261 593 l 304 593 l 304 506 l 347 506 l 347 593 l 390 593 l 390 679 l 433 679 l 433 767 l 478 767 l 478 897 l 608 897 l 608 767 l 564 767 l 564 679 l 521 679 l 521 593 l 478 593 l 478 506 l 433 506 l 433 419 l 390 419 l 390 28 l 261 28 l 261 419 l 217 419 l 217 506 l 174 506 l 174 593 l 131 593 l 131 679 l 86 679 l 86 767 l 43 767 m 390 940 l 390 1114 l 521 1114 l 521 940 l 390 940 m 131 940 l 131 1114 l 261 1114 l 261 940 l 131 940 z "},"Ź":{"ha":694,"x_min":43,"x_max":608,"o":"m 43 810 l 43 897 l 608 897 l 608 679 l 564 679 l 564 636 l 521 636 l 521 593 l 478 593 l 478 550 l 433 550 l 433 506 l 390 506 l 390 463 l 347 463 l 347 419 l 304 419 l 304 375 l 261 375 l 261 332 l 217 332 l 217 289 l 174 289 l 174 115 l 608 115 l 608 28 l 43 28 l 43 289 l 86 289 l 86 332 l 131 332 l 131 375 l 174 375 l 174 419 l 217 419 l 217 463 l 261 463 l 261 506 l 304 506 l 304 550 l 347 550 l 347 593 l 390 593 l 390 636 l 433 636 l 433 679 l 478 679 l 478 810 l 43 810 m 390 1069 l 390 1114 l 521 1114 l 521 1069 l 478 1069 l 478 1026 l 433 1026 l 433 983 l 390 983 l 390 940 l 261 940 l 261 983 l 304 983 l 304 1026 l 347 1026 l 347 1069 l 390 1069 z "},"ź":{"ha":694,"x_min":43,"x_max":608,"o":"m 43 550 l 43 636 l 608 636 l 608 550 l 564 550 l 564 506 l 521 506 l 521 463 l 478 463 l 478 419 l 433 419 l 433 375 l 390 375 l 390 332 l 347 332 l 347 289 l 304 289 l 304 246 l 261 246 l 261 203 l 217 203 l 217 158 l 174 158 l 174 115 l 608 115 l 608 28 l 43 28 l 43 158 l 86 158 l 86 203 l 131 203 l 131 246 l 174 246 l 174 289 l 217 289 l 217 332 l 261 332 l 261 375 l 304 375 l 304 419 l 347 419 l 347 463 l 390 463 l 390 506 l 433 506 l 433 550 l 43 550 m 390 853 l 390 897 l 521 897 l 521 853 l 478 853 l 478 810 l 433 810 l 433 767 l 390 767 l 390 722 l 261 722 l 261 767 l 304 767 l 304 810 l 347 810 l 347 853 l 390 853 z "},"Ż":{"ha":694,"x_min":43,"x_max":608,"o":"m 43 810 l 43 897 l 608 897 l 608 679 l 564 679 l 564 636 l 521 636 l 521 593 l 478 593 l 478 550 l 433 550 l 433 506 l 390 506 l 390 463 l 347 463 l 347 419 l 304 419 l 304 375 l 261 375 l 261 332 l 217 332 l 217 289 l 174 289 l 174 115 l 608 115 l 608 28 l 43 28 l 43 289 l 86 289 l 86 332 l 131 332 l 131 375 l 174 375 l 174 419 l 217 419 l 217 463 l 261 463 l 261 506 l 304 506 l 304 550 l 347 550 l 347 593 l 390 593 l 390 636 l 433 636 l 433 679 l 478 679 l 478 810 l 43 810 m 261 940 l 261 1114 l 390 1114 l 390 940 l 261 940 z "},"ż":{"ha":694,"x_min":43,"x_max":608,"o":"m 43 550 l 43 636 l 608 636 l 608 550 l 564 550 l 564 506 l 521 506 l 521 463 l 478 463 l 478 419 l 433 419 l 433 375 l 390 375 l 390 332 l 347 332 l 347 289 l 304 289 l 304 246 l 261 246 l 261 203 l 217 203 l 217 158 l 174 158 l 174 115 l 608 115 l 608 28 l 43 28 l 43 158 l 86 158 l 86 203 l 131 203 l 131 246 l 174 246 l 174 289 l 217 289 l 217 332 l 261 332 l 261 375 l 304 375 l 304 419 l 347 419 l 347 463 l 390 463 l 390 506 l 433 506 l 433 550 l 43 550 m 261 722 l 261 897 l 390 897 l 390 722 l 261 722 z "},"Ž":{"ha":694,"x_min":43,"x_max":608,"o":"m 43 810 l 43 897 l 608 897 l 608 679 l 564 679 l 564 636 l 521 636 l 521 593 l 478 593 l 478 550 l 433 550 l 433 506 l 390 506 l 390 463 l 347 463 l 347 419 l 304 419 l 304 375 l 261 375 l 261 332 l 217 332 l 217 289 l 174 289 l 174 115 l 608 115 l 608 28 l 43 28 l 43 289 l 86 289 l 86 332 l 131 332 l 131 375 l 174 375 l 174 419 l 217 419 l 217 463 l 261 463 l 261 506 l 304 506 l 304 550 l 347 550 l 347 593 l 390 593 l 390 636 l 433 636 l 433 679 l 478 679 l 478 810 l 43 810 m 131 1069 l 131 1114 l 261 1114 l 261 1069 l 304 1069 l 304 1026 l 347 1026 l 347 1069 l 390 1069 l 390 1114 l 521 1114 l 521 1069 l 478 1069 l 478 1026 l 433 1026 l 433 983 l 390 983 l 390 940 l 261 940 l 261 983 l 217 983 l 217 1026 l 174 1026 l 174 1069 l 131 1069 z "},"ž":{"ha":694,"x_min":43,"x_max":608,"o":"m 43 550 l 43 636 l 608 636 l 608 550 l 564 550 l 564 506 l 521 506 l 521 463 l 478 463 l 478 419 l 433 419 l 433 375 l 390 375 l 390 332 l 347 332 l 347 289 l 304 289 l 304 246 l 261 246 l 261 203 l 217 203 l 217 158 l 174 158 l 174 115 l 608 115 l 608 28 l 43 28 l 43 158 l 86 158 l 86 203 l 131 203 l 131 246 l 174 246 l 174 289 l 217 289 l 217 332 l 261 332 l 261 375 l 304 375 l 304 419 l 347 419 l 347 463 l 390 463 l 390 506 l 433 506 l 433 550 l 43 550 m 131 853 l 131 897 l 261 897 l 261 853 l 304 853 l 304 810 l 347 810 l 347 853 l 390 853 l 390 897 l 521 897 l 521 853 l 478 853 l 478 810 l 433 810 l 433 767 l 390 767 l 390 722 l 261 722 l 261 767 l 217 767 l 217 810 l 174 810 l 174 853 l 131 853 z "},"ſ":{"ha":694,"x_min":261,"x_max":651,"o":"m 347 853 l 347 897 l 651 897 l 651 810 l 433 810 l 433 767 l 390 767 l 390 28 l 261 28 l 261 810 l 304 810 l 304 853 l 347 853 z "},"Ɔ":{"ha":694,"x_min":43,"x_max":608,"o":"m 131 853 l 131 897 l 521 897 l 521 853 l 564 853 l 564 810 l 608 810 l 608 115 l 564 115 l 564 72 l 521 72 l 521 28 l 131 28 l 131 72 l 86 72 l 86 115 l 43 115 l 43 246 l 174 246 l 174 158 l 217 158 l 217 115 l 433 115 l 433 158 l 478 158 l 478 767 l 433 767 l 433 810 l 217 810 l 217 767 l 174 767 l 174 679 l 43 679 l 43 810 l 86 810 l 86 853 l 131 853 z "},"Ǝ":{"ha":694,"x_min":43,"x_max":608,"o":"m 43 810 l 43 897 l 608 897 l 608 28 l 43 28 l 43 115 l 478 115 l 478 419 l 174 419 l 174 506 l 478 506 l 478 810 l 43 810 z "},"Ə":{"ha":694,"x_min":43,"x_max":608,"o":"m 131 853 l 131 897 l 521 897 l 521 853 l 564 853 l 564 810 l 608 810 l 608 115 l 564 115 l 564 72 l 521 72 l 521 28 l 131 28 l 131 72 l 86 72 l 86 115 l 43 115 l 43 506 l 478 506 l 478 767 l 433 767 l 433 810 l 217 810 l 217 767 l 174 767 l 174 679 l 43 679 l 43 810 l 86 810 l 86 853 l 131 853 m 478 158 l 478 419 l 174 419 l 174 158 l 217 158 l 217 115 l 433 115 l 433 158 l 478 158 z "},"Ɛ":{"ha":694,"x_min":43,"x_max":608,"o":"m 131 853 l 131 897 l 521 897 l 521 853 l 564 853 l 564 810 l 608 810 l 608 679 l 478 679 l 478 767 l 433 767 l 433 810 l 217 810 l 217 767 l 174 767 l 174 550 l 217 550 l 217 506 l 478 506 l 478 419 l 217 419 l 217 375 l 174 375 l 174 158 l 217 158 l 217 115 l 433 115 l 433 158 l 478 158 l 478 246 l 608 246 l 608 115 l 564 115 l 564 72 l 521 72 l 521 28 l 131 28 l 131 72 l 86 72 l 86 115 l 43 115 l 43 419 l 86 419 l 86 506 l 43 506 l 43 810 l 86 810 l 86 853 l 131 853 z "},"ƒ":{"ha":694,"x_min":43,"x_max":608,"o":"m 304 853 l 304 897 l 564 897 l 564 853 l 608 853 l 608 722 l 478 722 l 478 810 l 390 810 l 390 550 l 521 550 l 521 463 l 390 463 l 390 -101 l 347 -101 l 347 -144 l 86 -144 l 86 -101 l 43 -101 l 43 28 l 174 28 l 174 -58 l 261 -58 l 261 463 l 131 463 l 131 550 l 261 550 l 261 853 l 304 853 z "},"Ɲ":{"ha":694,"x_min":0,"x_max":651,"o":"m 86 -101 l 86 897 l 217 897 l 217 679 l 261 679 l 261 636 l 304 636 l 304 593 l 347 593 l 347 550 l 390 550 l 390 506 l 433 506 l 433 463 l 478 463 l 478 419 l 521 419 l 521 897 l 651 897 l 651 28 l 521 28 l 521 289 l 478 289 l 478 332 l 433 332 l 433 375 l 390 375 l 390 419 l 347 419 l 347 463 l 304 463 l 304 506 l 261 506 l 261 550 l 217 550 l 217 -144 l 174 -144 l 174 -189 l 0 -189 l 0 -144 l 43 -144 l 43 -101 l 86 -101 z "},"ƞ":{"ha":694,"x_min":43,"x_max":608,"o":"m 43 28 l 43 636 l 521 636 l 521 593 l 564 593 l 564 550 l 608 550 l 608 -189 l 478 -189 l 478 506 l 433 506 l 433 550 l 174 550 l 174 28 l 43 28 z "},"Ƶ":{"ha":694,"x_min":43,"x_max":608,"o":"m 43 810 l 43 897 l 608 897 l 608 679 l 564 679 l 564 636 l 521 636 l 521 593 l 478 593 l 478 550 l 433 550 l 433 506 l 608 506 l 608 419 l 347 419 l 347 375 l 304 375 l 304 332 l 261 332 l 261 289 l 217 289 l 217 246 l 174 246 l 174 115 l 608 115 l 608 28 l 43 28 l 43 246 l 86 246 l 86 289 l 131 289 l 131 332 l 174 332 l 174 375 l 217 375 l 217 419 l 43 419 l 43 506 l 304 506 l 304 550 l 347 550 l 347 593 l 390 593 l 390 636 l 433 636 l 433 679 l 478 679 l 478 810 l 43 810 z "},"ƶ":{"ha":694,"x_min":43,"x_max":608,"o":"m 43 550 l 43 636 l 608 636 l 608 550 l 564 550 l 564 506 l 521 506 l 521 463 l 478 463 l 478 419 l 433 419 l 433 375 l 608 375 l 608 289 l 347 289 l 347 246 l 304 246 l 304 203 l 261 203 l 261 158 l 217 158 l 217 115 l 608 115 l 608 28 l 43 28 l 43 115 l 86 115 l 86 158 l 131 158 l 131 203 l 174 203 l 174 246 l 217 246 l 217 289 l 43 289 l 43 375 l 304 375 l 304 419 l 347 419 l 347 463 l 390 463 l 390 506 l 433 506 l 433 550 l 43 550 z "},"Ʒ":{"ha":694,"x_min":43,"x_max":608,"o":"m 43 810 l 43 897 l 608 897 l 608 810 l 564 810 l 564 767 l 521 767 l 521 722 l 478 722 l 478 679 l 433 679 l 433 636 l 390 636 l 390 593 l 347 593 l 347 550 l 521 550 l 521 506 l 564 506 l 564 463 l 608 463 l 608 115 l 564 115 l 564 72 l 521 72 l 521 28 l 131 28 l 131 72 l 86 72 l 86 115 l 43 115 l 43 203 l 174 203 l 174 158 l 217 158 l 217 115 l 433 115 l 433 158 l 478 158 l 478 419 l 433 419 l 433 463 l 174 463 l 174 550 l 217 550 l 217 593 l 261 593 l 261 636 l 304 636 l 304 679 l 347 679 l 347 722 l 390 722 l 390 767 l 433 767 l 433 810 l 43 810 z "},"Ǎ":{"ha":694,"x_min":43,"x_max":608,"o":"m 131 853 l 131 897 l 521 897 l 521 853 l 564 853 l 564 810 l 608 810 l 608 28 l 478 28 l 478 375 l 174 375 l 174 28 l 43 28 l 43 810 l 86 810 l 86 853 l 131 853 m 433 767 l 433 810 l 217 810 l 217 767 l 174 767 l 174 463 l 478 463 l 478 767 l 433 767 m 131 1069 l 131 1114 l 261 1114 l 261 1069 l 304 1069 l 304 1026 l 347 1026 l 347 1069 l 390 1069 l 390 1114 l 521 1114 l 521 1069 l 478 1069 l 478 1026 l 433 1026 l 433 983 l 390 983 l 390 940 l 261 940 l 261 983 l 217 983 l 217 1026 l 174 1026 l 174 1069 l 131 1069 z "},"ǎ":{"ha":694,"x_min":43,"x_max":608,"o":"m 86 550 l 86 636 l 521 636 l 521 593 l 564 593 l 564 550 l 608 550 l 608 28 l 131 28 l 131 72 l 86 72 l 86 115 l 43 115 l 43 332 l 86 332 l 86 375 l 131 375 l 131 419 l 478 419 l 478 506 l 433 506 l 433 550 l 86 550 m 478 115 l 478 332 l 217 332 l 217 289 l 174 289 l 174 158 l 217 158 l 217 115 l 478 115 m 131 853 l 131 897 l 261 897 l 261 853 l 304 853 l 304 810 l 347 810 l 347 853 l 390 853 l 390 897 l 521 897 l 521 853 l 478 853 l 478 810 l 433 810 l 433 767 l 390 767 l 390 722 l 261 722 l 261 767 l 217 767 l 217 810 l 174 810 l 174 853 l 131 853 z "},"Ǐ":{"ha":694,"x_min":131,"x_max":521,"o":"m 174 810 l 174 897 l 478 897 l 478 810 l 390 810 l 390 115 l 478 115 l 478 28 l 174 28 l 174 115 l 261 115 l 261 810 l 174 810 m 131 1069 l 131 1114 l 261 1114 l 261 1069 l 304 1069 l 304 1026 l 347 1026 l 347 1069 l 390 1069 l 390 1114 l 521 1114 l 521 1069 l 478 1069 l 478 1026 l 433 1026 l 433 983 l 390 983 l 390 940 l 261 940 l 261 983 l 217 983 l 217 1026 l 174 1026 l 174 1069 l 131 1069 z "},"ǐ":{"ha":694,"x_min":131,"x_max":521,"o":"m 174 550 l 174 636 l 390 636 l 390 115 l 478 115 l 478 28 l 174 28 l 174 115 l 261 115 l 261 550 l 174 550 m 131 853 l 131 897 l 261 897 l 261 853 l 304 853 l 304 810 l 347 810 l 347 853 l 390 853 l 390 897 l 521 897 l 521 853 l 478 853 l 478 810 l 433 810 l 433 767 l 390 767 l 390 722 l 261 722 l 261 767 l 217 767 l 217 810 l 174 810 l 174 853 l 131 853 z "},"Ǒ":{"ha":694,"x_min":43,"x_max":608,"o":"m 131 853 l 131 897 l 521 897 l 521 853 l 564 853 l 564 810 l 608 810 l 608 115 l 564 115 l 564 72 l 521 72 l 521 28 l 131 28 l 131 72 l 86 72 l 86 115 l 43 115 l 43 810 l 86 810 l 86 853 l 131 853 m 433 767 l 433 810 l 217 810 l 217 767 l 174 767 l 174 158 l 217 158 l 217 115 l 433 115 l 433 158 l 478 158 l 478 767 l 433 767 m 131 1069 l 131 1114 l 261 1114 l 261 1069 l 304 1069 l 304 1026 l 347 1026 l 347 1069 l 390 1069 l 390 1114 l 521 1114 l 521 1069 l 478 1069 l 478 1026 l 433 1026 l 433 983 l 390 983 l 390 940 l 261 940 l 261 983 l 217 983 l 217 1026 l 174 1026 l 174 1069 l 131 1069 z "},"ǒ":{"ha":694,"x_min":43,"x_max":608,"o":"m 131 593 l 131 636 l 521 636 l 521 593 l 564 593 l 564 550 l 608 550 l 608 115 l 564 115 l 564 72 l 521 72 l 521 28 l 131 28 l 131 72 l 86 72 l 86 115 l 43 115 l 43 550 l 86 550 l 86 593 l 131 593 m 433 506 l 433 550 l 217 550 l 217 506 l 174 506 l 174 158 l 217 158 l 217 115 l 433 115 l 433 158 l 478 158 l 478 506 l 433 506 m 131 853 l 131 897 l 261 897 l 261 853 l 304 853 l 304 810 l 347 810 l 347 853 l 390 853 l 390 897 l 521 897 l 521 853 l 478 853 l 478 810 l 433 810 l 433 767 l 390 767 l 390 722 l 261 722 l 261 767 l 217 767 l 217 810 l 174 810 l 174 853 l 131 853 z "},"Ǔ":{"ha":694,"x_min":43,"x_max":608,"o":"m 43 115 l 43 897 l 174 897 l 174 158 l 217 158 l 217 115 l 433 115 l 433 158 l 478 158 l 478 897 l 608 897 l 608 115 l 564 115 l 564 72 l 521 72 l 521 28 l 131 28 l 131 72 l 86 72 l 86 115 l 43 115 m 131 1069 l 131 1114 l 261 1114 l 261 1069 l 304 1069 l 304 1026 l 347 1026 l 347 1069 l 390 1069 l 390 1114 l 521 1114 l 521 1069 l 478 1069 l 478 1026 l 433 1026 l 433 983 l 390 983 l 390 940 l 261 940 l 261 983 l 217 983 l 217 1026 l 174 1026 l 174 1069 l 131 1069 z "},"ǔ":{"ha":694,"x_min":43,"x_max":608,"o":"m 43 115 l 43 636 l 174 636 l 174 158 l 217 158 l 217 115 l 478 115 l 478 636 l 608 636 l 608 28 l 131 28 l 131 72 l 86 72 l 86 115 l 43 115 m 131 853 l 131 897 l 261 897 l 261 853 l 304 853 l 304 810 l 347 810 l 347 853 l 390 853 l 390 897 l 521 897 l 521 853 l 478 853 l 478 810 l 433 810 l 433 767 l 390 767 l 390 722 l 261 722 l 261 767 l 217 767 l 217 810 l 174 810 l 174 853 l 131 853 z "},"Ǣ":{"ha":694,"x_min":0,"x_max":651,"o":"m 86 853 l 86 897 l 651 897 l 651 810 l 433 810 l 433 506 l 651 506 l 651 419 l 433 419 l 433 115 l 651 115 l 651 28 l 304 28 l 304 419 l 131 419 l 131 28 l 0 28 l 0 810 l 43 810 l 43 853 l 86 853 m 304 506 l 304 810 l 174 810 l 174 767 l 131 767 l 131 506 l 304 506 m 86 983 l 86 1069 l 564 1069 l 564 983 l 86 983 z "},"ǣ":{"ha":694,"x_min":0,"x_max":651,"o":"m 43 550 l 43 636 l 304 636 l 304 593 l 347 593 l 347 636 l 564 636 l 564 593 l 608 593 l 608 550 l 651 550 l 651 289 l 390 289 l 390 158 l 433 158 l 433 115 l 521 115 l 521 158 l 651 158 l 651 72 l 608 72 l 608 28 l 347 28 l 347 72 l 304 72 l 304 28 l 86 28 l 86 72 l 43 72 l 43 115 l 0 115 l 0 332 l 43 332 l 43 375 l 86 375 l 86 419 l 261 419 l 261 550 l 43 550 m 478 506 l 478 550 l 390 550 l 390 375 l 521 375 l 521 506 l 478 506 m 261 115 l 261 332 l 174 332 l 174 289 l 131 289 l 131 158 l 174 158 l 174 115 l 261 115 m 86 722 l 86 810 l 564 810 l 564 722 l 86 722 z "},"Ǥ":{"ha":694,"x_min":43,"x_max":694,"o":"m 131 853 l 131 897 l 521 897 l 521 853 l 564 853 l 564 810 l 608 810 l 608 679 l 478 679 l 478 767 l 433 767 l 433 810 l 217 810 l 217 767 l 174 767 l 174 158 l 217 158 l 217 115 l 433 115 l 433 158 l 478 158 l 478 246 l 304 246 l 304 332 l 478 332 l 478 419 l 304 419 l 304 506 l 608 506 l 608 332 l 694 332 l 694 246 l 608 246 l 608 115 l 564 115 l 564 72 l 521 72 l 521 28 l 131 28 l 131 72 l 86 72 l 86 115 l 43 115 l 43 810 l 86 810 l 86 853 l 131 853 z "},"ǥ":{"ha":694,"x_min":43,"x_max":694,"o":"m 131 593 l 131 636 l 608 636 l 608 375 l 694 375 l 694 289 l 608 289 l 608 -101 l 564 -101 l 564 -144 l 521 -144 l 521 -189 l 86 -189 l 86 -101 l 433 -101 l 433 -58 l 478 -58 l 478 28 l 131 28 l 131 72 l 86 72 l 86 115 l 43 115 l 43 550 l 86 550 l 86 593 l 131 593 m 478 375 l 478 550 l 217 550 l 217 506 l 174 506 l 174 158 l 217 158 l 217 115 l 478 115 l 478 289 l 304 289 l 304 375 l 478 375 z "},"Ǧ":{"ha":694,"x_min":43,"x_max":608,"o":"m 131 853 l 131 897 l 521 897 l 521 853 l 564 853 l 564 810 l 608 810 l 608 679 l 478 679 l 478 767 l 433 767 l 433 810 l 217 810 l 217 767 l 174 767 l 174 158 l 217 158 l 217 115 l 433 115 l 433 158 l 478 158 l 478 419 l 304 419 l 304 506 l 608 506 l 608 115 l 564 115 l 564 72 l 521 72 l 521 28 l 131 28 l 131 72 l 86 72 l 86 115 l 43 115 l 43 810 l 86 810 l 86 853 l 131 853 m 131 1069 l 131 1114 l 261 1114 l 261 1069 l 304 1069 l 304 1026 l 347 1026 l 347 1069 l 390 1069 l 390 1114 l 521 1114 l 521 1069 l 478 1069 l 478 1026 l 433 1026 l 433 983 l 390 983 l 390 940 l 261 940 l 261 983 l 217 983 l 217 1026 l 174 1026 l 174 1069 l 131 1069 z "},"ǧ":{"ha":694,"x_min":43,"x_max":608,"o":"m 131 593 l 131 636 l 608 636 l 608 -101 l 564 -101 l 564 -144 l 521 -144 l 521 -189 l 86 -189 l 86 -101 l 433 -101 l 433 -58 l 478 -58 l 478 28 l 131 28 l 131 72 l 86 72 l 86 115 l 43 115 l 43 550 l 86 550 l 86 593 l 131 593 m 478 115 l 478 550 l 217 550 l 217 506 l 174 506 l 174 158 l 217 158 l 217 115 l 478 115 m 131 853 l 131 897 l 261 897 l 261 853 l 304 853 l 304 810 l 347 810 l 347 853 l 390 853 l 390 897 l 521 897 l 521 853 l 478 853 l 478 810 l 433 810 l 433 767 l 390 767 l 390 722 l 261 722 l 261 767 l 217 767 l 217 810 l 174 810 l 174 853 l 131 853 z "},"Ǩ":{"ha":694,"x_min":43,"x_max":608,"o":"m 43 28 l 43 897 l 174 897 l 174 550 l 217 550 l 217 593 l 261 593 l 261 636 l 304 636 l 304 679 l 347 679 l 347 722 l 390 722 l 390 767 l 433 767 l 433 810 l 478 810 l 478 853 l 521 853 l 521 897 l 608 897 l 608 810 l 564 810 l 564 767 l 521 767 l 521 722 l 478 722 l 478 679 l 433 679 l 433 636 l 390 636 l 390 593 l 347 593 l 347 550 l 304 550 l 304 506 l 261 506 l 261 419 l 304 419 l 304 375 l 347 375 l 347 332 l 390 332 l 390 289 l 433 289 l 433 246 l 478 246 l 478 203 l 521 203 l 521 158 l 564 158 l 564 115 l 608 115 l 608 28 l 521 28 l 521 72 l 478 72 l 478 115 l 433 115 l 433 158 l 390 158 l 390 203 l 347 203 l 347 246 l 304 246 l 304 289 l 261 289 l 261 332 l 217 332 l 217 375 l 174 375 l 174 28 l 43 28 m 131 1069 l 131 1114 l 261 1114 l 261 1069 l 304 1069 l 304 1026 l 347 1026 l 347 1069 l 390 1069 l 390 1114 l 521 1114 l 521 1069 l 478 1069 l 478 1026 l 433 1026 l 433 983 l 390 983 l 390 940 l 261 940 l 261 983 l 217 983 l 217 1026 l 174 1026 l 174 1069 l 131 1069 z "},"ǩ":{"ha":694,"x_min":86,"x_max":608,"o":"m 86 28 l 86 897 l 217 897 l 217 375 l 261 375 l 261 419 l 304 419 l 304 463 l 347 463 l 347 506 l 390 506 l 390 550 l 433 550 l 433 593 l 478 593 l 478 636 l 608 636 l 608 593 l 564 593 l 564 550 l 521 550 l 521 506 l 478 506 l 478 463 l 433 463 l 433 419 l 390 419 l 390 375 l 347 375 l 347 289 l 390 289 l 390 246 l 433 246 l 433 203 l 478 203 l 478 158 l 521 158 l 521 115 l 564 115 l 564 72 l 608 72 l 608 28 l 478 28 l 478 72 l 433 72 l 433 115 l 390 115 l 390 158 l 347 158 l 347 203 l 304 203 l 304 246 l 261 246 l 261 289 l 217 289 l 217 28 l 86 28 m 131 1069 l 131 1114 l 261 1114 l 261 1069 l 304 1069 l 304 1026 l 347 1026 l 347 1069 l 390 1069 l 390 1114 l 521 1114 l 521 1069 l 478 1069 l 478 1026 l 433 1026 l 433 983 l 390 983 l 390 940 l 261 940 l 261 983 l 217 983 l 217 1026 l 174 1026 l 174 1069 l 131 1069 z "},"Ǫ":{"ha":694,"x_min":43,"x_max":608,"o":"m 131 853 l 131 897 l 521 897 l 521 853 l 564 853 l 564 810 l 608 810 l 608 115 l 564 115 l 564 72 l 521 72 l 521 28 l 433 28 l 433 -15 l 390 -15 l 390 -58 l 347 -58 l 347 -101 l 478 -101 l 478 -189 l 261 -189 l 261 -144 l 217 -144 l 217 -15 l 261 -15 l 261 28 l 131 28 l 131 72 l 86 72 l 86 115 l 43 115 l 43 810 l 86 810 l 86 853 l 131 853 m 433 767 l 433 810 l 217 810 l 217 767 l 174 767 l 174 158 l 217 158 l 217 115 l 433 115 l 433 158 l 478 158 l 478 767 l 433 767 z "},"ǫ":{"ha":694,"x_min":43,"x_max":608,"o":"m 131 593 l 131 636 l 521 636 l 521 593 l 564 593 l 564 550 l 608 550 l 608 115 l 564 115 l 564 72 l 521 72 l 521 28 l 433 28 l 433 -15 l 390 -15 l 390 -58 l 347 -58 l 347 -101 l 478 -101 l 478 -189 l 261 -189 l 261 -144 l 217 -144 l 217 -15 l 261 -15 l 261 28 l 131 28 l 131 72 l 86 72 l 86 115 l 43 115 l 43 550 l 86 550 l 86 593 l 131 593 m 433 506 l 433 550 l 217 550 l 217 506 l 174 506 l 174 158 l 217 158 l 217 115 l 433 115 l 433 158 l 478 158 l 478 506 l 433 506 z "},"Ǭ":{"ha":694,"x_min":43,"x_max":608,"o":"m 131 853 l 131 897 l 521 897 l 521 853 l 564 853 l 564 810 l 608 810 l 608 115 l 564 115 l 564 72 l 521 72 l 521 28 l 433 28 l 433 -15 l 390 -15 l 390 -58 l 347 -58 l 347 -101 l 478 -101 l 478 -189 l 261 -189 l 261 -144 l 217 -144 l 217 -15 l 261 -15 l 261 28 l 131 28 l 131 72 l 86 72 l 86 115 l 43 115 l 43 810 l 86 810 l 86 853 l 131 853 m 433 767 l 433 810 l 217 810 l 217 767 l 174 767 l 174 158 l 217 158 l 217 115 l 433 115 l 433 158 l 478 158 l 478 767 l 433 767 m 131 983 l 131 1069 l 521 1069 l 521 983 l 131 983 z "},"ǭ":{"ha":694,"x_min":43,"x_max":608,"o":"m 131 593 l 131 636 l 521 636 l 521 593 l 564 593 l 564 550 l 608 550 l 608 115 l 564 115 l 564 72 l 521 72 l 521 28 l 433 28 l 433 -15 l 390 -15 l 390 -58 l 347 -58 l 347 -101 l 478 -101 l 478 -189 l 261 -189 l 261 -144 l 217 -144 l 217 -15 l 261 -15 l 261 28 l 131 28 l 131 72 l 86 72 l 86 115 l 43 115 l 43 550 l 86 550 l 86 593 l 131 593 m 433 506 l 433 550 l 217 550 l 217 506 l 174 506 l 174 158 l 217 158 l 217 115 l 433 115 l 433 158 l 478 158 l 478 506 l 433 506 m 131 722 l 131 810 l 521 810 l 521 722 l 131 722 z "},"Ǯ":{"ha":694,"x_min":43,"x_max":608,"o":"m 43 810 l 43 897 l 608 897 l 608 810 l 564 810 l 564 767 l 521 767 l 521 722 l 478 722 l 478 679 l 433 679 l 433 636 l 390 636 l 390 593 l 347 593 l 347 550 l 521 550 l 521 506 l 564 506 l 564 463 l 608 463 l 608 115 l 564 115 l 564 72 l 521 72 l 521 28 l 131 28 l 131 72 l 86 72 l 86 115 l 43 115 l 43 203 l 174 203 l 174 158 l 217 158 l 217 115 l 433 115 l 433 158 l 478 158 l 478 419 l 433 419 l 433 463 l 174 463 l 174 550 l 217 550 l 217 593 l 261 593 l 261 636 l 304 636 l 304 679 l 347 679 l 347 722 l 390 722 l 390 767 l 433 767 l 433 810 l 43 810 m 131 1069 l 131 1114 l 261 1114 l 261 1069 l 304 1069 l 304 1026 l 347 1026 l 347 1069 l 390 1069 l 390 1114 l 521 1114 l 521 1069 l 478 1069 l 478 1026 l 433 1026 l 433 983 l 390 983 l 390 940 l 261 940 l 261 983 l 217 983 l 217 1026 l 174 1026 l 174 1069 l 131 1069 z "},"ǯ":{"ha":694,"x_min":43,"x_max":608,"o":"m 43 550 l 43 636 l 608 636 l 608 550 l 564 550 l 564 506 l 521 506 l 521 463 l 478 463 l 478 419 l 433 419 l 433 375 l 390 375 l 390 332 l 347 332 l 347 289 l 521 289 l 521 246 l 564 246 l 564 203 l 608 203 l 608 -101 l 564 -101 l 564 -144 l 521 -144 l 521 -189 l 131 -189 l 131 -144 l 86 -144 l 86 -101 l 43 -101 l 43 -15 l 174 -15 l 174 -58 l 217 -58 l 217 -101 l 433 -101 l 433 -58 l 478 -58 l 478 158 l 433 158 l 433 203 l 174 203 l 174 289 l 217 289 l 217 332 l 261 332 l 261 375 l 304 375 l 304 419 l 347 419 l 347 463 l 390 463 l 390 506 l 433 506 l 433 550 l 43 550 m 131 853 l 131 897 l 261 897 l 261 853 l 304 853 l 304 810 l 347 810 l 347 853 l 390 853 l 390 897 l 521 897 l 521 853 l 478 853 l 478 810 l 433 810 l 433 767 l 390 767 l 390 722 l 261 722 l 261 767 l 217 767 l 217 810 l 174 810 l 174 853 l 131 853 z "},"ǰ":{"ha":694,"x_min":86,"x_max":694,"o":"m 347 550 l 347 636 l 564 636 l 564 -101 l 521 -101 l 521 -144 l 478 -144 l 478 -189 l 174 -189 l 174 -144 l 131 -144 l 131 -101 l 86 -101 l 86 28 l 217 28 l 217 -58 l 261 -58 l 261 -101 l 390 -101 l 390 -58 l 433 -58 l 433 550 l 347 550 m 304 853 l 304 897 l 433 897 l 433 853 l 478 853 l 478 810 l 521 810 l 521 853 l 564 853 l 564 897 l 694 897 l 694 853 l 651 853 l 651 810 l 608 810 l 608 767 l 564 767 l 564 722 l 433 722 l 433 767 l 390 767 l 390 810 l 347 810 l 347 853 l 304 853 z "},"Ǵ":{"ha":694,"x_min":43,"x_max":608,"o":"m 131 853 l 131 897 l 521 897 l 521 853 l 564 853 l 564 810 l 608 810 l 608 679 l 478 679 l 478 767 l 433 767 l 433 810 l 217 810 l 217 767 l 174 767 l 174 158 l 217 158 l 217 115 l 433 115 l 433 158 l 478 158 l 478 419 l 304 419 l 304 506 l 608 506 l 608 115 l 564 115 l 564 72 l 521 72 l 521 28 l 131 28 l 131 72 l 86 72 l 86 115 l 43 115 l 43 810 l 86 810 l 86 853 l 131 853 m 390 1069 l 390 1114 l 521 1114 l 521 1069 l 478 1069 l 478 1026 l 433 1026 l 433 983 l 390 983 l 390 940 l 261 940 l 261 983 l 304 983 l 304 1026 l 347 1026 l 347 1069 l 390 1069 z "},"ǵ":{"ha":694,"x_min":43,"x_max":608,"o":"m 131 593 l 131 636 l 608 636 l 608 -101 l 564 -101 l 564 -144 l 521 -144 l 521 -189 l 86 -189 l 86 -101 l 433 -101 l 433 -58 l 478 -58 l 478 28 l 131 28 l 131 72 l 86 72 l 86 115 l 43 115 l 43 550 l 86 550 l 86 593 l 131 593 m 478 115 l 478 550 l 217 550 l 217 506 l 174 506 l 174 158 l 217 158 l 217 115 l 478 115 m 390 853 l 390 897 l 521 897 l 521 853 l 478 853 l 478 810 l 433 810 l 433 767 l 390 767 l 390 722 l 261 722 l 261 767 l 304 767 l 304 810 l 347 810 l 347 853 l 390 853 z "},"Ǽ":{"ha":694,"x_min":0,"x_max":651,"o":"m 86 853 l 86 897 l 651 897 l 651 810 l 433 810 l 433 506 l 651 506 l 651 419 l 433 419 l 433 115 l 651 115 l 651 28 l 304 28 l 304 419 l 131 419 l 131 28 l 0 28 l 0 810 l 43 810 l 43 853 l 86 853 m 304 506 l 304 810 l 174 810 l 174 767 l 131 767 l 131 506 l 304 506 m 390 1069 l 390 1114 l 521 1114 l 521 1069 l 478 1069 l 478 1026 l 433 1026 l 433 983 l 390 983 l 390 940 l 261 940 l 261 983 l 304 983 l 304 1026 l 347 1026 l 347 1069 l 390 1069 z "},"ǽ":{"ha":694,"x_min":0,"x_max":651,"o":"m 43 550 l 43 636 l 304 636 l 304 593 l 347 593 l 347 636 l 564 636 l 564 593 l 608 593 l 608 550 l 651 550 l 651 289 l 390 289 l 390 158 l 433 158 l 433 115 l 521 115 l 521 158 l 651 158 l 651 72 l 608 72 l 608 28 l 347 28 l 347 72 l 304 72 l 304 28 l 86 28 l 86 72 l 43 72 l 43 115 l 0 115 l 0 332 l 43 332 l 43 375 l 86 375 l 86 419 l 261 419 l 261 550 l 43 550 m 478 506 l 478 550 l 390 550 l 390 375 l 521 375 l 521 506 l 478 506 m 261 115 l 261 332 l 174 332 l 174 289 l 131 289 l 131 158 l 174 158 l 174 115 l 261 115 m 390 853 l 390 897 l 521 897 l 521 853 l 478 853 l 478 810 l 433 810 l 433 767 l 390 767 l 390 722 l 261 722 l 261 767 l 304 767 l 304 810 l 347 810 l 347 853 l 390 853 z "},"Ǿ":{"ha":694,"x_min":0,"x_max":651,"o":"m 131 853 l 131 897 l 521 897 l 521 853 l 564 853 l 564 810 l 651 810 l 651 722 l 608 722 l 608 115 l 564 115 l 564 72 l 521 72 l 521 28 l 131 28 l 131 72 l 86 72 l 86 115 l 43 115 l 43 158 l 0 158 l 0 246 l 43 246 l 43 810 l 86 810 l 86 853 l 131 853 m 433 767 l 433 810 l 217 810 l 217 767 l 174 767 l 174 419 l 217 419 l 217 463 l 261 463 l 261 506 l 304 506 l 304 550 l 347 550 l 347 593 l 390 593 l 390 636 l 433 636 l 433 679 l 478 679 l 478 767 l 433 767 m 478 158 l 478 550 l 433 550 l 433 506 l 390 506 l 390 463 l 347 463 l 347 419 l 304 419 l 304 375 l 261 375 l 261 332 l 217 332 l 217 289 l 174 289 l 174 158 l 217 158 l 217 115 l 433 115 l 433 158 l 478 158 m 390 1069 l 390 1114 l 521 1114 l 521 1069 l 478 1069 l 478 1026 l 433 1026 l 433 983 l 390 983 l 390 940 l 261 940 l 261 983 l 304 983 l 304 1026 l 347 1026 l 347 1069 l 390 1069 z "},"ǿ":{"ha":694,"x_min":0,"x_max":651,"o":"m 131 593 l 131 636 l 521 636 l 521 593 l 564 593 l 564 636 l 651 636 l 651 550 l 608 550 l 608 115 l 564 115 l 564 72 l 521 72 l 521 28 l 131 28 l 131 72 l 86 72 l 86 28 l 0 28 l 0 115 l 43 115 l 43 550 l 86 550 l 86 593 l 131 593 m 433 506 l 433 550 l 217 550 l 217 506 l 174 506 l 174 289 l 217 289 l 217 332 l 261 332 l 261 375 l 304 375 l 304 419 l 347 419 l 347 463 l 390 463 l 390 506 l 433 506 m 478 158 l 478 419 l 433 419 l 433 375 l 390 375 l 390 332 l 347 332 l 347 289 l 304 289 l 304 246 l 261 246 l 261 203 l 217 203 l 217 115 l 433 115 l 433 158 l 478 158 m 390 853 l 390 897 l 521 897 l 521 853 l 478 853 l 478 810 l 433 810 l 433 767 l 390 767 l 390 722 l 261 722 l 261 767 l 304 767 l 304 810 l 347 810 l 347 853 l 390 853 z "},"Ș":{"ha":694,"x_min":43,"x_max":608,"o":"m 261 -144 l 261 -15 l 390 -15 l 390 -144 l 347 -144 l 347 -189 l 304 -189 l 304 -232 l 174 -232 l 174 -189 l 217 -189 l 217 -144 l 261 -144 m 131 853 l 131 897 l 521 897 l 521 853 l 564 853 l 564 810 l 608 810 l 608 679 l 478 679 l 478 767 l 433 767 l 433 810 l 217 810 l 217 767 l 174 767 l 174 550 l 217 550 l 217 506 l 521 506 l 521 463 l 564 463 l 564 419 l 608 419 l 608 115 l 564 115 l 564 72 l 521 72 l 521 28 l 131 28 l 131 72 l 86 72 l 86 115 l 43 115 l 43 246 l 174 246 l 174 158 l 217 158 l 217 115 l 433 115 l 433 158 l 478 158 l 478 375 l 433 375 l 433 419 l 131 419 l 131 463 l 86 463 l 86 506 l 43 506 l 43 810 l 86 810 l 86 853 l 131 853 z "},"ș":{"ha":694,"x_min":43,"x_max":608,"o":"m 261 -144 l 261 -15 l 390 -15 l 390 -144 l 347 -144 l 347 -189 l 304 -189 l 304 -232 l 174 -232 l 174 -189 l 217 -189 l 217 -144 l 261 -144 m 131 593 l 131 636 l 521 636 l 521 593 l 564 593 l 564 550 l 608 550 l 608 506 l 433 506 l 433 550 l 217 550 l 217 506 l 174 506 l 174 419 l 217 419 l 217 375 l 521 375 l 521 332 l 564 332 l 564 289 l 608 289 l 608 115 l 564 115 l 564 72 l 521 72 l 521 28 l 131 28 l 131 72 l 86 72 l 86 115 l 43 115 l 43 158 l 217 158 l 217 115 l 433 115 l 433 158 l 478 158 l 478 246 l 433 246 l 433 289 l 131 289 l 131 332 l 86 332 l 86 375 l 43 375 l 43 550 l 86 550 l 86 593 l 131 593 z "},"Ț":{"ha":694,"x_min":43,"x_max":608,"o":"m 261 -144 l 261 -15 l 390 -15 l 390 -144 l 347 -144 l 347 -189 l 304 -189 l 304 -232 l 174 -232 l 174 -189 l 217 -189 l 217 -144 l 261 -144 m 43 810 l 43 897 l 608 897 l 608 810 l 390 810 l 390 28 l 261 28 l 261 810 l 43 810 z "},"ț":{"ha":694,"x_min":43,"x_max":608,"o":"m 390 -144 l 390 -15 l 521 -15 l 521 -144 l 478 -144 l 478 -189 l 433 -189 l 433 -232 l 304 -232 l 304 -189 l 347 -189 l 347 -144 l 390 -144 m 217 636 l 217 897 l 347 897 l 347 636 l 521 636 l 521 550 l 347 550 l 347 158 l 390 158 l 390 115 l 608 115 l 608 28 l 304 28 l 304 72 l 261 72 l 261 115 l 217 115 l 217 550 l 43 550 l 43 636 l 217 636 z "},"Ȳ":{"ha":694,"x_min":43,"x_max":608,"o":"m 43 767 l 43 897 l 174 897 l 174 767 l 217 767 l 217 679 l 261 679 l 261 593 l 304 593 l 304 506 l 347 506 l 347 593 l 390 593 l 390 679 l 433 679 l 433 767 l 478 767 l 478 897 l 608 897 l 608 767 l 564 767 l 564 679 l 521 679 l 521 593 l 478 593 l 478 506 l 433 506 l 433 419 l 390 419 l 390 28 l 261 28 l 261 419 l 217 419 l 217 506 l 174 506 l 174 593 l 131 593 l 131 679 l 86 679 l 86 767 l 43 767 m 131 983 l 131 1069 l 521 1069 l 521 983 l 131 983 z "},"ȳ":{"ha":694,"x_min":43,"x_max":608,"o":"m 43 115 l 43 636 l 174 636 l 174 158 l 217 158 l 217 115 l 478 115 l 478 636 l 608 636 l 608 -101 l 564 -101 l 564 -144 l 521 -144 l 521 -189 l 86 -189 l 86 -101 l 433 -101 l 433 -58 l 478 -58 l 478 28 l 131 28 l 131 72 l 86 72 l 86 115 l 43 115 m 131 722 l 131 810 l 521 810 l 521 722 l 131 722 z "},"ȷ":{"ha":694,"x_min":86,"x_max":564,"o":"m 347 550 l 347 636 l 564 636 l 564 -101 l 521 -101 l 521 -144 l 478 -144 l 478 -189 l 174 -189 l 174 -144 l 131 -144 l 131 -101 l 86 -101 l 86 28 l 217 28 l 217 -58 l 261 -58 l 261 -101 l 390 -101 l 390 -58 l 433 -58 l 433 550 l 347 550 z "},"ɔ":{"ha":694,"x_min":43,"x_max":608,"o":"m 131 593 l 131 636 l 521 636 l 521 593 l 564 593 l 564 550 l 608 550 l 608 115 l 564 115 l 564 72 l 521 72 l 521 28 l 131 28 l 131 72 l 86 72 l 86 115 l 43 115 l 43 203 l 174 203 l 174 158 l 217 158 l 217 115 l 433 115 l 433 158 l 478 158 l 478 506 l 433 506 l 433 550 l 217 550 l 217 506 l 174 506 l 174 463 l 43 463 l 43 550 l 86 550 l 86 593 l 131 593 z "},"ɘ":{"ha":694,"x_min":43,"x_max":608,"o":"m 131 593 l 131 636 l 521 636 l 521 593 l 564 593 l 564 550 l 608 550 l 608 115 l 564 115 l 564 72 l 521 72 l 521 28 l 86 28 l 86 72 l 43 72 l 43 158 l 174 158 l 174 115 l 433 115 l 433 158 l 478 158 l 478 289 l 43 289 l 43 550 l 86 550 l 86 593 l 131 593 m 433 506 l 433 550 l 217 550 l 217 506 l 174 506 l 174 375 l 478 375 l 478 506 l 433 506 z "},"ə":{"ha":694,"x_min":43,"x_max":608,"o":"m 86 593 l 86 636 l 521 636 l 521 593 l 564 593 l 564 550 l 608 550 l 608 115 l 564 115 l 564 72 l 521 72 l 521 28 l 131 28 l 131 72 l 86 72 l 86 115 l 43 115 l 43 375 l 478 375 l 478 506 l 433 506 l 433 550 l 174 550 l 174 506 l 43 506 l 43 593 l 86 593 m 478 158 l 478 289 l 174 289 l 174 158 l 217 158 l 217 115 l 433 115 l 433 158 l 478 158 z "},"ɛ":{"ha":694,"x_min":43,"x_max":608,"o":"m 131 593 l 131 636 l 521 636 l 521 593 l 564 593 l 564 550 l 608 550 l 608 463 l 478 463 l 478 506 l 433 506 l 433 550 l 217 550 l 217 506 l 174 506 l 174 419 l 217 419 l 217 375 l 433 375 l 433 289 l 217 289 l 217 246 l 174 246 l 174 158 l 217 158 l 217 115 l 433 115 l 433 158 l 478 158 l 478 203 l 608 203 l 608 115 l 564 115 l 564 72 l 521 72 l 521 28 l 131 28 l 131 72 l 86 72 l 86 115 l 43 115 l 43 289 l 86 289 l 86 375 l 43 375 l 43 550 l 86 550 l 86 593 l 131 593 z "},"ɲ":{"ha":694,"x_min":0,"x_max":651,"o":"m 86 -101 l 86 636 l 564 636 l 564 593 l 608 593 l 608 550 l 651 550 l 651 28 l 521 28 l 521 506 l 478 506 l 478 550 l 217 550 l 217 -144 l 174 -144 l 174 -189 l 0 -189 l 0 -144 l 43 -144 l 43 -101 l 86 -101 z "},"ʒ":{"ha":694,"x_min":43,"x_max":608,"o":"m 43 550 l 43 636 l 608 636 l 608 550 l 564 550 l 564 506 l 521 506 l 521 463 l 478 463 l 478 419 l 433 419 l 433 375 l 390 375 l 390 332 l 347 332 l 347 289 l 521 289 l 521 246 l 564 246 l 564 203 l 608 203 l 608 -101 l 564 -101 l 564 -144 l 521 -144 l 521 -189 l 131 -189 l 131 -144 l 86 -144 l 86 -101 l 43 -101 l 43 -15 l 174 -15 l 174 -58 l 217 -58 l 217 -101 l 433 -101 l 433 -58 l 478 -58 l 478 158 l 433 158 l 433 203 l 174 203 l 174 289 l 217 289 l 217 332 l 261 332 l 261 375 l 304 375 l 304 419 l 347 419 l 347 463 l 390 463 l 390 506 l 433 506 l 433 550 l 43 550 z "},"ʻ":{"ha":694,"x_min":261,"x_max":478,"o":"m 347 1069 l 347 1114 l 478 1114 l 478 1069 l 433 1069 l 433 1026 l 390 1026 l 390 897 l 261 897 l 261 1026 l 304 1026 l 304 1069 l 347 1069 z "},"ʼ":{"ha":694,"x_min":174,"x_max":390,"o":"m 261 983 l 261 1114 l 390 1114 l 390 983 l 347 983 l 347 940 l 304 940 l 304 897 l 174 897 l 174 940 l 217 940 l 217 983 l 261 983 z "},"ʽ":{"ha":694,"x_min":261,"x_max":478,"o":"m 261 983 l 261 1114 l 390 1114 l 390 983 l 433 983 l 433 940 l 478 940 l 478 897 l 347 897 l 347 940 l 304 940 l 304 983 l 261 983 z "},"ˆ":{"ha":694,"x_min":131,"x_max":521,"o":"m 261 1069 l 261 1114 l 390 1114 l 390 1069 l 433 1069 l 433 1026 l 478 1026 l 478 983 l 521 983 l 521 940 l 390 940 l 390 983 l 347 983 l 347 1026 l 304 1026 l 304 983 l 261 983 l 261 940 l 131 940 l 131 983 l 174 983 l 174 1026 l 217 1026 l 217 1069 l 261 1069 z "},"ˇ":{"ha":694,"x_min":131,"x_max":521,"o":"m 131 1069 l 131 1114 l 261 1114 l 261 1069 l 304 1069 l 304 1026 l 347 1026 l 347 1069 l 390 1069 l 390 1114 l 521 1114 l 521 1069 l 478 1069 l 478 1026 l 433 1026 l 433 983 l 390 983 l 390 940 l 261 940 l 261 983 l 217 983 l 217 1026 l 174 1026 l 174 1069 l 131 1069 z "},"˘":{"ha":694,"x_min":131,"x_max":521,"o":"m 131 1026 l 131 1114 l 261 1114 l 261 1026 l 390 1026 l 390 1114 l 521 1114 l 521 1026 l 478 1026 l 478 983 l 433 983 l 433 940 l 217 940 l 217 983 l 174 983 l 174 1026 l 131 1026 z "},"˙":{"ha":694,"x_min":261,"x_max":390,"o":"m 261 940 l 261 1114 l 390 1114 l 390 940 l 261 940 z "},"˛":{"ha":694,"x_min":217,"x_max":478,"o":"m 261 -15 l 261 28 l 433 28 l 433 -15 l 390 -15 l 390 -58 l 347 -58 l 347 -101 l 478 -101 l 478 -189 l 261 -189 l 261 -144 l 217 -144 l 217 -15 l 261 -15 z "},"˜":{"ha":694,"x_min":86,"x_max":564,"o":"m 131 1069 l 131 1114 l 347 1114 l 347 1069 l 390 1069 l 390 983 l 433 983 l 433 1114 l 564 1114 l 564 983 l 521 983 l 521 940 l 304 940 l 304 983 l 261 983 l 261 1069 l 217 1069 l 217 940 l 86 940 l 86 1069 l 131 1069 z "},"˝":{"ha":694,"x_min":131,"x_max":651,"o":"m 521 1069 l 521 1114 l 651 1114 l 651 1069 l 608 1069 l 608 1026 l 564 1026 l 564 983 l 521 983 l 521 940 l 390 940 l 390 983 l 433 983 l 433 1026 l 478 1026 l 478 1069 l 521 1069 m 261 1069 l 261 1114 l 390 1114 l 390 1069 l 347 1069 l 347 1026 l 304 1026 l 304 983 l 261 983 l 261 940 l 131 940 l 131 983 l 174 983 l 174 1026 l 217 1026 l 217 1069 l 261 1069 z "},"̀":{"ha":694,"x_min":131,"x_max":390,"o":"m 131 1069 l 131 1114 l 261 1114 l 261 1069 l 304 1069 l 304 1026 l 347 1026 l 347 983 l 390 983 l 390 940 l 261 940 l 261 983 l 217 983 l 217 1026 l 174 1026 l 174 1069 l 131 1069 z "},"́":{"ha":694,"x_min":261,"x_max":521,"o":"m 390 1069 l 390 1114 l 521 1114 l 521 1069 l 478 1069 l 478 1026 l 433 1026 l 433 983 l 390 983 l 390 940 l 261 940 l 261 983 l 304 983 l 304 1026 l 347 1026 l 347 1069 l 390 1069 z "},"̂":{"ha":694,"x_min":131,"x_max":521,"o":"m 261 1069 l 261 1114 l 390 1114 l 390 1069 l 433 1069 l 433 1026 l 478 1026 l 478 983 l 521 983 l 521 940 l 390 940 l 390 983 l 347 983 l 347 1026 l 304 1026 l 304 983 l 261 983 l 261 940 l 131 940 l 131 983 l 174 983 l 174 1026 l 217 1026 l 217 1069 l 261 1069 z "},"̃":{"ha":694,"x_min":86,"x_max":564,"o":"m 131 1069 l 131 1114 l 347 1114 l 347 1069 l 390 1069 l 390 983 l 433 983 l 433 1114 l 564 1114 l 564 983 l 521 983 l 521 940 l 304 940 l 304 983 l 261 983 l 261 1069 l 217 1069 l 217 940 l 86 940 l 86 1069 l 131 1069 z "},"̄":{"ha":694,"x_min":131,"x_max":521,"o":"m 131 983 l 131 1069 l 521 1069 l 521 983 l 131 983 z "},"̅":{"ha":694,"x_min":43,"x_max":608,"o":"m 43 983 l 43 1069 l 608 1069 l 608 983 l 43 983 z "},"̆":{"ha":694,"x_min":131,"x_max":521,"o":"m 131 1026 l 131 1114 l 261 1114 l 261 1026 l 390 1026 l 390 1114 l 521 1114 l 521 1026 l 478 1026 l 478 983 l 433 983 l 433 940 l 217 940 l 217 983 l 174 983 l 174 1026 l 131 1026 z "},"̇":{"ha":694,"x_min":261,"x_max":390,"o":"m 261 940 l 261 1114 l 390 1114 l 390 940 l 261 940 z "},"̈":{"ha":694,"x_min":131,"x_max":521,"o":"m 390 940 l 390 1114 l 521 1114 l 521 940 l 390 940 m 131 940 l 131 1114 l 261 1114 l 261 940 l 131 940 z "},"̊":{"ha":694,"x_min":174,"x_max":478,"o":"m 217 1069 l 217 1114 l 433 1114 l 433 1069 l 478 1069 l 478 940 l 433 940 l 433 897 l 217 897 l 217 940 l 174 940 l 174 1069 l 217 1069 m 347 940 l 347 1069 l 304 1069 l 304 940 l 347 940 z "},"̋":{"ha":694,"x_min":131,"x_max":651,"o":"m 521 1069 l 521 1114 l 651 1114 l 651 1069 l 608 1069 l 608 1026 l 564 1026 l 564 983 l 521 983 l 521 940 l 390 940 l 390 983 l 433 983 l 433 1026 l 478 1026 l 478 1069 l 521 1069 m 261 1069 l 261 1114 l 390 1114 l 390 1069 l 347 1069 l 347 1026 l 304 1026 l 304 983 l 261 983 l 261 940 l 131 940 l 131 983 l 174 983 l 174 1026 l 217 1026 l 217 1069 l 261 1069 z "},"̌":{"ha":694,"x_min":131,"x_max":521,"o":"m 131 1069 l 131 1114 l 261 1114 l 261 1069 l 304 1069 l 304 1026 l 347 1026 l 347 1069 l 390 1069 l 390 1114 l 521 1114 l 521 1069 l 478 1069 l 478 1026 l 433 1026 l 433 983 l 390 983 l 390 940 l 261 940 l 261 983 l 217 983 l 217 1026 l 174 1026 l 174 1069 l 131 1069 z "},"̩":{"ha":694,"x_min":261,"x_max":390,"o":"m 261 -189 l 261 -15 l 390 -15 l 390 -189 l 261 -189 z "},"΄":{"ha":694,"x_min":0,"x_max":261,"o":"m 131 1026 l 131 1069 l 261 1069 l 261 1026 l 217 1026 l 217 983 l 174 983 l 174 940 l 131 940 l 131 897 l 0 897 l 0 940 l 43 940 l 43 983 l 86 983 l 86 1026 l 131 1026 z "},"΅":{"ha":694,"x_min":131,"x_max":521,"o":"m 390 722 l 390 897 l 521 897 l 521 722 l 390 722 m 131 722 l 131 897 l 261 897 l 261 722 l 131 722 m 390 1069 l 390 1114 l 521 1114 l 521 1069 l 478 1069 l 478 1026 l 433 1026 l 433 983 l 390 983 l 390 940 l 261 940 l 261 983 l 304 983 l 304 1026 l 347 1026 l 347 1069 l 390 1069 z "},"Ά":{"ha":694,"x_min":0,"x_max":608,"o":"m 131 1026 l 131 1069 l 261 1069 l 261 1026 l 217 1026 l 217 983 l 174 983 l 174 940 l 131 940 l 131 897 l 521 897 l 521 853 l 564 853 l 564 810 l 608 810 l 608 28 l 478 28 l 478 375 l 174 375 l 174 28 l 43 28 l 43 810 l 86 810 l 86 853 l 131 853 l 131 897 l 0 897 l 0 940 l 43 940 l 43 983 l 86 983 l 86 1026 l 131 1026 m 433 767 l 433 810 l 217 810 l 217 767 l 174 767 l 174 463 l 478 463 l 478 767 l 433 767 z "},"·":{"ha":694,"x_min":261,"x_max":390,"o":"m 261 463 l 261 636 l 390 636 l 390 463 l 261 463 z "},"Έ":{"ha":694,"x_min":0,"x_max":651,"o":"m 131 1026 l 131 1069 l 261 1069 l 261 1026 l 217 1026 l 217 983 l 174 983 l 174 940 l 131 940 l 131 897 l 651 897 l 651 810 l 217 810 l 217 506 l 521 506 l 521 419 l 217 419 l 217 115 l 651 115 l 651 28 l 86 28 l 86 897 l 0 897 l 0 940 l 43 940 l 43 983 l 86 983 l 86 1026 l 131 1026 z "},"Ή":{"ha":694,"x_min":0,"x_max":651,"o":"m 131 1026 l 131 1069 l 261 1069 l 261 1026 l 217 1026 l 217 983 l 174 983 l 174 940 l 131 940 l 131 897 l 217 897 l 217 506 l 521 506 l 521 897 l 651 897 l 651 28 l 521 28 l 521 419 l 217 419 l 217 28 l 86 28 l 86 897 l 0 897 l 0 940 l 43 940 l 43 983 l 86 983 l 86 1026 l 131 1026 z "},"Ί":{"ha":694,"x_min":0,"x_max":478,"o":"m 174 810 l 174 897 l 478 897 l 478 810 l 390 810 l 390 115 l 478 115 l 478 28 l 174 28 l 174 115 l 261 115 l 261 810 l 174 810 m 131 1026 l 131 1069 l 261 1069 l 261 1026 l 217 1026 l 217 983 l 174 983 l 174 940 l 131 940 l 131 897 l 0 897 l 0 940 l 43 940 l 43 983 l 86 983 l 86 1026 l 131 1026 z "},"Ό":{"ha":694,"x_min":0,"x_max":608,"o":"m 131 1026 l 131 1069 l 261 1069 l 261 1026 l 217 1026 l 217 983 l 174 983 l 174 940 l 131 940 l 131 897 l 521 897 l 521 853 l 564 853 l 564 810 l 608 810 l 608 115 l 564 115 l 564 72 l 521 72 l 521 28 l 131 28 l 131 72 l 86 72 l 86 115 l 43 115 l 43 810 l 86 810 l 86 853 l 131 853 l 131 897 l 0 897 l 0 940 l 43 940 l 43 983 l 86 983 l 86 1026 l 131 1026 m 433 767 l 433 810 l 217 810 l 217 767 l 174 767 l 174 158 l 217 158 l 217 115 l 433 115 l 433 158 l 478 158 l 478 767 l 433 767 z "},"Ύ":{"ha":694,"x_min":0,"x_max":651,"o":"m 131 1026 l 131 1069 l 261 1069 l 261 1026 l 217 1026 l 217 983 l 174 983 l 174 940 l 131 940 l 131 897 l 217 897 l 217 767 l 261 767 l 261 679 l 304 679 l 304 593 l 347 593 l 347 506 l 390 506 l 390 593 l 433 593 l 433 679 l 478 679 l 478 767 l 521 767 l 521 897 l 651 897 l 651 767 l 608 767 l 608 679 l 564 679 l 564 593 l 521 593 l 521 506 l 478 506 l 478 419 l 433 419 l 433 28 l 304 28 l 304 419 l 261 419 l 261 506 l 217 506 l 217 593 l 174 593 l 174 679 l 131 679 l 131 767 l 86 767 l 86 897 l 0 897 l 0 940 l 43 940 l 43 983 l 86 983 l 86 1026 l 131 1026 z "},"Ώ":{"ha":694,"x_min":0,"x_max":608,"o":"m 131 1026 l 131 1069 l 261 1069 l 261 1026 l 217 1026 l 217 983 l 174 983 l 174 940 l 131 940 l 131 897 l 521 897 l 521 853 l 564 853 l 564 810 l 608 810 l 608 289 l 564 289 l 564 246 l 521 246 l 521 115 l 608 115 l 608 28 l 390 28 l 390 246 l 433 246 l 433 289 l 478 289 l 478 767 l 433 767 l 433 810 l 217 810 l 217 767 l 174 767 l 174 289 l 217 289 l 217 246 l 261 246 l 261 28 l 43 28 l 43 115 l 131 115 l 131 246 l 86 246 l 86 289 l 43 289 l 43 810 l 86 810 l 86 853 l 131 853 l 131 897 l 0 897 l 0 940 l 43 940 l 43 983 l 86 983 l 86 1026 l 131 1026 z "},"ΐ":{"ha":694,"x_min":86,"x_max":521,"o":"m 131 550 l 131 636 l 347 636 l 347 158 l 390 158 l 390 115 l 521 115 l 521 28 l 304 28 l 304 72 l 261 72 l 261 115 l 217 115 l 217 550 l 131 550 m 347 722 l 347 897 l 478 897 l 478 722 l 347 722 m 86 722 l 86 897 l 217 897 l 217 722 l 86 722 m 347 1069 l 347 1114 l 478 1114 l 478 1069 l 433 1069 l 433 1026 l 390 1026 l 390 983 l 347 983 l 347 940 l 217 940 l 217 983 l 261 983 l 261 1026 l 304 1026 l 304 1069 l 347 1069 z "},"Α":{"ha":694,"x_min":43,"x_max":608,"o":"m 131 853 l 131 897 l 521 897 l 521 853 l 564 853 l 564 810 l 608 810 l 608 28 l 478 28 l 478 375 l 174 375 l 174 28 l 43 28 l 43 810 l 86 810 l 86 853 l 131 853 m 433 767 l 433 810 l 217 810 l 217 767 l 174 767 l 174 463 l 478 463 l 478 767 l 433 767 z "},"Β":{"ha":694,"x_min":43,"x_max":608,"o":"m 43 28 l 43 897 l 521 897 l 521 853 l 564 853 l 564 810 l 608 810 l 608 593 l 564 593 l 564 550 l 521 550 l 521 463 l 564 463 l 564 419 l 608 419 l 608 115 l 564 115 l 564 72 l 521 72 l 521 28 l 43 28 m 433 767 l 433 810 l 174 810 l 174 550 l 433 550 l 433 593 l 478 593 l 478 767 l 433 767 m 433 419 l 433 463 l 174 463 l 174 115 l 433 115 l 433 158 l 478 158 l 478 419 l 433 419 z "},"Γ":{"ha":694,"x_min":43,"x_max":608,"o":"m 43 28 l 43 897 l 608 897 l 608 810 l 174 810 l 174 28 l 43 28 z "},"Δ":{"ha":694,"x_min":43,"x_max":608,"o":"m 261 767 l 261 897 l 390 897 l 390 767 l 433 767 l 433 636 l 478 636 l 478 506 l 521 506 l 521 375 l 564 375 l 564 246 l 608 246 l 608 28 l 43 28 l 43 246 l 86 246 l 86 375 l 131 375 l 131 506 l 174 506 l 174 636 l 217 636 l 217 767 l 261 767 m 347 506 l 347 636 l 304 636 l 304 506 l 261 506 l 261 375 l 217 375 l 217 246 l 174 246 l 174 115 l 478 115 l 478 246 l 433 246 l 433 375 l 390 375 l 390 506 l 347 506 z "},"Ε":{"ha":694,"x_min":43,"x_max":608,"o":"m 43 28 l 43 897 l 608 897 l 608 810 l 174 810 l 174 506 l 478 506 l 478 419 l 174 419 l 174 115 l 608 115 l 608 28 l 43 28 z "},"Ζ":{"ha":694,"x_min":43,"x_max":608,"o":"m 43 810 l 43 897 l 608 897 l 608 679 l 564 679 l 564 636 l 521 636 l 521 593 l 478 593 l 478 550 l 433 550 l 433 506 l 390 506 l 390 463 l 347 463 l 347 419 l 304 419 l 304 375 l 261 375 l 261 332 l 217 332 l 217 289 l 174 289 l 174 115 l 608 115 l 608 28 l 43 28 l 43 289 l 86 289 l 86 332 l 131 332 l 131 375 l 174 375 l 174 419 l 217 419 l 217 463 l 261 463 l 261 506 l 304 506 l 304 550 l 347 550 l 347 593 l 390 593 l 390 636 l 433 636 l 433 679 l 478 679 l 478 810 l 43 810 z "},"Η":{"ha":694,"x_min":43,"x_max":608,"o":"m 43 28 l 43 897 l 174 897 l 174 506 l 478 506 l 478 897 l 608 897 l 608 28 l 478 28 l 478 419 l 174 419 l 174 28 l 43 28 z "},"Θ":{"ha":694,"x_min":43,"x_max":608,"o":"m 217 419 l 217 506 l 433 506 l 433 419 l 217 419 m 131 853 l 131 897 l 521 897 l 521 853 l 564 853 l 564 810 l 608 810 l 608 115 l 564 115 l 564 72 l 521 72 l 521 28 l 131 28 l 131 72 l 86 72 l 86 115 l 43 115 l 43 810 l 86 810 l 86 853 l 131 853 m 433 767 l 433 810 l 217 810 l 217 767 l 174 767 l 174 158 l 217 158 l 217 115 l 433 115 l 433 158 l 478 158 l 478 767 l 433 767 z "},"Ι":{"ha":694,"x_min":174,"x_max":478,"o":"m 174 810 l 174 897 l 478 897 l 478 810 l 390 810 l 390 115 l 478 115 l 478 28 l 174 28 l 174 115 l 261 115 l 261 810 l 174 810 z "},"Κ":{"ha":694,"x_min":43,"x_max":608,"o":"m 43 28 l 43 897 l 174 897 l 174 550 l 217 550 l 217 593 l 261 593 l 261 636 l 304 636 l 304 679 l 347 679 l 347 722 l 390 722 l 390 767 l 433 767 l 433 810 l 478 810 l 478 853 l 521 853 l 521 897 l 608 897 l 608 810 l 564 810 l 564 767 l 521 767 l 521 722 l 478 722 l 478 679 l 433 679 l 433 636 l 390 636 l 390 593 l 347 593 l 347 550 l 304 550 l 304 506 l 261 506 l 261 419 l 304 419 l 304 375 l 347 375 l 347 332 l 390 332 l 390 289 l 433 289 l 433 246 l 478 246 l 478 203 l 521 203 l 521 158 l 564 158 l 564 115 l 608 115 l 608 28 l 521 28 l 521 72 l 478 72 l 478 115 l 433 115 l 433 158 l 390 158 l 390 203 l 347 203 l 347 246 l 304 246 l 304 289 l 261 289 l 261 332 l 217 332 l 217 375 l 174 375 l 174 28 l 43 28 z "},"Λ":{"ha":694,"x_min":43,"x_max":608,"o":"m 261 767 l 261 897 l 390 897 l 390 767 l 433 767 l 433 636 l 478 636 l 478 506 l 521 506 l 521 375 l 564 375 l 564 203 l 608 203 l 608 28 l 478 28 l 478 203 l 433 203 l 433 375 l 390 375 l 390 506 l 347 506 l 347 636 l 304 636 l 304 506 l 261 506 l 261 375 l 217 375 l 217 203 l 174 203 l 174 28 l 43 28 l 43 203 l 86 203 l 86 375 l 131 375 l 131 506 l 174 506 l 174 636 l 217 636 l 217 767 l 261 767 z "},"Μ":{"ha":694,"x_min":43,"x_max":651,"o":"m 43 28 l 43 897 l 174 897 l 174 810 l 217 810 l 217 767 l 261 767 l 261 722 l 304 722 l 304 636 l 390 636 l 390 722 l 433 722 l 433 767 l 478 767 l 478 810 l 521 810 l 521 897 l 651 897 l 651 28 l 521 28 l 521 636 l 478 636 l 478 593 l 433 593 l 433 506 l 390 506 l 390 463 l 304 463 l 304 506 l 261 506 l 261 593 l 217 593 l 217 636 l 174 636 l 174 28 l 43 28 z "},"Ν":{"ha":694,"x_min":43,"x_max":608,"o":"m 43 28 l 43 897 l 174 897 l 174 679 l 217 679 l 217 636 l 261 636 l 261 593 l 304 593 l 304 550 l 347 550 l 347 506 l 390 506 l 390 463 l 433 463 l 433 419 l 478 419 l 478 897 l 608 897 l 608 28 l 478 28 l 478 289 l 433 289 l 433 332 l 390 332 l 390 375 l 347 375 l 347 419 l 304 419 l 304 463 l 261 463 l 261 506 l 217 506 l 217 550 l 174 550 l 174 28 l 43 28 z "},"Ξ":{"ha":694,"x_min":43,"x_max":608,"o":"m 43 28 l 43 115 l 608 115 l 608 28 l 43 28 m 131 419 l 131 506 l 521 506 l 521 419 l 131 419 m 43 810 l 43 897 l 608 897 l 608 810 l 43 810 z "},"Ο":{"ha":694,"x_min":43,"x_max":608,"o":"m 131 853 l 131 897 l 521 897 l 521 853 l 564 853 l 564 810 l 608 810 l 608 115 l 564 115 l 564 72 l 521 72 l 521 28 l 131 28 l 131 72 l 86 72 l 86 115 l 43 115 l 43 810 l 86 810 l 86 853 l 131 853 m 433 767 l 433 810 l 217 810 l 217 767 l 174 767 l 174 158 l 217 158 l 217 115 l 433 115 l 433 158 l 478 158 l 478 767 l 433 767 z "},"Π":{"ha":694,"x_min":43,"x_max":608,"o":"m 43 28 l 43 897 l 608 897 l 608 28 l 478 28 l 478 810 l 174 810 l 174 28 l 43 28 z "},"Ρ":{"ha":694,"x_min":43,"x_max":608,"o":"m 43 28 l 43 897 l 521 897 l 521 853 l 564 853 l 564 810 l 608 810 l 608 463 l 564 463 l 564 419 l 521 419 l 521 375 l 174 375 l 174 28 l 43 28 m 433 767 l 433 810 l 174 810 l 174 463 l 433 463 l 433 506 l 478 506 l 478 767 l 433 767 z "},"Σ":{"ha":694,"x_min":43,"x_max":608,"o":"m 43 767 l 43 897 l 608 897 l 608 810 l 174 810 l 174 767 l 217 767 l 217 722 l 261 722 l 261 679 l 304 679 l 304 636 l 347 636 l 347 593 l 390 593 l 390 550 l 433 550 l 433 506 l 478 506 l 478 419 l 433 419 l 433 375 l 390 375 l 390 332 l 347 332 l 347 289 l 304 289 l 304 246 l 261 246 l 261 203 l 217 203 l 217 158 l 174 158 l 174 115 l 608 115 l 608 28 l 43 28 l 43 158 l 86 158 l 86 203 l 131 203 l 131 246 l 174 246 l 174 289 l 217 289 l 217 332 l 261 332 l 261 375 l 304 375 l 304 419 l 347 419 l 347 506 l 304 506 l 304 550 l 261 550 l 261 593 l 217 593 l 217 636 l 174 636 l 174 679 l 131 679 l 131 722 l 86 722 l 86 767 l 43 767 z "},"Τ":{"ha":694,"x_min":43,"x_max":608,"o":"m 43 810 l 43 897 l 608 897 l 608 810 l 390 810 l 390 28 l 261 28 l 261 810 l 43 810 z "},"Υ":{"ha":694,"x_min":43,"x_max":608,"o":"m 43 767 l 43 897 l 174 897 l 174 767 l 217 767 l 217 679 l 261 679 l 261 593 l 304 593 l 304 506 l 347 506 l 347 593 l 390 593 l 390 679 l 433 679 l 433 767 l 478 767 l 478 897 l 608 897 l 608 767 l 564 767 l 564 679 l 521 679 l 521 593 l 478 593 l 478 506 l 433 506 l 433 419 l 390 419 l 390 28 l 261 28 l 261 419 l 217 419 l 217 506 l 174 506 l 174 593 l 131 593 l 131 679 l 86 679 l 86 767 l 43 767 z "},"Φ":{"ha":694,"x_min":43,"x_max":608,"o":"m 261 810 l 261 897 l 390 897 l 390 810 l 521 810 l 521 767 l 564 767 l 564 722 l 608 722 l 608 203 l 564 203 l 564 158 l 521 158 l 521 115 l 390 115 l 390 28 l 261 28 l 261 115 l 131 115 l 131 158 l 86 158 l 86 203 l 43 203 l 43 722 l 86 722 l 86 767 l 131 767 l 131 810 l 261 810 m 261 203 l 261 722 l 217 722 l 217 679 l 174 679 l 174 246 l 217 246 l 217 203 l 261 203 m 433 679 l 433 722 l 390 722 l 390 203 l 433 203 l 433 246 l 478 246 l 478 679 l 433 679 z "},"Χ":{"ha":694,"x_min":43,"x_max":608,"o":"m 43 810 l 43 897 l 174 897 l 174 810 l 217 810 l 217 722 l 261 722 l 261 636 l 304 636 l 304 550 l 347 550 l 347 636 l 390 636 l 390 722 l 433 722 l 433 810 l 478 810 l 478 897 l 608 897 l 608 810 l 564 810 l 564 722 l 521 722 l 521 636 l 478 636 l 478 550 l 433 550 l 433 375 l 478 375 l 478 289 l 521 289 l 521 203 l 564 203 l 564 115 l 608 115 l 608 28 l 478 28 l 478 115 l 433 115 l 433 203 l 390 203 l 390 289 l 347 289 l 347 375 l 304 375 l 304 289 l 261 289 l 261 203 l 217 203 l 217 115 l 174 115 l 174 28 l 43 28 l 43 115 l 86 115 l 86 203 l 131 203 l 131 289 l 174 289 l 174 375 l 217 375 l 217 550 l 174 550 l 174 636 l 131 636 l 131 722 l 86 722 l 86 810 l 43 810 z "},"Ψ":{"ha":694,"x_min":43,"x_max":608,"o":"m 43 289 l 43 897 l 174 897 l 174 332 l 217 332 l 217 289 l 261 289 l 261 897 l 390 897 l 390 289 l 433 289 l 433 332 l 478 332 l 478 897 l 608 897 l 608 289 l 564 289 l 564 246 l 521 246 l 521 203 l 390 203 l 390 28 l 261 28 l 261 203 l 131 203 l 131 246 l 86 246 l 86 289 l 43 289 z "},"Ω":{"ha":694,"x_min":43,"x_max":608,"o":"m 131 853 l 131 897 l 521 897 l 521 853 l 564 853 l 564 810 l 608 810 l 608 289 l 564 289 l 564 246 l 521 246 l 521 115 l 608 115 l 608 28 l 390 28 l 390 246 l 433 246 l 433 289 l 478 289 l 478 767 l 433 767 l 433 810 l 217 810 l 217 767 l 174 767 l 174 289 l 217 289 l 217 246 l 261 246 l 261 28 l 43 28 l 43 115 l 131 115 l 131 246 l 86 246 l 86 289 l 43 289 l 43 810 l 86 810 l 86 853 l 131 853 z "},"Ϊ":{"ha":694,"x_min":131,"x_max":521,"o":"m 174 810 l 174 897 l 478 897 l 478 810 l 390 810 l 390 115 l 478 115 l 478 28 l 174 28 l 174 115 l 261 115 l 261 810 l 174 810 m 390 940 l 390 1114 l 521 1114 l 521 940 l 390 940 m 131 940 l 131 1114 l 261 1114 l 261 940 l 131 940 z "},"Ϋ":{"ha":694,"x_min":43,"x_max":608,"o":"m 43 767 l 43 897 l 174 897 l 174 767 l 217 767 l 217 679 l 261 679 l 261 593 l 304 593 l 304 506 l 347 506 l 347 593 l 390 593 l 390 679 l 433 679 l 433 767 l 478 767 l 478 897 l 608 897 l 608 767 l 564 767 l 564 679 l 521 679 l 521 593 l 478 593 l 478 506 l 433 506 l 433 419 l 390 419 l 390 28 l 261 28 l 261 419 l 217 419 l 217 506 l 174 506 l 174 593 l 131 593 l 131 679 l 86 679 l 86 767 l 43 767 m 390 940 l 390 1114 l 521 1114 l 521 940 l 390 940 m 131 940 l 131 1114 l 261 1114 l 261 940 l 131 940 z "},"ά":{"ha":694,"x_min":43,"x_max":651,"o":"m 131 593 l 131 636 l 478 636 l 478 593 l 521 593 l 521 636 l 651 636 l 651 550 l 608 550 l 608 506 l 564 506 l 564 158 l 608 158 l 608 115 l 651 115 l 651 28 l 521 28 l 521 72 l 478 72 l 478 28 l 131 28 l 131 72 l 86 72 l 86 115 l 43 115 l 43 550 l 86 550 l 86 593 l 131 593 m 433 115 l 433 550 l 217 550 l 217 506 l 174 506 l 174 158 l 217 158 l 217 115 l 433 115 m 390 853 l 390 897 l 521 897 l 521 853 l 478 853 l 478 810 l 433 810 l 433 767 l 390 767 l 390 722 l 261 722 l 261 767 l 304 767 l 304 810 l 347 810 l 347 853 l 390 853 z "}}}
